G04 ================== begin FILE IDENTIFICATION RECORD ==================*
G04 Layout Name:  My_AVRUSB500.brd*
G04 Film Name:    BOTTOM*
G04 File Format:  Gerber RS274X*
G04 File Origin:  Cadence Allegro 17.2-S052*
G04 Origin Date:  Mon Jul 29 16:02:50 2019*
G04 *
G04 Layer:  ETCH/BOTTOM*
G04 Layer:  PIN/BOTTOM*
G04 Layer:  VIA CLASS/BOTTOM*
G04 *
G04 Offset:    (0.0000 0.0000)*
G04 Mirror:    No*
G04 Mode:      Positive*
G04 Rotation:  0*
G04 FullContactRelief:  No*
G04 UndefLineWidth:     0.0000*
G04 ================== end FILE IDENTIFICATION RECORD ====================*
%FSLAX55Y55*MOMM*%
%IR0*IPPOS*OFA0.00000B0.00000*MIA0B0*SFA1.00000B1.00000*%
%ADD12O,1.1999X1.8999*%
%ADD10C,.6096*%
%ADD11C,1.3211*%
%ADD13C,1.524*%
%ADD14R,1.3211X1.3211*%
%ADD15C,.254*%
%ADD19C,.864*%
%ADD16O,1.4544X2.1544*%
%ADD18C,1.5756*%
%ADD17C,1.7784*%
G75*
%LPD*%
G75*
G36*
G01X500010Y4499990D02*
X10499990D01*
Y500010D01*
X500010D01*
Y4499990D01*
G37*
%LPC*%
G75*
G36*
G01X9065220Y695940D02*
Y828060D01*
G02X9077940Y840780I12725J-5D01*
G01X9210060D01*
G02X9222780Y828060I-5J-12725D01*
G01Y695940D01*
G02X9210060Y683220I-12725J5D01*
G01X9077940D01*
G02X9065220Y695940I5J12725D01*
G37*
G36*
G01X8049220D02*
Y828060D01*
G02X8061940Y840780I12725J-5D01*
G01X8194060D01*
G02X8206780Y828060I-5J-12725D01*
G01Y695940D01*
G02X8194060Y683220I-12725J5D01*
G01X8061940D01*
G02X8049220Y695940I5J12725D01*
G37*
G36*
G01X9827220D02*
Y828060D01*
G02X9839940Y840780I12725J-5D01*
G01X9972060D01*
G02X9984780Y828060I-5J-12725D01*
G01Y695940D01*
G02X9972060Y683220I-12725J5D01*
G01X9839940D01*
G02X9827220Y695940I5J12725D01*
G37*
G36*
G01X5132970Y1244580D02*
X4352930D01*
G02X4318000Y1226800I-34930J25421D01*
G02Y1313200I0J43200D01*
G02X4352930Y1295420I0J-43201D01*
G01X5143500D01*
G02X5161470Y1287970I-8J-25417D01*
G01X5263720Y1185730D01*
X5266120Y1185980D01*
G02X5270500Y1186200I4354J-42981D01*
G02X5227300Y1143000I0J-43200D01*
G02X5227520Y1147380I43201J26D01*
G01X5227770Y1149780D01*
X5132970Y1244580D01*
G37*
G36*
G01X5196470Y1371580D02*
X4416430D01*
G02X4381500Y1353800I-34930J25421D01*
G02Y1440200I0J43200D01*
G02X4416430Y1422420I0J-43201D01*
G01X5207000D01*
G02X5224970Y1414970I-8J-25417D01*
G01X5598530Y1041420D01*
X5870570D01*
G02X5905500Y1059200I34930J-25421D01*
G02Y972800I0J-43200D01*
G02X5870570Y990580I0J43201D01*
G01X5588000D01*
G02X5570030Y998030I8J25417D01*
G01X5196470Y1371580D01*
G37*
G36*
G01X7594580Y1661530D02*
Y1806570D01*
G02X7576800Y1841500I25421J34930D01*
G02X7663200I43200J0D01*
G02X7645420Y1806570I-43201J0D01*
G01Y1651000D01*
G02X7637970Y1633030I-25417J8D01*
G01X7599230Y1594280D01*
X7599480Y1591880D01*
G02X7599700Y1587500I-42981J-4354D01*
G02X7556500Y1630700I-43200J0D01*
G02X7560880Y1630480I26J-43201D01*
G01X7563280Y1630230D01*
X7594580Y1661530D01*
G37*
G36*
G01X7476190Y2305070D02*
G02X7493000Y2311420I16810J-19075D01*
G01X7648570D01*
G02X7683500Y2329200I34930J-25421D01*
G02Y2242800I0J-43200D01*
G02X7648570Y2260580I0J43201D01*
G01X7528240D01*
G03X7524530Y2252030I1J-5080D01*
G02X7527930Y2247920I-31523J-29539D01*
G01X7620000D01*
G02X7637970Y2240470I-8J-25417D01*
G01X7676720Y2201730D01*
X7679120Y2201980D01*
G02X7683500Y2202200I4354J-42981D01*
G02X7640300Y2159000I0J-43200D01*
G02X7640520Y2163380I43201J26D01*
G01X7640770Y2165780D01*
X7609470Y2197080D01*
X7527930D01*
G02X7493000Y2179300I-34930J25421D01*
G02X7470400Y2185690I10J43197D01*
G03X7454920Y2177030I-5318J-8659D01*
G01Y1812930D01*
G02X7472700Y1778000I-25421J-34930D01*
G02X7386300I-43200J0D01*
G02X7404080Y1812930I43201J0D01*
G01Y2222500D01*
G02X7410430Y2239310I25425J0D01*
G01X7411700Y2240750D01*
Y2245650D01*
G02X7419150Y2263620I25417J-8D01*
G01X7451880Y2296350D01*
G02X7469850Y2303800I17978J-17967D01*
G01X7474750D01*
X7476190Y2305070D01*
G37*
G36*
G01X3657580Y2296530D02*
Y2441570D01*
G02X3639800Y2476500I25421J34930D01*
G02X3726200I43200J0D01*
G02X3708420Y2441570I-43201J0D01*
G01Y2286000D01*
G02X3700970Y2268030I-25417J8D01*
G01X3573970Y2141030D01*
G02X3556000Y2133580I-17978J17967D01*
G01X2892430D01*
G02X2857500Y2115800I-34930J25421D01*
G02Y2202200I0J43200D01*
G02X2892430Y2184420I0J-43201D01*
G01X3545470D01*
X3657580Y2296530D01*
G37*
G36*
G01X3792030Y2938970D02*
G02X3810000Y2946420I17978J-17967D01*
G01X3965570D01*
G02X4000500Y2964200I34930J-25421D01*
G02Y2877800I0J-43200D01*
G02X3965570Y2895580I0J43201D01*
G01X3820530D01*
X3644920Y2719970D01*
Y2667000D01*
G02X3637470Y2649030I-25417J8D01*
G01X3510470Y2522030D01*
G02X3492500Y2514580I-17978J17967D01*
G01X3302000D01*
G02X3284030Y2522030I8J25417D01*
G01X3245280Y2560770D01*
X3242880Y2560520D01*
G02X3238500Y2560300I-4354J42981D01*
G02X3281700Y2603500I0J43200D01*
G02X3281480Y2599120I-43201J-26D01*
G01X3281230Y2596720D01*
X3312530Y2565420D01*
X3481970D01*
X3594080Y2677530D01*
Y2730500D01*
G02X3601530Y2748470I25417J-8D01*
G01X3792030Y2938970D01*
G37*
G36*
G01X7538530D02*
G02X7556500Y2946420I17978J-17967D01*
G01X8537570D01*
G02X8572500Y2964200I34930J-25421D01*
G02Y2877800I0J-43200D01*
G02X8537570Y2895580I0J43201D01*
G01X7567030D01*
X7454920Y2783470D01*
Y2614030D01*
X7574470Y2494470D01*
G02X7581920Y2476500I-17967J-17978D01*
G01Y2447930D01*
G02X7599700Y2413000I-25421J-34930D01*
G02X7513300I-43200J0D01*
G02X7531080Y2447930I43201J0D01*
G01Y2465970D01*
X7411530Y2585530D01*
G02X7404080Y2603500I17967J17978D01*
G01Y2794000D01*
G02X7411530Y2811970I25417J-8D01*
G01X7538530Y2938970D01*
G37*
G36*
G01X6205030Y3065970D02*
G02X6223000Y3073420I17978J-17967D01*
G01X7140570D01*
G02X7175500Y3091200I34930J-25421D01*
G02Y3004800I0J-43200D01*
G02X7140570Y3022580I0J43201D01*
G01X6233530D01*
X6057920Y2846970D01*
Y2730500D01*
G02X6050470Y2712530I-25417J8D01*
G01X5803920Y2465970D01*
Y2066930D01*
G02X5821700Y2032000I-25421J-34930D01*
G02X5735300I-43200J0D01*
G02X5753080Y2066930I43201J0D01*
G01Y2476500D01*
G02X5760530Y2494470I25417J-8D01*
G01X6007080Y2741030D01*
Y2857500D01*
G02X6014530Y2875470I25417J-8D01*
G01X6205030Y3065970D01*
G37*
G36*
G01X4737080Y3175000D02*
Y3203570D01*
G02X4719300Y3238500I25421J34930D01*
G02X4805700I43200J0D01*
G02X4787920Y3203570I-43201J0D01*
G01Y3185530D01*
X4970970Y3002470D01*
G02X4978420Y2984500I-17967J-17978D01*
G01Y2487030D01*
X5154030Y2311420D01*
X5196470D01*
X5245080Y2360030D01*
Y2886070D01*
G02X5227300Y2921000I25421J34930D01*
G02X5313700I43200J0D01*
G02X5295920Y2886070I-43201J0D01*
G01Y2349500D01*
G02X5288470Y2331530I-25417J8D01*
G01X5224970Y2268030D01*
G02X5207000Y2260580I-17978J17967D01*
G01X5143500D01*
G02X5125530Y2268030I8J25417D01*
G01X4935030Y2458530D01*
G02X4927580Y2476500I17967J17978D01*
G01Y2973970D01*
X4744530Y3157030D01*
G02X4737080Y3175000I17967J17978D01*
G37*
G36*
G01X3403580Y3354970D02*
X3372280Y3386270D01*
X3369880Y3386020D01*
G02X3365500Y3385800I-4354J42981D01*
G02X3408700Y3429000I0J43200D01*
G02X3408480Y3424620I-43201J-26D01*
G01X3408230Y3422220D01*
X3446970Y3383470D01*
G02X3454420Y3365500I-17967J-17978D01*
G01Y2997200D01*
G02X3446970Y2979230I-25417J8D01*
G01X3434270Y2966530D01*
G02X3416300Y2959080I-17978J17967D01*
G01X3376030D01*
X3217730Y2800780D01*
X3217980Y2798380D01*
G02X3218200Y2794000I-42981J-4354D01*
G02X3175000Y2837200I-43200J0D01*
G02X3179380Y2836980I26J-43201D01*
G01X3181780Y2836730D01*
X3347530Y3002470D01*
G02X3365500Y3009920I17978J-17967D01*
G01X3403580D01*
Y3354970D01*
G37*
G36*
G01X6395520Y3510470D02*
G02X6413490Y3517920I17978J-17967D01*
G01X6505570D01*
G02X6540500Y3535700I34930J-25421D01*
G02Y3449300I0J-43200D01*
G02X6505570Y3467080I0J43201D01*
G01X6424020D01*
X5803920Y2846980D01*
Y2701930D01*
G02X5821700Y2667000I-25421J-34930D01*
G02X5735300I-43200J0D01*
G02X5753080Y2701930I43201J0D01*
G01Y2857510D01*
G02X5760530Y2875480I25417J-8D01*
G01X6395520Y3510470D01*
G37*
G36*
G01X3354970Y3594080D02*
X1939930D01*
G02X1905000Y3576300I-34930J25421D01*
G02Y3662700I0J43200D01*
G02X1939930Y3644920I0J-43201D01*
G01X3365500D01*
G02X3383470Y3637470I-8J-25417D01*
G01X3510470Y3510470D01*
G02X3517920Y3492500I-17967J-17978D01*
G01Y2730500D01*
G02X3510470Y2712530I-25417J8D01*
G01X3471730Y2673780D01*
X3471980Y2671380D01*
G02X3472200Y2667000I-42981J-4354D01*
G02X3429000Y2710200I-43200J0D01*
G02X3433380Y2709980I26J-43201D01*
G01X3435780Y2709730D01*
X3467080Y2741030D01*
Y3481970D01*
X3354970Y3594080D01*
G37*
G36*
G01X1498580Y3175000D02*
Y3838570D01*
G02X1480800Y3873500I25421J34930D01*
G02X1567200I43200J0D01*
G02X1549420Y3838570I-43201J0D01*
G01Y3410970D01*
G03X1564900Y3402310I10162J-1D01*
G02X1587500Y3408700I22610J-36807D01*
G02Y3322300I0J-43200D01*
G02X1564900Y3328690I10J43197D01*
G03X1549420Y3320030I-5318J-8659D01*
G01Y3185530D01*
X1661530Y3073420D01*
X1743070D01*
G02X1778000Y3091200I34930J-25421D01*
G02Y3004800I0J-43200D01*
G02X1743070Y3022580I0J43201D01*
G01X1651000D01*
G02X1633030Y3030030I8J25417D01*
G01X1506030Y3157030D01*
G02X1498580Y3175000I17967J17978D01*
G37*
G36*
G01X4797430Y3848080D02*
G02X4762500Y3830300I-34930J25421D01*
G02Y3916700I0J43200D01*
G02X4797430Y3898920I0J-43201D01*
G01X5426070D01*
G02X5461000Y3916700I34930J-25421D01*
G02Y3830300I0J-43200D01*
G02X5426070Y3848080I0J43201D01*
G01X4797430D01*
G37*
G36*
G01X5689580Y3820530D02*
Y3838570D01*
G02X5671800Y3873500I25421J34930D01*
G02X5758200I43200J0D01*
G02X5740420Y3838570I-43201J0D01*
G01Y3810000D01*
G02X5732970Y3792030I-25417J8D01*
G01X5313230Y3372280D01*
X5313480Y3369880D01*
G02X5313700Y3365500I-42981J-4354D01*
G02X5270500Y3408700I-43200J0D01*
G02X5274880Y3408480I26J-43201D01*
G01X5277280Y3408230D01*
X5689580Y3820530D01*
G37*
G36*
G01X5943580Y3693530D02*
Y3838570D01*
G02X5925800Y3873500I25421J34930D01*
G02X6012200I43200J0D01*
G02X5994420Y3838570I-43201J0D01*
G01Y3683000D01*
G02X5986970Y3665030I-25417J8D01*
G01X5740420Y3418470D01*
Y3209930D01*
G02X5758200Y3175000I-25421J-34930D01*
G02X5671800I-43200J0D01*
G02X5689580Y3209930I43201J0D01*
G01Y3429000D01*
G02X5697030Y3446970I25417J-8D01*
G01X5943580Y3693530D01*
G37*
G36*
G01X4619070Y3801010D02*
Y4083580D01*
G02X4601290Y4118510I25421J34930D01*
G02X4687690I43200J0D01*
G02X4669910Y4083580I-43201J0D01*
G01Y3811540D01*
X5097970Y3383470D01*
G02X5105420Y3365500I-17967J-17978D01*
G01Y2550530D01*
X5136720Y2519230D01*
X5139120Y2519480D01*
G02X5143500Y2519700I4354J-42981D01*
G02X5100300Y2476500I0J-43200D01*
G02X5100520Y2480880I43201J26D01*
G01X5100770Y2483280D01*
X5062030Y2522030D01*
G02X5054580Y2540000I17967J17978D01*
G01Y3354970D01*
X4626520Y3783040D01*
G02X4619070Y3801010I17967J17978D01*
G37*
G36*
G01X1506030Y4335970D02*
X1633030Y4462970D01*
G02X1651000Y4470420I17978J-17967D01*
G01X2476500D01*
G02X2494470Y4462970I-8J-25417D01*
G01X2621470Y4335970D01*
G02X2628920Y4318000I-17967J-17978D01*
G01Y3884030D01*
X2741030Y3771920D01*
X3320030D01*
G03X3328690Y3787400I1J10162D01*
G02X3322300Y3810000I36807J22610D01*
G02X3365500Y3853200I43200J0D01*
G02X3369880Y3852980I26J-43201D01*
G01X3372280Y3852730D01*
X3411030Y3891470D01*
G02X3429000Y3898920I17978J-17967D01*
G01X3672470D01*
X3721080Y3947530D01*
Y4029070D01*
G02X3703300Y4064000I25421J34930D01*
G02X3789700I43200J0D01*
G02X3771920Y4029070I-43201J0D01*
G01Y3937000D01*
G02X3764470Y3919030I-25417J8D01*
G01X3700970Y3855530D01*
G02X3683000Y3848080I-17978J17967D01*
G01X3439530D01*
X3408230Y3816780D01*
X3408480Y3814380D01*
G02X3408700Y3810000I-42981J-4354D01*
G02X3402310Y3787400I-43197J10D01*
G03X3410970Y3771920I8659J-5318D01*
G01X3683000D01*
G02X3700970Y3764470I-8J-25417D01*
G01X3739720Y3725730D01*
X3742120Y3725980D01*
G02X3746500Y3726200I4354J-42981D01*
G02X3703300Y3683000I0J-43200D01*
G02X3703520Y3687380I43201J26D01*
G01X3703770Y3689780D01*
X3672470Y3721080D01*
X2730500D01*
G02X2712530Y3728530I8J25417D01*
G01X2585530Y3855530D01*
G02X2578080Y3873500I17967J17978D01*
G01Y4307470D01*
X2465970Y4419580D01*
X1661530D01*
X1549420Y4307470D01*
Y4225930D01*
G02X1567200Y4191000I-25421J-34930D01*
G02X1566980Y4186620I-43201J-26D01*
G01X1566730Y4184220D01*
X1732470Y4018470D01*
G02X1739920Y4000500I-17967J-17978D01*
G01Y3273430D01*
G02X1757700Y3238500I-25421J-34930D01*
G02X1671300I-43200J0D01*
G02X1689080Y3273430I43201J0D01*
G01Y3989970D01*
X1530780Y4148270D01*
X1528380Y4148020D01*
G02X1524000Y4147800I-4354J42981D01*
G02X1480800Y4191000I0J43200D01*
G02X1498580Y4225930I43201J0D01*
G01Y4318000D01*
G02X1506030Y4335970I25417J-8D01*
G37*
G36*
G01X7323020Y2472120D02*
G02X7322800Y2476500I42981J4354D01*
G02X7366000Y2433300I43200J0D01*
G02X7361620Y2433520I-26J43201D01*
G01X7359220Y2433770D01*
X7073920Y2148470D01*
Y2140970D01*
G03X7089400Y2132310I10162J-1D01*
G02X7112000Y2138700I22610J-36807D01*
G02Y2052300I0J-43200D01*
G02X7089400Y2058690I10J43197D01*
G03X7073920Y2050030I-5318J-8659D01*
G01Y1788530D01*
X7440030Y1422420D01*
X7447530D01*
G03X7456190Y1437900I1J10162D01*
G02X7449800Y1460500I36807J22610D01*
G02X7450020Y1464880I43201J26D01*
G01X7450270Y1467280D01*
X7284530Y1633030D01*
G02X7277080Y1651000I17967J17978D01*
G01Y2124070D01*
G02X7259300Y2159000I25421J34930D01*
G02X7345700I43200J0D01*
G02X7327920Y2124070I-43201J0D01*
G01Y1661530D01*
X7486220Y1503230D01*
X7488620Y1503480D01*
G02X7493000Y1503700I4354J-42981D01*
G02X7536200Y1460500I0J-43200D01*
G02X7529810Y1437900I-43197J10D01*
G03X7538470Y1422420I8659J-5318D01*
G01X7545970D01*
X7792530Y1668970D01*
G02X7810500Y1676420I17978J-17967D01*
G01X8156570D01*
G02X8226430I34930J-25421D01*
G01X8400030D01*
G03X8408690Y1691900I1J10162D01*
G02X8402300Y1714500I36807J22610D01*
G02X8445500Y1757700I43200J0D01*
G02X8480430Y1739920I0J-43201D01*
G01X8815970D01*
X8847270Y1771220D01*
X8847020Y1773620D01*
G02X8846800Y1778000I42981J4354D01*
G02X8890000Y1734800I43200J0D01*
G02X8885620Y1735020I-26J43201D01*
G01X8883220Y1735270D01*
X8844470Y1696530D01*
G02X8826500Y1689080I-17978J17967D01*
G01X8480430D01*
G02X8477030Y1684970I-34923J25429D01*
G03X8480740Y1676420I3711J-3470D01*
G01X8942970D01*
X8991580Y1725030D01*
Y1933570D01*
G02Y2003430I25421J34930D01*
G01Y2084970D01*
X8896780Y2179770D01*
X8894380Y2179520D01*
G02X8890000Y2179300I-4354J42981D01*
G02X8933200Y2222500I0J43200D01*
G02X8932980Y2218120I-43201J-26D01*
G01X8932730Y2215720D01*
X9034970Y2113470D01*
G02X9042420Y2095500I-17967J-17978D01*
G01Y2003430D01*
G02Y1933570I-25421J-34930D01*
G01Y1714500D01*
G02X9034970Y1696530I-25417J8D01*
G01X8971470Y1633030D01*
G02X8953500Y1625580I-17978J17967D01*
G01X8871970D01*
G03X8863310Y1610100I-1J-10162D01*
G02X8869700Y1587500I-36807J-22610D01*
G02X8869480Y1583120I-43201J-26D01*
G01X8869230Y1580720D01*
X8971470Y1478470D01*
G02X8978920Y1460500I-17967J-17978D01*
G01Y1431930D01*
G02X8996700Y1397000I-25421J-34930D01*
G02X8910300I-43200J0D01*
G02X8928080Y1431930I43201J0D01*
G01Y1449970D01*
X8833280Y1544770D01*
X8830880Y1544520D01*
G02X8826500Y1544300I-4354J42981D01*
G02X8783300Y1587500I0J43200D01*
G02X8789690Y1610100I43197J-10D01*
G03X8781030Y1625580I-8659J5318D01*
G01X8427470D01*
G03X8418810Y1610100I-1J-10162D01*
G02X8425200Y1587500I-36807J-22610D01*
G02X8424980Y1583120I-43201J-26D01*
G01X8424730Y1580720D01*
X8717470Y1287970D01*
G02X8724920Y1270000I-17967J-17978D01*
G01Y635000D01*
G02X8717470Y617030I-25417J8D01*
G01X8653970Y553530D01*
G02X8636000Y546080I-17978J17967D01*
G01X7747000D01*
G02X7729030Y553530I8J25417D01*
G01X7665530Y617030D01*
G02X7658080Y635000I17967J17978D01*
G01Y878470D01*
X7583980Y952570D01*
X7408570D01*
X7404490Y948500D01*
G02X7386520Y941050I-17978J17967D01*
G01X7345480D01*
G02X7327510Y948500I8J25417D01*
G01X7323430Y952570D01*
X7277010D01*
G02X7259040Y960020I8J25417D01*
G01X7118780Y1100270D01*
X7116380Y1100020D01*
G02X7112000Y1099800I-4354J42981D01*
G02X7155200Y1143000I0J43200D01*
G02X7154980Y1138620I-43201J-26D01*
G01X7154730Y1136220D01*
X7287540Y1003410D01*
X7333960D01*
G02X7351930Y995960I-8J-25417D01*
G01X7356010Y991890D01*
X7375990D01*
X7380070Y995960D01*
G02X7398040Y1003410I17978J-17967D01*
G01X7594510D01*
G02X7612480Y995960I-8J-25417D01*
G01X7701470Y906970D01*
G02X7708920Y889000I-17967J-17978D01*
G01Y645530D01*
X7757530Y596920D01*
X8625470D01*
X8674080Y645530D01*
Y1259470D01*
X8388780Y1544770D01*
X8386380Y1544520D01*
G02X8382000Y1544300I-4354J42981D01*
G02X8338800Y1587500I0J43200D01*
G02X8345190Y1610100I43197J-10D01*
G03X8336530Y1625580I-8659J5318D01*
G01X8277400D01*
G03X8270210Y1608240I-3J-10160D01*
G01X8590470Y1287970D01*
G02X8597920Y1270000I-17967J-17978D01*
G01Y860430D01*
G02X8615700Y825500I-25421J-34930D01*
G02X8529300I-43200J0D01*
G02X8547080Y860430I43201J0D01*
G01Y1259470D01*
X8198280Y1608270D01*
X8195880Y1608020D01*
G02X8191500Y1607800I-4354J42981D01*
G02X8156570Y1625580I0J43201D01*
G01X7919470D01*
G03X7910810Y1610100I-1J-10162D01*
G02X7917200Y1587500I-36807J-22610D01*
G02X7874000Y1544300I-43200J0D01*
G02X7869620Y1544520I-26J43201D01*
G01X7867220Y1544770D01*
X7698710Y1376260D01*
G03X7705900Y1358920I7187J-7180D01*
G01X7711990D01*
X7713510Y1360790D01*
G02X7747000Y1376700I33490J-27293D01*
G02Y1290300I0J-43200D01*
G02X7712070Y1308080I0J43201D01*
G01X7694030D01*
X7447470Y1061530D01*
G02X7429500Y1054080I-17978J17967D01*
G01X7400930D01*
G02X7366000Y1036300I-34930J25421D01*
G02X7322800Y1079500I0J43200D01*
G02X7323020Y1083880I43201J26D01*
G01X7323270Y1086280D01*
X6967030Y1442530D01*
G02X6959580Y1460500I17967J17978D01*
G01Y1616070D01*
G02X6941800Y1651000I25421J34930D01*
G02X7028200I43200J0D01*
G02X7010420Y1616070I-43201J0D01*
G01Y1569470D01*
G03X7025900Y1560810I10162J-1D01*
G02X7048500Y1567200I22610J-36807D01*
G02X7091700Y1524000I0J-43200D01*
G02X7091480Y1519620I-43201J-26D01*
G01X7091230Y1517220D01*
X7313030Y1295420D01*
X7537760D01*
X7644520Y1402170D01*
G02X7658490Y1409300I17976J-17969D01*
G01X7660110Y1409560D01*
X7831270Y1580720D01*
X7831020Y1583120D01*
G02X7830800Y1587500I42981J4354D01*
G02X7837190Y1610100I43197J-10D01*
G03X7828530Y1625580I-8659J5318D01*
G01X7821030D01*
X7574470Y1379030D01*
G02X7556500Y1371580I-17978J17967D01*
G01X7429500D01*
G02X7411530Y1379030I8J25417D01*
G01X7037970Y1752580D01*
X4953000D01*
G02X4935030Y1760030I8J25417D01*
G01X4832780Y1862270D01*
X4830380Y1862020D01*
G02X4826000Y1861800I-4354J42981D01*
G02X4782800Y1905000I0J43200D01*
G02X4783020Y1909380I43201J26D01*
G01X4783270Y1911780D01*
X4688470Y2006580D01*
X3717930D01*
G02X3683000Y1988800I-34930J25421D01*
G02Y2075200I0J43200D01*
G02X3717930Y2057420I0J-43201D01*
G01X4699000D01*
G02X4716970Y2049970I-8J-25417D01*
G01X4819220Y1947730D01*
X4821620Y1947980D01*
G02X4826000Y1948200I4354J-42981D01*
G02X4869200Y1905000I0J-43200D01*
G02X4868980Y1900620I-43201J-26D01*
G01X4868730Y1898220D01*
X4963530Y1803420D01*
X7023080D01*
Y2159000D01*
G02X7030530Y2176970I25417J-8D01*
G01X7323270Y2469720D01*
X7323020Y2472120D01*
G37*
G36*
G01X1735020Y2864560D02*
G02X1734800Y2868940I42981J4354D01*
G02X1778000Y2825740I43200J0D01*
G02X1773620Y2825960I-26J43201D01*
G01X1771220Y2826210D01*
X1676420Y2731410D01*
Y2487030D01*
X1852030Y2311420D01*
X2349500D01*
G02X2367470Y2303970I-8J-25417D01*
G01X2494470Y2176970D01*
G02X2501920Y2159000I-17967J-17978D01*
G01Y2095500D01*
G02X2494470Y2077530I-25417J8D01*
G01X2374920Y1957970D01*
Y1407530D01*
X2614030Y1168420D01*
X3330570D01*
G02X3365500Y1186200I34930J-25421D01*
G02Y1099800I0J-43200D01*
G02X3330570Y1117580I0J43201D01*
G01X2603500D01*
G02X2585530Y1125030I8J25417D01*
G01X2331530Y1379030D01*
G02X2324080Y1397000I17967J17978D01*
G01Y1968500D01*
G02X2331530Y1986470I25417J-8D01*
G01X2451080Y2106030D01*
Y2148470D01*
X2338970Y2260580D01*
X2267970D01*
G03X2259310Y2245100I-1J-10162D01*
G02X2265700Y2222500I-36807J-22610D01*
G02X2222500Y2179300I-43200J0D01*
G02X2187570Y2197080I0J43201D01*
G01X2042530D01*
X1820730Y1975280D01*
X1820980Y1972880D01*
G02X1821200Y1968500I-42981J-4354D01*
G02X1734800I-43200J0D01*
G02X1735020Y1972880I43201J26D01*
G01X1735270Y1975280D01*
X1506030Y2204530D01*
G02X1498580Y2222500I17967J17978D01*
G01Y2378070D01*
G02X1480800Y2413000I25421J34930D01*
G02X1524000Y2456200I43200J0D01*
G02X1546600Y2449810I-10J-43197D01*
G03X1562080Y2458470I5318J8659D01*
G01Y2568570D01*
G02X1544300Y2603500I25421J34930D01*
G02X1587500Y2646700I43200J0D01*
G02X1610100Y2640310I-10J-43197D01*
G03X1625580Y2648970I5318J8659D01*
G01Y2741940D01*
G02X1633030Y2759910I25417J-8D01*
G01X1735270Y2862160D01*
X1735020Y2864560D01*
G37*
G54D19*
X1460500Y889000D03*
X3619500Y3238500D03*
X3175000Y3175000D03*
X4762500Y2667000D03*
X3873500Y2794000D03*
G54D16*
X4888000Y698500D03*
Y1068500D03*
X3768000D03*
Y698500D03*
G54D18*
X1079500Y3175000D03*
Y2413000D03*
X9652000Y2794000D03*
Y2032000D03*
X9906000Y1016000D03*
X8128000D03*
X9144000D03*
G54D17*
X5461000Y2413000D03*
Y2667000D03*
Y2921000D03*
X4953000Y4127500D03*
X5207000D03*
X5461000D03*
X5715000D03*
X5969000D03*
X5461000Y2159000D03*
X8636000Y4318000D03*
X8890000D03*
X9144000D03*
X9398000D03*
X9652000D03*
X5461000Y3175000D03*
%LPD*%
G75*
G36*
G01X1612920Y2568570D02*
G03X1617030Y2571970I-25429J34923D01*
G02X1625580Y2568260I3470J-3711D01*
G01Y2476500D01*
G03X1633030Y2458530I25417J8D01*
G01X1823530Y2268030D01*
G03X1841500Y2260580I17978J17967D01*
G01X2187260D01*
G02X2190970Y2252030I-1J-5080D01*
G03X2187570Y2247920I31523J-29539D01*
G01X2032000D01*
G03X2014030Y2240470I8J-25417D01*
G01X1784780Y2011230D01*
X1782380Y2011480D01*
G03X1778000Y2011700I-4354J-42981D01*
G03X1773620Y2011480I-26J-43201D01*
G01X1771220Y2011230D01*
X1549420Y2233030D01*
Y2378070D01*
G03X1559410Y2388260I-25429J34922D01*
G02X1574930Y2389620I8329J-5819D01*
G01X1798770Y2165780D01*
X1798520Y2163380D01*
G03X1798300Y2159000I42981J-4354D01*
G03X1841500Y2202200I43200J0D01*
G03X1837120Y2201980I-26J-43201D01*
G01X1834720Y2201730D01*
X1612920Y2423530D01*
Y2568570D01*
G37*
G36*
G01X7010420Y1471030D02*
Y1478530D01*
G02X7025900Y1487190I10162J1D01*
G03X7048500Y1480800I22610J36807D01*
G03X7052880Y1481020I26J43201D01*
G01X7055280Y1481270D01*
X7284530Y1252030D01*
G03X7302500Y1244580I17978J17967D01*
G01X7534100D01*
G02X7541290Y1227240I3J-10160D01*
G01X7418970Y1104920D01*
X7400930D01*
G03X7366000Y1122700I-34930J-25421D01*
G03X7361620Y1122480I-26J-43201D01*
G01X7359220Y1122230D01*
X7010420Y1471030D01*
G37*
G54D10*
X635000Y2286000D03*
X1460500Y889000D03*
X1778000Y1968500D03*
Y2730500D03*
X1587500Y2603500D03*
X1841500Y2159000D03*
X1524000Y2413000D03*
X1778000Y2868940D03*
Y3048000D03*
Y3365500D03*
X1714500Y3238500D03*
X1587500Y3365500D03*
X1524000Y3873500D03*
X1905000Y3619500D03*
X1524000Y4191000D03*
X2222500Y2222500D03*
X3365500Y1143000D03*
X3238500Y2603500D03*
X3429000Y2667000D03*
X2857500Y2159000D03*
X3175000Y2794000D03*
X3365500Y3429000D03*
X3111500Y2984500D03*
X3175000Y3175000D03*
X3365500Y3810000D03*
X3873500Y1333500D03*
X3683000Y2032000D03*
Y2476500D03*
X4000500Y2921000D03*
X3619500Y3238500D03*
X3873500Y2794000D03*
X3746500Y4064000D03*
Y3683000D03*
X4318000Y1270000D03*
X4826000Y1905000D03*
X4381500Y1397000D03*
X4762500Y2667000D03*
Y3238500D03*
Y3873500D03*
X4644490Y4118510D03*
X5270500Y1143000D03*
X5334000Y1460500D03*
X5143500Y2476500D03*
X5270500Y3365500D03*
Y2921000D03*
X5461000Y3873500D03*
X5080000Y3556000D03*
X5905500Y1016000D03*
X5778500Y2032000D03*
X6096000Y2413000D03*
X5778500Y2667000D03*
X5715000Y3175000D03*
Y3873500D03*
X5969000D03*
X6985000Y1651000D03*
X6540500Y3492500D03*
X7366000Y1079500D03*
X7112000Y1143000D03*
X7429500Y1778000D03*
X7556500Y2032000D03*
X7620000Y1841500D03*
X7556500Y1587500D03*
X7048500Y1524000D03*
X7493000Y1460500D03*
X7683500Y2286000D03*
X7556500Y2413000D03*
X7493000Y2222500D03*
X7683500Y2159000D03*
X7366000Y2476500D03*
X7175500Y2540000D03*
X7302500Y2159000D03*
X7112000Y2095500D03*
X7175500Y3048000D03*
X7747000Y1333500D03*
X8191500Y1651000D03*
X7874000Y1587500D03*
X8382000D03*
X7747000Y4318000D03*
X8318500D03*
X8572500Y825500D03*
X9017000Y1968500D03*
X8445500Y1714500D03*
X8890000Y1778000D03*
X8953500Y1397000D03*
X8826500Y1587500D03*
X8890000Y2222500D03*
X9080500D03*
X8572500Y2921000D03*
X9017000Y2857500D03*
X8636000Y4064000D03*
G54D11*
X1079500Y2413000D03*
Y3175000D03*
X8128000Y1016000D03*
X9144000D03*
X9652000Y2032000D03*
Y2794000D03*
X9906000Y1016000D03*
G54D12*
X3768000Y698500D03*
Y1068500D03*
X4888000Y698500D03*
Y1068500D03*
G54D13*
X5461000Y2159000D03*
Y2413000D03*
Y2667000D03*
Y2921000D03*
Y3175000D03*
X4953000Y4127500D03*
X5207000D03*
X5461000D03*
X5715000D03*
X5969000D03*
X8636000Y4318000D03*
X8890000D03*
X9144000D03*
X9398000D03*
X9652000D03*
G54D14*
X8128000Y762000D03*
X9144000D03*
X9906000D03*
G54D15*
G01X1524000Y2413000D02*
Y2222500D01*
X1778000Y1968500D01*
G01X2222500Y2222500D02*
X2032000D01*
X1778000Y1968500D01*
G01Y2868940D02*
X1651000Y2741940D01*
Y2476500D01*
X1841500Y2286000D01*
X2349500D01*
X2476500Y2159000D01*
Y2095500D01*
X2349500Y1968500D01*
Y1397000D01*
X2603500Y1143000D01*
X3365500D01*
G01X1778000Y2730500D02*
X1841500Y2794000D01*
Y3238500D01*
X1778000Y3302000D01*
Y3365500D01*
G01X1587500Y2603500D02*
Y2413000D01*
X1841500Y2159000D01*
G01X1524000Y3873500D02*
Y3175000D01*
X1651000Y3048000D01*
X1778000D01*
G01X1714500Y3238500D02*
Y4000500D01*
X1524000Y4191000D01*
G01X1905000Y3619500D02*
X3365500D01*
X3492500Y3492500D01*
Y2730500D01*
X3429000Y2667000D01*
G01X1524000Y4191000D02*
Y4318000D01*
X1651000Y4445000D01*
X2476500D01*
X2603500Y4318000D01*
Y3873500D01*
X2730500Y3746500D01*
X3683000D01*
X3746500Y3683000D01*
G01X3873500Y1333500D02*
X3429000D01*
X3302000Y1460500D01*
X2794000D01*
X2540000Y1714500D01*
Y2032000D01*
X2730500Y2222500D01*
X2984500D01*
X3111500Y2349500D01*
Y2984500D01*
G01X3238500Y2603500D02*
X3302000Y2540000D01*
X3492500D01*
X3619500Y2667000D01*
Y2730500D01*
X3810000Y2921000D01*
X4000500D01*
G01X3683000Y2476500D02*
Y2286000D01*
X3556000Y2159000D01*
X2857500D01*
G01X3365500Y3429000D02*
X3429000Y3365500D01*
Y2997200D01*
X3416300Y2984500D01*
X3365500D01*
X3175000Y2794000D01*
G01X3365500Y3810000D02*
X3429000Y3873500D01*
X3683000D01*
X3746500Y3937000D01*
Y4064000D01*
G01X3873500Y1333500D02*
X4000500Y1460500D01*
X5334000D01*
G01X3683000Y2032000D02*
X4699000D01*
X4826000Y1905000D01*
G01X5270500Y1143000D02*
X5143500Y1270000D01*
X4318000D01*
G01X7048500Y1778000D02*
X4953000D01*
X4826000Y1905000D01*
G01X5905500Y1016000D02*
X5588000D01*
X5207000Y1397000D01*
X4381500D01*
G01X5270500Y2921000D02*
Y2349500D01*
X5207000Y2286000D01*
X5143500D01*
X4953000Y2476500D01*
Y2984500D01*
X4762500Y3175000D01*
Y3238500D01*
G01Y3873500D02*
X5461000D01*
G01X5143500Y2476500D02*
X5080000Y2540000D01*
Y3365500D01*
X4644490Y3801010D01*
Y4118510D01*
G01X5461000Y2065000D02*
Y2159000D01*
G01D02*
Y2253000D01*
G01X5367000Y2159000D02*
X5461000D01*
G01D02*
X5555000D01*
G01X5715000Y3873500D02*
Y3810000D01*
X5270500Y3365500D01*
G01X4953000Y4033500D02*
Y4127500D01*
G01D02*
Y4221500D01*
G01X4859000Y4127500D02*
X4953000D01*
G01D02*
X5047000D01*
G01X7175500Y3048000D02*
X6223000D01*
X6032500Y2857500D01*
Y2730500D01*
X5778500Y2476500D01*
Y2032000D01*
G01X6540500Y3492500D02*
X6413490D01*
X5778500Y2857510D01*
Y2667000D01*
G01X5969000Y3873500D02*
Y3683000D01*
X5715000Y3429000D01*
Y3175000D01*
G01X6985000Y1651000D02*
Y1460500D01*
X7366000Y1079500D01*
G01D02*
X7429500D01*
X7683500Y1333500D01*
X7747000D01*
G01X7874000Y1587500D02*
X7670700Y1384200D01*
X7662490D01*
X7548290Y1270000D01*
X7302500D01*
X7048500Y1524000D01*
G01X8382000Y1587500D02*
X8699500Y1270000D01*
Y635000D01*
X8636000Y571500D01*
X7747000D01*
X7683500Y635000D01*
Y889000D01*
X7594510Y977990D01*
X7398040D01*
X7386520Y966470D01*
X7345480D01*
X7333960Y977990D01*
X7277010D01*
X7112000Y1143000D01*
G01X7683500Y2286000D02*
X7493000D01*
X7485380Y2278380D01*
X7469850D01*
X7437120Y2245650D01*
Y2230120D01*
X7429500Y2222500D01*
Y1778000D01*
G01X8191500Y1651000D02*
X7810500D01*
X7556500Y1397000D01*
X7429500D01*
X7048500Y1778000D01*
G01D02*
Y2159000D01*
X7366000Y2476500D01*
G01X7620000Y1841500D02*
Y1651000D01*
X7556500Y1587500D01*
G01X7302500Y2159000D02*
Y1651000D01*
X7493000Y1460500D01*
G01X8572500Y2921000D02*
X7556500D01*
X7429500Y2794000D01*
Y2603500D01*
X7556500Y2476500D01*
Y2413000D01*
G01X7493000Y2222500D02*
X7620000D01*
X7683500Y2159000D01*
G01X7747000Y4318000D02*
X7493000D01*
X7366000Y4191000D01*
Y2984500D01*
X7302500Y2921000D01*
Y2667000D01*
X7175500Y2540000D01*
G01X8128000Y932140D02*
Y1016000D01*
G01D02*
Y1099860D01*
G01X8044140Y1016000D02*
X8128000D01*
G01D02*
X8211860D01*
G01X8572500Y825500D02*
Y1270000D01*
X8191500Y1651000D01*
G01X9017000Y1968500D02*
Y1714500D01*
X8953500Y1651000D01*
X8191500D01*
G01X8318500Y4318000D02*
X7747000D01*
G01X9060140Y1016000D02*
X9144000D01*
G01X9017000Y1968500D02*
Y2095500D01*
X8890000Y2222500D01*
G01X8445500Y1714500D02*
X8826500D01*
X8890000Y1778000D01*
G01X8953500Y1397000D02*
Y1460500D01*
X8826500Y1587500D01*
G01X9017000Y2857500D02*
X8953500D01*
X8890000Y2921000D01*
Y3810000D01*
X8636000Y4064000D01*
G01Y4224000D02*
Y4318000D01*
G01D02*
Y4412000D01*
G01X8542000Y4318000D02*
X8636000D01*
G01D02*
X8730000D01*
G01X9144000Y932140D02*
Y1016000D01*
G01D02*
Y1099860D01*
G01Y1016000D02*
X9227860D01*
G01X9906000Y932140D02*
Y1016000D01*
G01D02*
Y1099860D01*
G01X9822140Y1016000D02*
X9906000D01*
G01D02*
X9989860D01*
M02*
