G04 ================== begin FILE IDENTIFICATION RECORD ==================*
G04 Layout Name:  My_AVRUSB500.brd*
G04 Film Name:    Design*
G04 File Format:  Gerber RS274X*
G04 File Origin:  Cadence Allegro 17.2-S052*
G04 Origin Date:  Mon Jul 29 16:02:50 2019*
G04 *
G04 Layer:  VIA CLASS/BOTTOM*
G04 Layer:  VIA CLASS/TOP*
G04 Layer:  ROUTE KEEPIN/ALL*
G04 Layer:  REF DES/SILKSCREEN_TOP*
G04 Layer:  REF DES/SILKSCREEN_BOTTOM*
G04 Layer:  PIN/BOTTOM*
G04 Layer:  PIN/TOP*
G04 Layer:  PACKAGE KEEPIN/ALL*
G04 Layer:  PACKAGE GEOMETRY/PIN_NUMBER*
G04 Layer:  PACKAGE GEOMETRY/SILKSCREEN_TOP*
G04 Layer:  PACKAGE GEOMETRY/SILKSCREEN_BOTTOM*
G04 Layer:  PACKAGE GEOMETRY/SOLDERMASK_TOP*
G04 Layer:  PACKAGE GEOMETRY/SOLDERMASK_BOTTOM*
G04 Layer:  PACKAGE GEOMETRY/PASTEMASK_TOP*
G04 Layer:  PACKAGE GEOMETRY/PASTEMASK_BOTTOM*
G04 Layer:  MANUFACTURING/NCLEGEND-1-2*
G04 Layer:  ETCH/BOTTOM*
G04 Layer:  ETCH/TOP*
G04 Layer:  BOARD GEOMETRY/OUTLINE*
G04 Layer:  BOARD GEOMETRY/SILKSCREEN_TOP*
G04 Layer:  BOARD GEOMETRY/SILKSCREEN_BOTTOM*
G04 Layer:  BOARD GEOMETRY/SOLDERMASK_TOP*
G04 Layer:  BOARD GEOMETRY/SOLDERMASK_BOTTOM*
G04 Layer:  BOARD GEOMETRY/DESIGN_OUTLINE*
G04 *
G04 Offset:    (0.0000 0.0000)*
G04 Mirror:    No*
G04 Mode:      Positive*
G04 Rotation:  0*
G04 FullContactRelief:  No*
G04 UndefLineWidth:     0.0000*
G04 ================== end FILE IDENTIFICATION RECORD ====================*
%FSLAX55Y55*MOMM*%
%IR0*IPPOS*OFA0.00000B0.00000*MIA0B0*SFA1.00000B1.00000*%
%AMMACRO10*
1,1,0.0,-.25,-.45*
20,1,0.0,-.25,-.45,-.25,.45,0.0*
1,1,0.0,-.25,.45*
20,1,0.0,-.25,.45,-.246251,.493421,0.0*
1,1,0.0,-.246251,.493421*
20,1,0.0,-.246251,.493421,-.23497,.535522,0.0*
1,1,0.0,-.23497,.535522*
20,1,0.0,-.23497,.535522,-.21655,.575025,0.0*
1,1,0.0,-.21655,.575025*
20,1,0.0,-.21655,.575025,-.191549,.610729,0.0*
1,1,0.0,-.191549,.610729*
20,1,0.0,-.191549,.610729,-.160729,.641549,0.0*
1,1,0.0,-.160729,.641549*
20,1,0.0,-.160729,.641549,-.125025,.66655,0.0*
1,1,0.0,-.125025,.66655*
20,1,0.0,-.125025,.66655,-.085522,.68497,0.0*
1,1,0.0,-.085522,.68497*
20,1,0.0,-.085522,.68497,-.043421,.696251,0.0*
1,1,0.0,-.043421,.696251*
20,1,0.0,-.043421,.696251,0.0,.70005,0.0*
1,1,0.0,0.0,.70005*
20,1,0.0,0.0,.70005,.043421,.696251,0.0*
1,1,0.0,.043421,.696251*
20,1,0.0,.043421,.696251,.085522,.68497,0.0*
1,1,0.0,.085522,.68497*
20,1,0.0,.085522,.68497,.125025,.66655,0.0*
1,1,0.0,.125025,.66655*
20,1,0.0,.125025,.66655,.160729,.641549,0.0*
1,1,0.0,.160729,.641549*
20,1,0.0,.160729,.641549,.191549,.610729,0.0*
1,1,0.0,.191549,.610729*
20,1,0.0,.191549,.610729,.21655,.575025,0.0*
1,1,0.0,.21655,.575025*
20,1,0.0,.21655,.575025,.23497,.535522,0.0*
1,1,0.0,.23497,.535522*
20,1,0.0,.23497,.535522,.246251,.493421,0.0*
1,1,0.0,.246251,.493421*
20,1,0.0,.246251,.493421,.25,.45,0.0*
1,1,0.0,.25,.45*
20,1,0.0,.25,.45,.25,-.45,0.0*
1,1,0.0,.25,-.45*
20,1,0.0,.25,-.45,.246251,-.493421,0.0*
1,1,0.0,.246251,-.493421*
20,1,0.0,.246251,-.493421,.23497,-.535522,0.0*
1,1,0.0,.23497,-.535522*
20,1,0.0,.23497,-.535522,.21655,-.575025,0.0*
1,1,0.0,.21655,-.575025*
20,1,0.0,.21655,-.575025,.191549,-.610729,0.0*
1,1,0.0,.191549,-.610729*
20,1,0.0,.191549,-.610729,.160729,-.641549,0.0*
1,1,0.0,.160729,-.641549*
20,1,0.0,.160729,-.641549,.125025,-.66655,0.0*
1,1,0.0,.125025,-.66655*
20,1,0.0,.125025,-.66655,.085522,-.68497,0.0*
1,1,0.0,.085522,-.68497*
20,1,0.0,.085522,-.68497,.043421,-.696251,0.0*
1,1,0.0,.043421,-.696251*
20,1,0.0,.043421,-.696251,0.0,-.70005,0.0*
1,1,0.0,0.0,-.70005*
20,1,0.0,0.0,-.70005,-.043421,-.696251,0.0*
1,1,0.0,-.043421,-.696251*
20,1,0.0,-.043421,-.696251,-.085522,-.68497,0.0*
1,1,0.0,-.085522,-.68497*
20,1,0.0,-.085522,-.68497,-.125025,-.66655,0.0*
1,1,0.0,-.125025,-.66655*
20,1,0.0,-.125025,-.66655,-.160729,-.641549,0.0*
1,1,0.0,-.160729,-.641549*
20,1,0.0,-.160729,-.641549,-.191549,-.610729,0.0*
1,1,0.0,-.191549,-.610729*
20,1,0.0,-.191549,-.610729,-.21655,-.575025,0.0*
1,1,0.0,-.21655,-.575025*
20,1,0.0,-.21655,-.575025,-.23497,-.535522,0.0*
1,1,0.0,-.23497,-.535522*
20,1,0.0,-.23497,-.535522,-.246251,-.493421,0.0*
1,1,0.0,-.246251,-.493421*
20,1,0.0,-.246251,-.493421,-.25,-.45,0.0*
1,1,0.0,-.25,-.45*
%
%ADD10MACRO10*%
%ADD23O,1.1999X1.8999*%
%ADD25R,.4X1.7201*%
%AMMACRO13*
1,1,0.0,.635,0.0*
20,1,0.0,.635,0.0,.625353,-.110267,0.0*
1,1,0.0,.625353,-.110267*
20,1,0.0,.625353,-.110267,.596705,-.217183,0.0*
1,1,0.0,.596705,-.217183*
20,1,0.0,.596705,-.217183,.549926,-.3175,0.0*
1,1,0.0,.549926,-.3175*
20,1,0.0,.549926,-.3175,.486438,-.40817,0.0*
1,1,0.0,.486438,-.40817*
20,1,0.0,.486438,-.40817,.40817,-.486438,0.0*
1,1,0.0,.40817,-.486438*
20,1,0.0,.40817,-.486438,.3175,-.549926,0.0*
1,1,0.0,.3175,-.549926*
20,1,0.0,.3175,-.549926,.217183,-.596705,0.0*
1,1,0.0,.217183,-.596705*
20,1,0.0,.217183,-.596705,.110267,-.625353,0.0*
1,1,0.0,.110267,-.625353*
20,1,0.0,.110267,-.625353,0.0,-.635,0.0*
1,1,0.0,0.0,-.635*
20,1,0.0,0.0,-.635,-.110267,-.625353,0.0*
1,1,0.0,-.110267,-.625353*
20,1,0.0,-.110267,-.625353,-.217183,-.596705,0.0*
1,1,0.0,-.217183,-.596705*
20,1,0.0,-.217183,-.596705,-.3175,-.549926,0.0*
1,1,0.0,-.3175,-.549926*
20,1,0.0,-.3175,-.549926,-.40817,-.486438,0.0*
1,1,0.0,-.40817,-.486438*
20,1,0.0,-.40817,-.486438,-.486438,-.40817,0.0*
1,1,0.0,-.486438,-.40817*
20,1,0.0,-.486438,-.40817,-.549926,-.3175,0.0*
1,1,0.0,-.549926,-.3175*
20,1,0.0,-.549926,-.3175,-.596705,-.217183,0.0*
1,1,0.0,-.596705,-.217183*
20,1,0.0,-.596705,-.217183,-.625353,-.110267,0.0*
1,1,0.0,-.625353,-.110267*
20,1,0.0,-.625353,-.110267,-.635,0.0,0.0*
1,1,0.0,-.635,0.0*
20,1,0.0,-.635,0.0,-.625353,.110267,0.0*
1,1,0.0,-.625353,.110267*
20,1,0.0,-.625353,.110267,-.596705,.217183,0.0*
1,1,0.0,-.596705,.217183*
20,1,0.0,-.596705,.217183,-.549926,.3175,0.0*
1,1,0.0,-.549926,.3175*
20,1,0.0,-.549926,.3175,-.486438,.40817,0.0*
1,1,0.0,-.486438,.40817*
20,1,0.0,-.486438,.40817,-.40817,.486438,0.0*
1,1,0.0,-.40817,.486438*
20,1,0.0,-.40817,.486438,-.3175,.549926,0.0*
1,1,0.0,-.3175,.549926*
20,1,0.0,-.3175,.549926,-.217183,.596705,0.0*
1,1,0.0,-.217183,.596705*
20,1,0.0,-.217183,.596705,-.110267,.625353,0.0*
1,1,0.0,-.110267,.625353*
20,1,0.0,-.110267,.625353,0.0,.635,0.0*
1,1,0.0,0.0,.635*
20,1,0.0,0.0,.635,.110267,.625353,0.0*
1,1,0.0,.110267,.625353*
20,1,0.0,.110267,.625353,.217183,.596705,0.0*
1,1,0.0,.217183,.596705*
20,1,0.0,.217183,.596705,.3175,.549926,0.0*
1,1,0.0,.3175,.549926*
20,1,0.0,.3175,.549926,.40817,.486438,0.0*
1,1,0.0,.40817,.486438*
20,1,0.0,.40817,.486438,.486438,.40817,0.0*
1,1,0.0,.486438,.40817*
20,1,0.0,.486438,.40817,.549926,.3175,0.0*
1,1,0.0,.549926,.3175*
20,1,0.0,.549926,.3175,.596705,.217183,0.0*
1,1,0.0,.596705,.217183*
20,1,0.0,.596705,.217183,.625353,.110267,0.0*
1,1,0.0,.625353,.110267*
20,1,0.0,.625353,.110267,.635,0.0,0.0*
1,1,0.0,.635,0.0*
1,1,0.0,.3175,0.0*
20,1,0.0,.3175,0.0,-.3175,0.0,0.0*
1,1,0.0,-.3175,0.0*
1,1,0.0,0.0,.3175*
20,1,0.0,0.0,.3175,0.0,-.3175,0.0*
1,1,0.0,0.0,-.3175*
%
%ADD13MACRO13*%
%ADD14C,.6096*%
%ADD21O,.4569X1.778*%
%ADD19O,1.778X.4569*%
%ADD22R,.4569X1.778*%
%ADD20R,1.778X.4569*%
%ADD24R,1.1001X1.7201*%
%AMMACRO11*
1,1,0.0,.635,0.0*
20,1,0.0,.635,0.0,.3175,.549926,0.0*
1,1,0.0,.3175,.549926*
20,1,0.0,.3175,.549926,-.3175,.549926,0.0*
1,1,0.0,-.3175,.549926*
20,1,0.0,-.3175,.549926,-.635,0.0,0.0*
1,1,0.0,-.635,0.0*
20,1,0.0,-.635,0.0,-.3175,-.549926,0.0*
1,1,0.0,-.3175,-.549926*
20,1,0.0,-.3175,-.549926,.3175,-.549926,0.0*
1,1,0.0,.3175,-.549926*
20,1,0.0,.3175,-.549926,.635,0.0,0.0*
1,1,0.0,.635,0.0*
%
%ADD11MACRO11*%
%ADD17C,1.3211*%
%ADD26C,1.524*%
%ADD28R,1.3211X1.3211*%
%AMMACRO12*
1,1,0.0,.39345,0.0*
20,1,0.0,.39345,0.0,.387473,-.068322,0.0*
1,1,0.0,.387473,-.068322*
20,1,0.0,.387473,-.068322,.369722,-.134568,0.0*
1,1,0.0,.369722,-.134568*
20,1,0.0,.369722,-.134568,.340738,-.196725,0.0*
1,1,0.0,.340738,-.196725*
20,1,0.0,.340738,-.196725,.3014,-.252905,0.0*
1,1,0.0,.3014,-.252905*
20,1,0.0,.3014,-.252905,.252905,-.3014,0.0*
1,1,0.0,.252905,-.3014*
20,1,0.0,.252905,-.3014,.196725,-.340738,0.0*
1,1,0.0,.196725,-.340738*
20,1,0.0,.196725,-.340738,.134568,-.369722,0.0*
1,1,0.0,.134568,-.369722*
20,1,0.0,.134568,-.369722,.068322,-.387473,0.0*
1,1,0.0,.068322,-.387473*
20,1,0.0,.068322,-.387473,0.0,-.39345,0.0*
1,1,0.0,0.0,-.39345*
20,1,0.0,0.0,-.39345,-.068322,-.387473,0.0*
1,1,0.0,-.068322,-.387473*
20,1,0.0,-.068322,-.387473,-.134568,-.369722,0.0*
1,1,0.0,-.134568,-.369722*
20,1,0.0,-.134568,-.369722,-.196725,-.340738,0.0*
1,1,0.0,-.196725,-.340738*
20,1,0.0,-.196725,-.340738,-.252905,-.3014,0.0*
1,1,0.0,-.252905,-.3014*
20,1,0.0,-.252905,-.3014,-.3014,-.252905,0.0*
1,1,0.0,-.3014,-.252905*
20,1,0.0,-.3014,-.252905,-.340738,-.196725,0.0*
1,1,0.0,-.340738,-.196725*
20,1,0.0,-.340738,-.196725,-.369722,-.134568,0.0*
1,1,0.0,-.369722,-.134568*
20,1,0.0,-.369722,-.134568,-.387473,-.068322,0.0*
1,1,0.0,-.387473,-.068322*
20,1,0.0,-.387473,-.068322,-.39345,0.0,0.0*
1,1,0.0,-.39345,0.0*
20,1,0.0,-.39345,0.0,-.387473,.068322,0.0*
1,1,0.0,-.387473,.068322*
20,1,0.0,-.387473,.068322,-.369722,.134568,0.0*
1,1,0.0,-.369722,.134568*
20,1,0.0,-.369722,.134568,-.340738,.196725,0.0*
1,1,0.0,-.340738,.196725*
20,1,0.0,-.340738,.196725,-.3014,.252905,0.0*
1,1,0.0,-.3014,.252905*
20,1,0.0,-.3014,.252905,-.252905,.3014,0.0*
1,1,0.0,-.252905,.3014*
20,1,0.0,-.252905,.3014,-.196725,.340738,0.0*
1,1,0.0,-.196725,.340738*
20,1,0.0,-.196725,.340738,-.134568,.369722,0.0*
1,1,0.0,-.134568,.369722*
20,1,0.0,-.134568,.369722,-.068322,.387473,0.0*
1,1,0.0,-.068322,.387473*
20,1,0.0,-.068322,.387473,0.0,.39345,0.0*
1,1,0.0,0.0,.39345*
20,1,0.0,0.0,.39345,.068322,.387473,0.0*
1,1,0.0,.068322,.387473*
20,1,0.0,.068322,.387473,.134568,.369722,0.0*
1,1,0.0,.134568,.369722*
20,1,0.0,.134568,.369722,.196725,.340738,0.0*
1,1,0.0,.196725,.340738*
20,1,0.0,.196725,.340738,.252905,.3014,0.0*
1,1,0.0,.252905,.3014*
20,1,0.0,.252905,.3014,.3014,.252905,0.0*
1,1,0.0,.3014,.252905*
20,1,0.0,.3014,.252905,.340738,.196725,0.0*
1,1,0.0,.340738,.196725*
20,1,0.0,.340738,.196725,.369722,.134568,0.0*
1,1,0.0,.369722,.134568*
20,1,0.0,.369722,.134568,.387473,.068322,0.0*
1,1,0.0,.387473,.068322*
20,1,0.0,.387473,.068322,.39345,0.0,0.0*
1,1,0.0,.39345,0.0*
1,1,0.0,-.1639,-.1967*
20,1,0.0,-.1639,-.1967,0.0,.1967,0.0*
1,1,0.0,0.0,.1967*
20,1,0.0,0.0,.1967,.1639,-.1967,0.0*
1,1,0.0,.1639,-.1967*
1,1,0.0,.1049,-.059*
20,1,0.0,.1049,-.059,-.1049,-.059,0.0*
1,1,0.0,-.1049,-.059*
%
%ADD12MACRO12*%
%ADD16R,1.8288X2.5908*%
%ADD15R,2.5908X1.8288*%
%ADD18R,1.4986X2.8448*%
%ADD27R,2.8448X1.4986*%
%ADD29C,.254*%
%ADD35R,.5084X1.1434*%
%ADD31C,.864*%
%ADD33O,1.4544X2.1544*%
%ADD32C,1.5756*%
%ADD30R,.5084X.5084*%
%ADD34C,1.7784*%
G75*
%LPD*%
G75*
G36*
G01X500010Y4499990D02*
X10499990D01*
Y500010D01*
X500010D01*
Y4499990D01*
G37*
%LPC*%
G75*
G36*
G01X8447640Y596920D02*
X8697360D01*
X8653970Y553530D01*
G02X8636000Y546080I-17978J17967D01*
G01X8509000D01*
G02X8491030Y553530I8J25417D01*
G01X8447640Y596920D01*
G37*
G36*
G01X3695280Y663500D02*
Y733500D01*
G02X3840720I72720J0D01*
G01Y663500D01*
G02X3821260Y614000I-72715J12D01*
G03X3820990Y613700I7417J-6946D01*
G02X3768000Y590780I-52990J49795D01*
G02X3715010Y613700I0J72715D01*
G03X3714740Y614000I-7687J-6646D01*
G02X3695280Y663500I53255J49512D01*
G37*
G36*
G01X4815280D02*
Y733500D01*
G02X4960720I72720J0D01*
G01Y663500D01*
G02X4941260Y614000I-72715J12D01*
G03X4940990Y613700I7417J-6946D01*
G02X4888000Y590780I-52990J49795D01*
G02X4835010Y613700I0J72715D01*
G03X4834740Y614000I-7687J-6646D01*
G02X4815280Y663500I53255J49512D01*
G37*
G36*
G01X8049220Y828060D02*
G02X8061940Y840780I12725J-5D01*
G01X8194060D01*
G02X8206780Y828060I-5J-12725D01*
G01Y695940D01*
G02X8194060Y683220I-12725J5D01*
G01X8061940D01*
G02X8049220Y695940I5J12725D01*
G01Y828060D01*
G37*
G36*
G01X9065220D02*
G02X9077940Y840780I12725J-5D01*
G01X9210060D01*
G02X9222780Y828060I-5J-12725D01*
G01Y695940D01*
G02X9210060Y683220I-12725J5D01*
G01X9077940D01*
G02X9065220Y695940I5J12725D01*
G01Y828060D01*
G37*
G36*
G01X9827220D02*
G02X9839940Y840780I12725J-5D01*
G01X9972060D01*
G02X9984780Y828060I-5J-12725D01*
G01Y695940D01*
G02X9972060Y683220I-12725J5D01*
G01X9839940D01*
G02X9827220Y695940I5J12725D01*
G01Y828060D01*
G37*
G36*
G01X5450480Y1117580D02*
X5399640Y1168420D01*
X5471530D01*
X5522370Y1117580D01*
X5450480D01*
G37*
G36*
G01X7112000Y1099800D02*
G02Y1186200I0J43200D01*
G02X7138890Y1176810I0J-43197D01*
G02X7141530Y1174530I-26893J-33808D01*
G03X7141590Y1174470I3620J3560D01*
G02X7155200Y1143000I-29579J-31470D01*
G01Y1142950D01*
G02X7154980Y1138620I-43201J24D01*
G01X7154730Y1136220D01*
X7200920Y1090030D01*
Y1018140D01*
X7150080Y1068970D01*
Y1097530D01*
G03X7134600Y1106190I-10162J1D01*
G02X7112000Y1099800I-22610J36807D01*
G37*
G36*
G01X5175250Y1202300D02*
X5139300Y1238240D01*
X5175250Y1274190D01*
X5211200Y1238250D01*
X5175250Y1202300D01*
G37*
G36*
G01X2465980Y1244580D02*
X2415140Y1295420D01*
X2487030D01*
X2537870Y1244580D01*
X2465980D01*
G37*
G36*
G01X5323470D02*
X5272630Y1295420D01*
X5344520D01*
X5395360Y1244580D01*
X5323470D01*
G37*
G36*
G01X4318000Y1226800D02*
G02X4361200Y1270000I0J43200D01*
G02X4348550Y1239450I-43214J0D01*
G02X4318000Y1226800I-30550J30564D01*
G37*
G36*
G01X7651750Y1265810D02*
X7579950Y1337610D01*
X7615900Y1373550D01*
X7687700Y1301750D01*
X7651750Y1265810D01*
G37*
G36*
G01X4381500Y1353800D02*
G02Y1440200I0J43200D01*
G02X4406530Y1432210I0J-43200D01*
G03X4406570Y1432180I6114J8110D01*
G02X4416430Y1422420I-25067J-35184D01*
G01X4473420D01*
Y1371580D01*
X4416430D01*
G02X4406570Y1361820I-34927J25424D01*
G03X4406530Y1361790I6074J-8140D01*
G02X4381500Y1353800I-25030J35210D01*
G37*
G36*
G01X8452450Y1354100D02*
X8350910Y1455640D01*
X8422810D01*
X8517990Y1360450D01*
X8484990D01*
G02X8468180Y1354100I-16810J19075D01*
G01X8452450D01*
G37*
G36*
G01X7200920Y1208630D02*
X7150080Y1259470D01*
Y1458370D01*
X7200920Y1407530D01*
Y1208630D01*
G37*
G36*
G01X8497510Y1461990D02*
X8514000Y1478470D01*
G02X8521700Y1483750I17979J-17966D01*
G01X8633860Y1371580D01*
X8561970D01*
X8471560Y1461990D01*
X8497510D01*
G37*
G36*
G01X8928080Y1449970D02*
X8892130Y1485920D01*
X8964020D01*
X8971470Y1478470D01*
G02X8978920Y1460500I-17967J-17978D01*
G01Y1431930D01*
G02X8984780Y1426800I-25411J-34939D01*
G01X8985030Y1426530D01*
G02X8996700Y1397000I-31527J-29530D01*
G02X8910300I-43200J0D01*
G02X8928080Y1431930I43201J0D01*
G01Y1449970D01*
G37*
G36*
G01X7658490Y1409300D02*
X7660110Y1409560D01*
X7747000Y1496450D01*
X7757530Y1485920D01*
X7808370D01*
X7698710Y1376260D01*
G03X7705890Y1358920I7187J-7180D01*
G01X7711990D01*
X7713510Y1360790D01*
G02X7747000Y1376700I33490J-27293D01*
G02Y1290300I0J-43200D01*
G02X7712070Y1308080I0J43201D01*
G01X7711380D01*
G03X7710190Y1310900I-9850J-2496D01*
G02X7703800Y1333500I36807J22610D01*
G01Y1333550D01*
G02X7704020Y1337880I43201J-24D01*
G01X7704270Y1340280D01*
X7643450Y1401100D01*
X7644520Y1402170D01*
G02X7658490Y1409300I17976J-17969D01*
G37*
G36*
G01X7456190Y1437900D02*
G02X7449800Y1460500I36807J22610D01*
G02X7536200I43200J0D01*
G02X7529810Y1437900I-43197J10D01*
G03X7538470Y1422420I8659J-5318D01*
G01X7545970D01*
X7556500Y1432950D01*
X7592450Y1397000D01*
X7574470Y1379030D01*
G02X7556500Y1371580I-17978J17967D01*
G01X7545970D01*
X7499780Y1417770D01*
X7497380Y1417520D01*
G02X7493050Y1417300I-4354J42981D01*
G01X7493000D01*
G02X7456350Y1437630I0J43200D01*
G03X7456190Y1437900I-8821J-5045D01*
G37*
G36*
G01X7620000Y1424560D02*
X7584050Y1460500D01*
X7683500Y1559950D01*
X7719450Y1524000D01*
X7620000Y1424560D01*
G37*
G36*
G01X7025630Y1560650D02*
G03X7025900Y1560810I-5045J8821D01*
G02X7048500Y1567200I22610J-36807D01*
G02X7071100Y1560810I-10J-43197D01*
G03X7071370Y1560650I5315J8661D01*
G02X7091700Y1524000I-22870J-36650D01*
G01Y1523950D01*
G02X7091480Y1519620I-43201J24D01*
G01X7091230Y1517220D01*
X7137420Y1471030D01*
Y1272140D01*
X7086580Y1322980D01*
Y1478530D01*
G03X7071100Y1487190I-10162J1D01*
G02X7048500Y1480800I-22610J36807D01*
G02X7013570Y1498580I0J43201D01*
G01X6959580D01*
Y1549420D01*
X7013570D01*
G02X7025630Y1560650I34930J-25421D01*
G37*
G36*
G01X8282480Y1524070D02*
X8231640Y1574910D01*
X8303540D01*
X8372250Y1506200D01*
X8358850D01*
G02X8340880Y1513650I8J25417D01*
G01X8330450Y1524070D01*
X8282480D01*
G37*
G36*
G01X7837190Y1610100D02*
G03X7837350Y1610370I-8661J5315D01*
G02X7874000Y1630700I36650J-22870D01*
G02X7910650Y1610370I0J-43200D01*
G03X7910810Y1610100I8821J5045D01*
G02X7917200Y1587500I-36807J-22610D01*
G02X7830800I-43200J0D01*
G02X7837190Y1610100I43197J-10D01*
G37*
G36*
G01X7563280Y1630230D02*
X7594580Y1661530D01*
Y1663950D01*
G02X7597620Y1661350I-14949J-20556D01*
G01X7630350Y1628620D01*
G02X7631880Y1626940I-18007J-17936D01*
G01X7599230Y1594280D01*
X7599480Y1591880D01*
G02X7599700Y1587550I-42981J-4354D01*
G01Y1587500D01*
G02X7513300I-43200J0D01*
G02X7531760Y1622910I43192J0D01*
G03X7531960Y1623050I-5727J8394D01*
G02X7556500Y1630700I24544J-35549D01*
G01X7556550D01*
G02X7560880Y1630480I-24J-43201D01*
G01X7563280Y1630230D01*
G37*
G36*
G01X8864580Y1661530D02*
Y1676420D01*
X8915420D01*
Y1651000D01*
G02X8907970Y1633030I-25417J8D01*
G01X8900520Y1625580D01*
X8871970D01*
G03X8863310Y1610100I-1J-10162D01*
G02X8869700Y1587500I-36807J-22610D01*
G02X8783300I-43200J0D01*
G02X8789690Y1610100I43197J-10D01*
G03X8789850Y1610370I-8661J5315D01*
G02X8826500Y1630700I36650J-22870D01*
G01X8826550D01*
G02X8830880Y1630480I-24J-43201D01*
G01X8833280Y1630230D01*
X8864580Y1661530D01*
G37*
G36*
G01X8156570Y1676420D02*
G02X8226430I34930J-25421D01*
G01X8252860D01*
X8234230Y1657780D01*
X8234480Y1655380D01*
G02X8234700Y1651050I-42981J-4354D01*
G01Y1651000D01*
G02X8148300I-43200J0D01*
G02X8156570Y1676420I43202J0D01*
G37*
G36*
G01X7200920Y1589630D02*
X7150080Y1640470D01*
Y1712370D01*
X7200920Y1661530D01*
Y1589630D01*
G37*
G36*
G01X8408690Y1691900D02*
G02X8402300Y1714500I36807J22610D01*
G02X8445500Y1757700I43200J0D01*
G02X8480430Y1739920I0J-43201D01*
G01X8586490D01*
Y1689080D01*
X8480430D01*
G02X8477030Y1684970I-34923J25429D01*
G03X8480740Y1676420I3711J-3470D01*
G01X8586490D01*
Y1649320D01*
G02X8579040Y1631350I-25417J8D01*
G01X8573270Y1625580D01*
X8427470D01*
G03X8418810Y1610100I-1J-10162D01*
G02X8425200Y1587500I-36807J-22610D01*
G01Y1587450D01*
G02X8424980Y1583120I-43201J24D01*
G01X8424730Y1580720D01*
X8484720Y1520730D01*
X8483990Y1520000D01*
G02X8466020Y1512550I-17978J17967D01*
G01X8421960D01*
G02X8421440Y1512110I-16681J19186D01*
G01X8388780Y1544770D01*
X8386380Y1544520D01*
G02X8382050Y1544300I-4354J42981D01*
G01X8382000D01*
G02X8338800Y1587500I0J43200D01*
G02X8345190Y1610100I43197J-10D01*
G03X8345350Y1610370I-8661J5315D01*
G02X8356580Y1622430I36651J-22870D01*
G01Y1640470D01*
X8320640Y1676420D01*
X8400030D01*
G03X8408690Y1691900I1J10162D01*
G37*
G36*
G01X7137420Y1653130D02*
X7086580Y1703970D01*
Y1775870D01*
X7137420Y1725030D01*
Y1653130D01*
G37*
G36*
G01X6910970Y1752580D02*
X6860130Y1803420D01*
X6932020D01*
X6982860Y1752580D01*
X6910970D01*
G37*
G36*
G01X8864580Y1743070D02*
G02X8846800Y1778000I25421J34930D01*
G02X8890000Y1734800I43200J0D01*
G01X8889950D01*
G02X8885620Y1735020I24J43201D01*
G01X8883220Y1735270D01*
X8864580Y1716630D01*
Y1743070D01*
G37*
G36*
G01X7620000Y1798300D02*
G02X7663200Y1841500I0J43200D01*
G02X7650550Y1810950I-43214J0D01*
G02X7620000Y1798300I-30550J30564D01*
G37*
G36*
G01X1716630Y1993920D02*
X1743070D01*
G02X1778000Y2011700I34930J-25421D01*
G02X1734800Y1968500I0J-43200D01*
G01Y1968550D01*
G02X1735020Y1972880I43201J-24D01*
G01X1735270Y1975280D01*
X1716630Y1993920D01*
G37*
G36*
G01X3792030Y2049970D02*
X3799480Y2057420D01*
X3871370D01*
X3835420Y2021470D01*
Y2006580D01*
X3784580D01*
Y2032000D01*
G02X3792030Y2049970I25417J-8D01*
G37*
G36*
G01X7277080Y1970630D02*
Y2042520D01*
X7327920Y2093370D01*
Y2021470D01*
X7277080Y1970630D01*
G37*
G36*
G01X9582950Y1994080D02*
G02X9573220Y2032000I69049J37926D01*
G02X9652000Y1953220I78780J0D01*
G02X9622640Y1958890I-13J78783D01*
G03X9622510Y1958950I-2192J-4578D01*
G02X9583060Y1993880I29491J73050D01*
G03X9582950Y1994080I-8958J-4796D01*
G37*
G36*
G01X7030530Y2176970D02*
X7037980Y2184420D01*
X7048500D01*
G02X7066470Y2176970I-8J-25417D01*
G01X7084450Y2159000D01*
X7073920Y2148470D01*
Y2140970D01*
G03X7089400Y2132310I10162J-1D01*
G02X7112000Y2138700I22610J-36807D01*
G02Y2052300I0J-43200D01*
G02X7089400Y2058690I10J43197D01*
G03X7086580Y2059880I-5316J-8660D01*
G01Y2060570D01*
G02X7068800Y2095500I25421J34930D01*
G01Y2095550D01*
G02X7069020Y2099880I43201J-24D01*
G01X7069270Y2102280D01*
X7037970Y2133580D01*
X7023080D01*
Y2159000D01*
G02X7030530Y2176970I25417J-8D01*
G37*
G36*
G01X7449800Y2222450D02*
Y2222500D01*
G02X7493000Y2265700I43200J0D01*
G02X7524470Y2252090I0J-43189D01*
G03X7524530Y2252030I3620J3560D01*
G02X7526810Y2249390I-31528J-29533D01*
G02X7536200Y2222500I-33807J-26890D01*
G02X7493000Y2179300I-43200J0D01*
G02X7470400Y2185690I10J43197D01*
G03X7454920Y2177030I-5318J-8659D01*
G01Y2148470D01*
X7404080Y2097630D01*
Y2169530D01*
X7450270Y2215720D01*
X7450020Y2218120D01*
G02X7449800Y2222450I42981J4354D01*
G37*
G36*
G01X1887030Y2303980D02*
X1894470Y2311420D01*
X1966360D01*
X1930420Y2275480D01*
Y2222500D01*
G02X1922970Y2204530I-25417J8D01*
G01X1884230Y2165780D01*
X1884480Y2163380D01*
G02X1884700Y2159050I-42981J-4354D01*
G01Y2159000D01*
G02X1841500Y2202200I-43200J0D01*
G01X1841550D01*
G02X1845880Y2201980I-24J-43201D01*
G01X1848280Y2201730D01*
X1879580Y2233030D01*
Y2286010D01*
G02X1887030Y2303980I25417J-8D01*
G37*
G36*
G01X2231370Y2275840D02*
Y2311420D01*
X2282210D01*
Y2260580D01*
X2267970D01*
G03X2259310Y2245100I-1J-10162D01*
G02X2265700Y2222500I-36807J-22610D01*
G02X2179300I-43200J0D01*
G02X2221460Y2265690I43203J0D01*
G03X2231370Y2275840I-249J10156D01*
G37*
G36*
G01X1493450Y2382450D02*
G02X1480800Y2413000I30564J30550D01*
G02X1524000Y2456200I43200J0D01*
G02X1546600Y2449810I-10J-43197D01*
G03X1546870Y2449650I5315J8661D01*
G02X1567200Y2413000I-22870J-36650D01*
G02X1524000Y2369800I-43200J0D01*
G02X1493450Y2382450I0J43214D01*
G37*
G36*
G01X7599700Y2413000D02*
G02X7556500Y2456200I-43200J0D01*
G02X7587050Y2443550I0J-43214D01*
G02X7599700Y2413000I-30564J-30550D01*
G37*
G36*
G01X3683000Y2433300D02*
G02X3726200Y2476500I0J43200D01*
G02X3713550Y2445950I-43214J0D01*
G02X3683000Y2433300I-30550J30564D01*
G37*
G36*
G01X7343130Y2513150D02*
G03X7343400Y2513310I-5045J8821D01*
G02X7366000Y2519700I22610J-36807D01*
G02Y2433300I0J-43200D01*
G02X7343400Y2439690I10J43197D01*
G03X7327920Y2431030I-5318J-8659D01*
G01Y2402470D01*
X7277080Y2351630D01*
Y2423530D01*
X7323270Y2469720D01*
X7323020Y2472120D01*
G02X7322800Y2476450I42981J4354D01*
G01Y2476500D01*
G02X7343130Y2513150I43200J0D01*
G37*
G36*
G01X7482470Y2514580D02*
X7431640Y2565420D01*
X7503530D01*
X7554360Y2514580D01*
X7482470D01*
G37*
G36*
G01X1630700Y2603500D02*
G02X1587500Y2646700I-43200J0D01*
G02X1610100Y2640310I-10J-43197D01*
G03X1612920Y2639120I5316J8660D01*
G01Y2638430D01*
G02X1630700Y2603500I-25421J-34930D01*
G37*
G36*
G01X5735300Y2667000D02*
G02X5747950Y2697550I43214J0D01*
G02X5778500Y2710200I30550J-30564D01*
G02X5735300Y2667000I0J-43200D01*
G37*
G36*
G01X3670300Y2768580D02*
X3621640D01*
X3708420Y2855360D01*
Y2806700D01*
G02X3700970Y2788730I-25417J8D01*
G01X3688270Y2776030D01*
G02X3670300Y2768580I-17978J17967D01*
G37*
G36*
G01X3181780Y2836730D02*
X3227970Y2882920D01*
X3299870D01*
X3217730Y2800780D01*
X3217980Y2798380D01*
G02X3218200Y2794050I-42981J-4354D01*
G01Y2794000D01*
G02X3175000Y2837200I-43200J0D01*
G01X3175050D01*
G02X3179380Y2836980I-24J-43201D01*
G01X3181780Y2836730D01*
G37*
G36*
G01X1734800Y2868890D02*
Y2868940D01*
G02X1778000Y2825740I43200J0D01*
G01X1777950D01*
G02X1773620Y2825960I24J43201D01*
G01X1771220Y2826210D01*
X1738560Y2793550D01*
G02X1736880Y2795090I16318J19488D01*
G01X1704150Y2827820D01*
G02X1702610Y2829500I17948J17998D01*
G01X1735270Y2862160D01*
X1735020Y2864560D01*
G02X1734800Y2868890I42981J4354D01*
G37*
G36*
G01X3778250Y2853300D02*
X3742310Y2889250D01*
X3778260Y2925200D01*
X3814200Y2889250D01*
X3778250Y2853300D01*
G37*
G36*
G01X7609480Y2895580D02*
X7558640Y2946420D01*
X7630530D01*
X7681370Y2895580D01*
X7609480D01*
G37*
G36*
G01X5270500Y2877800D02*
G02X5313700Y2921000I0J43200D01*
G02X5301050Y2890450I-43214J0D01*
G02X5270500Y2877800I-30550J30564D01*
G37*
G36*
G01X8436510Y2946420D02*
X8537570D01*
G02X8572500Y2964200I34930J-25421D01*
G02Y2877800I0J-43200D01*
G02X8540600Y2891870I0J43197D01*
G03X8540500Y2891980I-7568J-6779D01*
G02X8537570Y2895580I31993J29031D01*
G01X8403630D01*
X8404940Y2896890D01*
Y2904320D01*
G02X8412390Y2922290I25417J-8D01*
G01X8436510Y2946420D01*
G37*
G36*
G01X1661530Y3073420D02*
X1743070D01*
G02X1778000Y3091200I34930J-25421D01*
G02Y3004800I0J-43200D01*
G02X1743070Y3022580I0J43201D01*
G01X1651070D01*
Y3083880D01*
X1661530Y3073420D01*
G37*
G36*
G01X7144950Y3017450D02*
G02X7132300Y3048000I30564J30550D01*
G02X7175500Y3004800I43200J0D01*
G02X7144950Y3017450I0J43214D01*
G37*
G36*
G01X4857750Y3043800D02*
X4821810Y3079750D01*
X4857750Y3115690D01*
X4893700Y3079750D01*
X4857750Y3043800D01*
G37*
G36*
G01X1612920Y3050140D02*
X1562080Y3100980D01*
Y3172870D01*
X1612920Y3122030D01*
Y3050140D01*
G37*
G36*
G01X4794250Y3107310D02*
X4758310Y3143250D01*
X4794250Y3179200D01*
X4830200Y3143250D01*
X4794250Y3107310D01*
G37*
G36*
G01X5671800Y3175000D02*
G02X5684450Y3205550I43214J0D01*
G02X5715000Y3218200I30550J-30564D01*
G02X5671800Y3175000I0J-43200D01*
G37*
G36*
G01X3662700Y3238500D02*
G02X3619500Y3281700I-43200J0D01*
G02X3646390Y3272310I0J-43197D01*
G02X3649030Y3270030I-26893J-33808D01*
G03X3649090Y3269970I3620J3560D01*
G02X3662700Y3238500I-29579J-31470D01*
G37*
G36*
G01X4731950Y3207950D02*
G02X4719300Y3238500I30564J30550D01*
G02X4762500Y3195300I43200J0D01*
G02X4731950Y3207950I0J43214D01*
G37*
G36*
G01X3411020Y3220530D02*
X3403580Y3227970D01*
Y3299860D01*
X3439520Y3263920D01*
X3454420D01*
Y3213080D01*
X3428990D01*
G02X3411020Y3220530I8J25417D01*
G37*
G36*
G01X5054580Y3354970D02*
X5018630Y3390920D01*
X5090520D01*
X5097970Y3383470D01*
G02X5105420Y3365500I-17967J-17978D01*
G01Y3340080D01*
X5054580D01*
Y3354970D01*
G37*
G36*
G01X1559340Y3400810D02*
G03X1564900Y3402310I242J10159D01*
G02X1587500Y3408700I22610J-36807D01*
G02Y3322300I0J-43200D01*
G02X1564900Y3328690I10J43197D01*
G03X1549420Y3320030I-5318J-8659D01*
G01Y3289450D01*
G03X1544740Y3286790I2501J-9847D01*
G01X1498580Y3240630D01*
Y3312530D01*
X1544770Y3358720D01*
X1544520Y3361120D01*
G02X1544300Y3365450I42981J4354D01*
G01Y3365500D01*
G02X1556640Y3395730I43198J0D01*
G03X1559340Y3400810I-7255J7114D01*
G37*
G36*
G01X1689080Y3273430D02*
Y3439520D01*
X1739920Y3490360D01*
Y3418470D01*
X1701910Y3380460D01*
Y3291800D01*
G03X1712530Y3281660I10158J8D01*
G02X1714500Y3281700I1862J-43162D01*
G02X1671300Y3238500I0J-43200D01*
G02X1689080Y3273430I43201J0D01*
G37*
G36*
G01X6497300Y3492500D02*
G02X6509950Y3523050I43214J0D01*
G02X6540500Y3535700I30550J-30564D01*
G02X6497300Y3492500I0J-43200D01*
G37*
G36*
G01X1549420Y3417170D02*
X1498580Y3468010D01*
Y3539900D01*
X1549420Y3489060D01*
Y3417170D01*
G37*
G36*
G01X3037460Y3594080D02*
X2986620Y3644920D01*
X3058510D01*
X3109350Y3594080D01*
X3037460D01*
G37*
G36*
G01X3340080D02*
Y3644920D01*
X3365500D01*
G02X3383470Y3637470I-8J-25417D01*
G01X3390920Y3630020D01*
Y3558130D01*
X3354970Y3594080D01*
X3340080D01*
G37*
G36*
G01X1948200Y3619500D02*
G02X1905000Y3662700I-43200J0D01*
G02X1939930Y3644920I0J-43201D01*
G01X1966370D01*
X1947730Y3626280D01*
X1947980Y3623880D01*
G02X1948200Y3619550I-42981J-4354D01*
G01Y3619500D01*
G37*
G36*
G01X3657580Y3721080D02*
Y3771920D01*
X3683000D01*
G02X3700970Y3764470I-8J-25417D01*
G01X3708420Y3757020D01*
Y3728470D01*
G03X3723900Y3719810I10162J-1D01*
G02X3746500Y3726200I22610J-36807D01*
G02Y3639800I0J-43200D01*
G02X3719610Y3649190I0J43197D01*
G02X3716970Y3651470I26893J33808D01*
G03X3716910Y3651530I-3620J-3560D01*
G02X3703300Y3683000I29579J31470D01*
G01Y3683050D01*
G02X3703520Y3687380I43201J-24D01*
G01X3703770Y3689780D01*
X3672470Y3721080D01*
X3657580D01*
G37*
G36*
G01X1549420Y3685140D02*
X1498580Y3735980D01*
Y3807860D01*
X1549420Y3757030D01*
Y3685140D01*
G37*
G36*
G01X3328690Y3787400D02*
G02X3322300Y3810000I36807J22610D01*
G02X3408700I43200J0D01*
G02X3402310Y3787400I-43197J10D01*
G03X3402150Y3787130I8661J-5315D01*
G02X3390920Y3775070I-36651J22870D01*
G01Y3721080D01*
X3340080D01*
Y3775070D01*
G02X3328850Y3787130I25421J34930D01*
G03X3328690Y3787400I-8821J-5045D01*
G37*
G36*
G01X3685240Y3848180D02*
X3728530Y3891470D01*
G02X3744260Y3898820I17977J-17967D01*
G01X3700970Y3855530D01*
G02X3685240Y3848180I-17977J17967D01*
G37*
G36*
G01X5417800Y3873500D02*
G02X5430450Y3904050I43214J0D01*
G02X5461000Y3916700I30550J-30564D01*
G02X5417800Y3873500I0J-43200D01*
G37*
G36*
G01X5689580Y3838570D02*
G02X5671800Y3873500I25421J34930D01*
G02X5758200I43200J0D01*
G02X5740420Y3838570I-43201J0D01*
G01Y3810000D01*
G02X5733140Y3792200I-25417J7D01*
G01X5691850D01*
G02X5673880Y3799650I8J25417D01*
G01X5671290Y3802240D01*
X5689580Y3820530D01*
Y3838570D01*
G37*
G36*
G01X5943580D02*
G02X5925800Y3873500I25421J34930D01*
G02X6012200I43200J0D01*
G02X5994420Y3838570I-43201J0D01*
G01Y3792300D01*
G02X5992150Y3792200I-2253J25318D01*
G01X5945850D01*
G02X5943580Y3792300I-17J25418D01*
G01Y3838570D01*
G37*
G36*
G01X1619250Y4059800D02*
X1583300Y4095740D01*
X1619250Y4131690D01*
X1655200Y4095750D01*
X1619250Y4059800D01*
G37*
G36*
G01X4619070Y4083580D02*
G02X4601290Y4118510I25421J34930D01*
G02X4644490Y4075310I43200J0D01*
G02X4619070Y4083580I0J43202D01*
G37*
G36*
G01X1480800Y4191000D02*
G02X1493450Y4221550I43214J0D01*
G02X1524000Y4234200I30550J-30564D01*
G02X1480800Y4191000I0J-43200D01*
G37*
G36*
G01X2529470Y4356080D02*
X2478630Y4406920D01*
X2550520D01*
X2601360Y4356080D01*
X2529470D01*
G37*
G36*
G01X8890000Y4229080D02*
G02X8978920Y4318000I0J88920D01*
G02X8978480Y4309180I-88919J15D01*
G03X8978460Y4309010I10079J-1272D01*
G02X8898990Y4229540I-88460J8990D01*
G03X8898820Y4229520I1102J-10099D01*
G02X8890000Y4229080I-8835J88479D01*
G37*
G54D35*
X3492500Y2825750D03*
G54D31*
X8572500Y825500D03*
X1460500Y889000D03*
X5905500Y1016000D03*
X7366000Y1079500D03*
X3365500Y1143000D03*
X5270500D03*
X6985000Y1651000D03*
X7429500Y1778000D03*
X4826000Y1905000D03*
X9017000Y1968500D03*
X3683000Y2032000D03*
X5778500D03*
X2857500Y2159000D03*
X7302500D03*
X7683500D03*
X8890000Y2222500D03*
X7683500Y2286000D03*
X5143500Y2476500D03*
X3238500Y2603500D03*
X3429000Y2667000D03*
X4762500D03*
X3873500Y2794000D03*
X4000500Y2921000D03*
X3175000Y3175000D03*
X5270500Y3365500D03*
X3365500Y3429000D03*
X1524000Y3873500D03*
X4762500D03*
X3746500Y4064000D03*
G54D33*
X3768000Y1068500D03*
X4888000D03*
G54D32*
X8128000Y1016000D03*
X9144000D03*
X9906000D03*
X1079500Y2413000D03*
X9652000Y2794000D03*
X1079500Y3175000D03*
G54D30*
X8699500Y762000D03*
X4448000Y1270000D03*
X5905500Y1778000D03*
X3429000Y2159000D03*
X5270500Y2413000D03*
X3429000Y2540000D03*
X7429500Y2730500D03*
X8241030Y2921000D03*
X8321040D03*
X5080000Y3175000D03*
X3492500Y3238500D03*
X5080000D03*
X1714500Y3619500D03*
X3619500Y3746500D03*
Y3873500D03*
X4644490D03*
G54D34*
X5461000Y2159000D03*
Y2413000D03*
Y2667000D03*
Y2921000D03*
Y3175000D03*
X4953000Y4127500D03*
X5207000D03*
X5461000D03*
X5715000D03*
X5969000D03*
X8636000Y4318000D03*
X9144000D03*
X9398000D03*
X9652000D03*
%LPD*%
G75*
G36*
G01X1612920Y2568570D02*
G03X1617030Y2571970I-25429J34923D01*
G02X1625580Y2568260I3470J-3711D01*
G01Y2476500D01*
G03X1633030Y2458530I25417J8D01*
G01X1823530Y2268030D01*
G03X1841500Y2260580I17978J17967D01*
G01X2187260D01*
G02X2190970Y2252030I-1J-5080D01*
G03X2187570Y2247920I31523J-29539D01*
G01X2032000D01*
G03X2014030Y2240470I8J-25417D01*
G01X1784780Y2011230D01*
X1782380Y2011480D01*
G03X1778000Y2011700I-4354J-42981D01*
G03X1773620Y2011480I-26J-43201D01*
G01X1771220Y2011230D01*
X1549420Y2233030D01*
Y2378070D01*
G03X1559410Y2388260I-25429J34922D01*
G02X1574930Y2389620I8329J-5819D01*
G01X1798770Y2165780D01*
X1798520Y2163380D01*
G03X1798300Y2159000I42981J-4354D01*
G03X1841500Y2202200I43200J0D01*
G03X1837120Y2201980I-26J-43201D01*
G01X1834720Y2201730D01*
X1612920Y2423530D01*
Y2568570D01*
G37*
G36*
G01X1934570Y2989560D02*
X1941000D01*
X1942440Y2988290D01*
G03X1948720Y2983860I23521J26678D01*
G02Y2966090I-4919J-8885D01*
G03Y2903850I17225J-31120D01*
G02Y2886080I-4919J-8885D01*
G03Y2823840I17225J-31120D01*
G02Y2806070I-4919J-8885D01*
G03Y2743830I17225J-31120D01*
G02Y2726060I-4919J-8885D01*
G03X1941070Y2720360I17233J-31113D01*
G01X1903120D01*
X1819120Y2804350D01*
G03X1807730Y2810930I-17976J-17969D01*
G01X1806410Y2811290D01*
X1800370Y2817330D01*
G02X1801930Y2832970I7185J7181D01*
G03X1821200Y2868940I-23936J35970D01*
G03X1820980Y2873320I-43201J26D01*
G01X1820730Y2875720D01*
X1934570Y2989560D01*
G37*
G36*
G01X1712530Y3195340D02*
G03X1714500Y3195300I1862J43162D01*
G03X1718880Y3195520I26J43201D01*
G01X1721280Y3195770D01*
X1760030Y3157030D01*
G03X1778000Y3149580I17978J17967D01*
G01X1930240D01*
X1931620Y3146680D01*
G03X1943100Y3139440I11480J5482D01*
G01X1960910D01*
Y3130420D01*
X1957090Y3129440D01*
G03X1941070Y3120410I8861J-34445D01*
G01X1824990D01*
G03X1807020Y3112960I8J-25417D01*
G01X1784780Y3090730D01*
X1782380Y3090980D01*
G03X1778000Y3091200I-4354J-42981D01*
G03X1821200Y3048000I0J-43200D01*
G03X1820980Y3052380I-43201J26D01*
G01X1820730Y3054780D01*
X1835520Y3069570D01*
X1941070D01*
G03X1948720Y3063870I24883J25413D01*
G02Y3046100I-4919J-8885D01*
G03X1941070Y3040400I17233J-31113D01*
G01X1924040D01*
G03X1906070Y3032950I8J-25417D01*
G01X1784780Y2911670D01*
X1782380Y2911920D01*
G03X1778000Y2912140I-4354J-42981D01*
G03X1742030Y2892870I0J-43206D01*
G02X1726390Y2891310I-8459J5625D01*
G01X1701910Y2915790D01*
Y3185200D01*
G02X1712530Y3195340I10158J-8D01*
G37*
G36*
G01X3644920Y3203570D02*
G03X3649030Y3206970I-25429J34923D01*
G02X3657580Y3203260I3470J-3711D01*
G01Y2819420D01*
X3302000D01*
G03X3284030Y2811970I8J-25417D01*
G01X3192410Y2720360D01*
X2972560D01*
G03X2964910Y2726060I-24883J-25413D01*
G02Y2743830I4919J8885D01*
G03X2972560Y2749530I-17233J31113D01*
G01X3155950D01*
G03X3166230Y2751700I3J25421D01*
G03X3175000Y2750800I8772J42300D01*
G03X3218200Y2794000I0J43200D01*
G03X3211810Y2816600I-43197J-10D01*
G02X3220470Y2832080I8659J5318D01*
G01X3556000D01*
G03X3573970Y2839530I-8J25417D01*
G01X3637470Y2903030D01*
G03X3644920Y2921000I-17967J17978D01*
G01Y3203570D01*
G37*
G36*
G01X3000720Y2832080D02*
X3129530D01*
G02X3138190Y2816600I1J-10162D01*
G03X3133030Y2804250I36798J-22628D01*
G01X3132090Y2800370D01*
X2972560D01*
G03X2956540Y2809400I-24881J-25415D01*
G01X2952720Y2810380D01*
Y2819400D01*
X2970530D01*
G03X2982010Y2826640I0J12722D01*
G01X2983390Y2829540D01*
X2989590D01*
G03X2999750Y2831660I-3J25419D01*
G01X3000720Y2832080D01*
G37*
G36*
G01X7010420Y1471030D02*
Y1478530D01*
G02X7025900Y1487190I10162J1D01*
G03X7048500Y1480800I22610J36807D01*
G03X7052880Y1481020I26J43201D01*
G01X7055280Y1481270D01*
X7284530Y1252030D01*
G03X7302500Y1244580I17978J17967D01*
G01X7534100D01*
G02X7541290Y1227240I3J-10160D01*
G01X7418970Y1104920D01*
X7400930D01*
G03X7366000Y1122700I-34930J-25421D01*
G03X7361620Y1122480I-26J-43201D01*
G01X7359220Y1122230D01*
X7010420Y1471030D01*
G37*
G36*
G01X7581920Y1552570D02*
G03X7591910Y1562760I-25429J34922D01*
G02X7607430Y1564120I8329J-5819D01*
G01X7729030Y1442530D01*
G03X7747000Y1435080I17978J17967D01*
G01X7847050D01*
X7852020Y1430120D01*
G03X7869990Y1422670I17978J17967D01*
G01X8288430D01*
X8298860Y1412250D01*
G03X8316830Y1404800I17978J17967D01*
G01X8329320D01*
G02X8336510Y1387460I3J-10160D01*
G01X8244470Y1295420D01*
X7792470D01*
G02X7783810Y1310900I-1J10162D01*
G03X7790200Y1333500I-36807J22610D01*
G03X7747000Y1376700I-43200J0D01*
G03X7742620Y1376480I-26J-43201D01*
G01X7740220Y1376230D01*
X7581920Y1534530D01*
Y1552570D01*
G37*
G36*
G01X8492560Y1741790D02*
G03X8512180Y1758220I-11496J33657D01*
G02X8529950I8885J-4919D01*
G03X8535650Y1750570I31113J17233D01*
G01Y1659850D01*
X8477060Y1601250D01*
G03X8469610Y1583280I17967J-17978D01*
G01Y1577510D01*
X8455490Y1563390D01*
X8433500D01*
G02X8423700Y1576210I5J10159D01*
G03X8425200Y1587500I-41701J11285D01*
G03X8407420Y1622430I-43201J0D01*
G01Y1651000D01*
G03X8399970Y1668970I-25417J-8D01*
G01X8346460Y1722490D01*
Y1750570D01*
G03X8352160Y1758220I-25413J24883D01*
G02X8369930I8885J-4919D01*
G03X8375630Y1750570I31113J17233D01*
G01Y1733540D01*
G03X8383080Y1715570I25417J8D01*
G01X8402120Y1696530D01*
G03X8408790Y1691730I17986J17959D01*
G03X8445500Y1671300I36710J22767D01*
G03X8488700Y1714500I0J43200D01*
G03X8486260Y1728810I-43200J-3D01*
G02X8492560Y1741790I9586J3366D01*
G37*
G36*
G01X8542500Y1435080D02*
X8918260D01*
G02X8921970Y1426530I-1J-5080D01*
G03X8918570Y1422420I31523J-29539D01*
G01X8542100D01*
G02X8538510Y1431090I3J5080D01*
G01X8542500Y1435080D01*
G37*
G54D10*
X-1270Y-4460000D03*
X3768000Y698500D03*
Y1068500D03*
X4888000Y698500D03*
Y1068500D03*
G54D11*
X-1270Y-3825000D03*
X5461000Y2159000D03*
Y2413000D03*
Y2667000D03*
Y2921000D03*
Y3175000D03*
X4953000Y4127500D03*
X5207000D03*
X5461000D03*
X5715000D03*
X5969000D03*
X8636000Y4318000D03*
X8890000D03*
X9144000D03*
X9398000D03*
X9652000D03*
G54D20*
X2032000Y3175000D03*
X2881630Y2854960D03*
X7856220Y2146300D03*
X8705850Y2066290D03*
G54D12*
X-1270Y-3190000D03*
X1079500Y2413000D03*
Y3175000D03*
X8128000Y762000D03*
Y1016000D03*
X9144000Y762000D03*
Y1016000D03*
X9652000Y2032000D03*
Y2794000D03*
X9906000Y762000D03*
Y1016000D03*
G54D21*
X2176780Y2470150D03*
X2336800D03*
X2416810D03*
X2496820D03*
X2576830D03*
X2656840D03*
X2736850D03*
Y3319780D03*
X2656840D03*
X2576830D03*
X2496820D03*
X2416810D03*
X2256790D03*
X2176780D03*
X8081010Y1841500D03*
X8161020D03*
X8241030D03*
X8321040D03*
X8241030Y2691130D03*
X8161020D03*
X8081010D03*
X8001000D03*
X8401050Y1841500D03*
X8481060D03*
X8561070D03*
Y2691130D03*
X8481060D03*
X8401050D03*
G54D22*
X2256790Y2470150D03*
X2336800Y3319780D03*
X8001000Y1841500D03*
X8321040Y2691130D03*
G54D13*
X-1270Y-2555000D03*
X635000Y2286000D03*
X1460500Y889000D03*
X1778000Y1968500D03*
Y2730500D03*
X1587500Y2603500D03*
X1841500Y2159000D03*
X1524000Y2413000D03*
X1778000Y2868940D03*
Y3048000D03*
Y3365500D03*
X1714500Y3238500D03*
X1587500Y3365500D03*
X1524000Y3873500D03*
X1905000Y3619500D03*
X1524000Y4191000D03*
X2222500Y2222500D03*
X3365500Y1143000D03*
X3238500Y2603500D03*
X3429000Y2667000D03*
X2857500Y2159000D03*
X3175000Y2794000D03*
X3365500Y3429000D03*
X3111500Y2984500D03*
X3175000Y3175000D03*
X3365500Y3810000D03*
X3873500Y1333500D03*
X3683000Y2032000D03*
Y2476500D03*
X4000500Y2921000D03*
X3619500Y3238500D03*
X3873500Y2794000D03*
X3746500Y4064000D03*
Y3683000D03*
X4318000Y1270000D03*
X4826000Y1905000D03*
X4381500Y1397000D03*
X4762500Y2667000D03*
Y3238500D03*
Y3873500D03*
X4644490Y4118510D03*
X5270500Y1143000D03*
X5334000Y1460500D03*
X5143500Y2476500D03*
X5270500Y3365500D03*
Y2921000D03*
X5461000Y3873500D03*
X5080000Y3556000D03*
X5905500Y1016000D03*
X5778500Y2032000D03*
X6096000Y2413000D03*
X5778500Y2667000D03*
X5715000Y3175000D03*
Y3873500D03*
X5969000D03*
X6985000Y1651000D03*
X6540500Y3492500D03*
X7366000Y1079500D03*
X7112000Y1143000D03*
X7429500Y1778000D03*
X7556500Y2032000D03*
X7620000Y1841500D03*
X7556500Y1587500D03*
X7048500Y1524000D03*
X7493000Y1460500D03*
X7683500Y2286000D03*
X7556500Y2413000D03*
X7493000Y2222500D03*
X7683500Y2159000D03*
X7366000Y2476500D03*
X7175500Y2540000D03*
X7302500Y2159000D03*
X7112000Y2095500D03*
X7175500Y3048000D03*
X7747000Y1333500D03*
X8191500Y1651000D03*
X7874000Y1587500D03*
X8382000D03*
X7747000Y4318000D03*
X8318500D03*
X8572500Y825500D03*
X9017000Y1968500D03*
X8445500Y1714500D03*
X8890000Y1778000D03*
X8953500Y1397000D03*
X8826500Y1587500D03*
X8890000Y2222500D03*
X9080500D03*
X8572500Y2921000D03*
X9017000Y2857500D03*
X8636000Y4064000D03*
G54D14*
X635000Y2286000D03*
D03*
X1460500Y889000D03*
D03*
X1778000Y1968500D03*
D03*
Y2730500D03*
D03*
X1587500Y2603500D03*
D03*
X1841500Y2159000D03*
D03*
X1524000Y2413000D03*
D03*
X1778000Y2868940D03*
D03*
Y3048000D03*
D03*
Y3365500D03*
D03*
X1714500Y3238500D03*
D03*
X1587500Y3365500D03*
D03*
X1524000Y3873500D03*
D03*
X1905000Y3619500D03*
D03*
X1524000Y4191000D03*
D03*
X2222500Y2222500D03*
D03*
X3365500Y1143000D03*
D03*
X3238500Y2603500D03*
D03*
X3429000Y2667000D03*
D03*
X2857500Y2159000D03*
D03*
X3175000Y2794000D03*
D03*
X3365500Y3429000D03*
D03*
X3111500Y2984500D03*
D03*
X3175000Y3175000D03*
D03*
X3365500Y3810000D03*
D03*
X3873500Y1333500D03*
D03*
X3683000Y2032000D03*
D03*
Y2476500D03*
D03*
X4000500Y2921000D03*
D03*
X3619500Y3238500D03*
D03*
X3873500Y2794000D03*
D03*
X3746500Y4064000D03*
D03*
Y3683000D03*
D03*
X4318000Y1270000D03*
D03*
X4826000Y1905000D03*
D03*
X4381500Y1397000D03*
D03*
X4762500Y2667000D03*
D03*
Y3238500D03*
D03*
Y3873500D03*
D03*
X4644490Y4118510D03*
D03*
X5270500Y1143000D03*
D03*
X5334000Y1460500D03*
D03*
X5143500Y2476500D03*
D03*
X5270500Y3365500D03*
D03*
Y2921000D03*
D03*
X5461000Y3873500D03*
D03*
X5080000Y3556000D03*
D03*
X5905500Y1016000D03*
D03*
X5778500Y2032000D03*
D03*
X6096000Y2413000D03*
D03*
X5778500Y2667000D03*
D03*
X5715000Y3175000D03*
D03*
Y3873500D03*
D03*
X5969000D03*
D03*
X6985000Y1651000D03*
D03*
X6540500Y3492500D03*
D03*
X7366000Y1079500D03*
D03*
X7112000Y1143000D03*
D03*
X7429500Y1778000D03*
D03*
X7556500Y2032000D03*
D03*
X7620000Y1841500D03*
D03*
X7556500Y1587500D03*
D03*
X7048500Y1524000D03*
D03*
X7493000Y1460500D03*
D03*
X7683500Y2286000D03*
D03*
X7556500Y2413000D03*
D03*
X7493000Y2222500D03*
D03*
X7683500Y2159000D03*
D03*
X7366000Y2476500D03*
D03*
X7175500Y2540000D03*
D03*
X7302500Y2159000D03*
D03*
X7112000Y2095500D03*
D03*
X7175500Y3048000D03*
D03*
X7747000Y1333500D03*
D03*
X8191500Y1651000D03*
D03*
X7874000Y1587500D03*
D03*
X8382000D03*
D03*
X7747000Y4318000D03*
D03*
X8318500D03*
D03*
X8572500Y825500D03*
D03*
X9017000Y1968500D03*
D03*
X8445500Y1714500D03*
D03*
X8890000Y1778000D03*
D03*
X8953500Y1397000D03*
D03*
X8826500Y1587500D03*
D03*
X8890000Y2222500D03*
D03*
X9080500D03*
D03*
X8572500Y2921000D03*
D03*
X9017000Y2857500D03*
D03*
X8636000Y4064000D03*
D03*
G54D23*
X3768000Y698500D03*
D03*
Y1068500D03*
D03*
X4888000Y698500D03*
D03*
Y1068500D03*
D03*
G54D15*
X825500Y1397000D03*
Y886460D03*
X10160000Y2286000D03*
Y2796540D03*
G54D24*
X3928000Y1068500D03*
X4708000D03*
G54D16*
X762000Y1841500D03*
X1272540D03*
X762000Y3619500D03*
X1272540D03*
X6283960Y2730500D03*
X6794500D03*
X7620000Y4064000D03*
X8130540D03*
X9649460Y1524000D03*
X10160000D03*
G54D25*
X4058000Y1068500D03*
X4578000D03*
X4448000D03*
X4318000D03*
X4188000D03*
G54D26*
X5461000Y2159000D03*
D03*
Y2413000D03*
D03*
Y2667000D03*
D03*
Y2921000D03*
D03*
Y3175000D03*
D03*
X4953000Y4127500D03*
D03*
X5207000D03*
D03*
X5461000D03*
D03*
X5715000D03*
D03*
X5969000D03*
D03*
X8636000Y4318000D03*
D03*
X8890000D03*
D03*
X9144000D03*
D03*
X9398000D03*
D03*
X9652000D03*
D03*
G54D17*
X1079500Y2413000D03*
D03*
Y3175000D03*
D03*
X8128000Y1016000D03*
D03*
X9144000D03*
D03*
X9652000Y2032000D03*
D03*
Y2794000D03*
D03*
X9906000Y1016000D03*
D03*
G54D27*
X6540500Y4191000D03*
Y3764280D03*
X7810500Y3175000D03*
Y3601720D03*
X8509000Y3175000D03*
Y3601720D03*
X9398000Y3302000D03*
Y3728720D03*
X9906000Y3302000D03*
Y3728720D03*
G54D18*
X762000Y4191000D03*
X1188720D03*
X1460500Y1270000D03*
X1887220D03*
X3048000Y4127500D03*
X3474720D03*
X4000500Y1778000D03*
X3937000Y2476500D03*
Y3238500D03*
Y4127500D03*
X4427220Y1778000D03*
X4363720Y2476500D03*
Y3238500D03*
Y4127500D03*
X6350000Y1016000D03*
X6776720D03*
X6350000Y2159000D03*
X6776720D03*
X6350000Y1524000D03*
X6776720D03*
G54D28*
X8128000Y762000D03*
D03*
X9144000D03*
D03*
X9906000D03*
D03*
G54D19*
X2032000Y2694940D03*
Y2614930D03*
Y3094990D03*
Y3014980D03*
Y2934970D03*
Y2854960D03*
Y2774950D03*
X2881630Y2614930D03*
Y2694940D03*
Y2774950D03*
Y2934970D03*
Y3014980D03*
Y3094990D03*
Y3175000D03*
X7856220Y1986280D03*
Y2546350D03*
Y2466340D03*
Y2386330D03*
Y2306320D03*
Y2226310D03*
Y2066290D03*
X8705850Y1986280D03*
Y2146300D03*
Y2226310D03*
Y2306320D03*
Y2386330D03*
Y2466340D03*
Y2546350D03*
G54D29*
G01X1403350Y2012950D02*
X628650D01*
G01D02*
Y1670050D01*
G01D02*
X1403350D01*
G01X635000Y2286000D02*
X571500Y2222500D01*
Y1502400D01*
X676900Y1397000D01*
G01X635000Y2286000D02*
Y2222500D01*
X762000Y2095500D01*
G01Y3365500D02*
X635000Y3238500D01*
Y2286000D01*
G01X627380Y3987800D02*
Y4394200D01*
G01X1323340Y3987800D02*
X627380D01*
G01X1403350Y3790950D02*
X628650D01*
G01D02*
Y3448050D01*
G01D02*
X1403350D01*
G01X627380Y4394200D02*
X1323340D01*
G01X1325880Y1066800D02*
Y1473200D01*
G01X2021840Y1066800D02*
X1325880D01*
G01X654050Y755650D02*
X996950D01*
G01D02*
Y1530350D01*
G01X654050D02*
Y755650D01*
G01X1460500Y889000D02*
X1146810D01*
X1144270Y886460D01*
X825500D01*
G01Y1287760D02*
Y1397000D01*
G01X1325880Y1473200D02*
X2021840D01*
G01X996950Y1530350D02*
X654050D01*
G01X762000Y2095500D02*
Y1841500D01*
G01X676900Y1397000D02*
X825500D01*
G01X762000Y1694160D02*
Y1841500D01*
G01X652760D02*
X762000D01*
G01D02*
X871240D01*
G01X825500Y1397000D02*
Y1506240D01*
G01Y1397000D02*
X972840D01*
G01X1778000Y1968500D02*
X1587500D01*
X1460500Y1841500D01*
X1272540D01*
G01X1333500Y3365500D02*
Y2222500D01*
G01D02*
X825500D01*
G01D02*
Y3365500D01*
G01X1854200Y2614930D02*
X1842770Y2603500D01*
X1841500D01*
X1714500Y2476500D01*
Y2349500D01*
X1524000Y2159000D01*
X1079500D01*
X1016000Y2095500D01*
X762000D01*
G01X1524000Y2413000D02*
X1079500D01*
G01X825500Y3365500D02*
X1333500D01*
G01X762000Y3619500D02*
Y3365500D01*
G01X1079500Y3175000D02*
X1397000D01*
X1587500Y3365500D01*
G01X1323340Y4394200D02*
Y3987800D01*
G01X762000Y4191000D02*
Y4000500D01*
X825500Y3937000D01*
X1333500D01*
X1651000Y3619500D01*
X1905000D01*
G01X762000D02*
Y3766840D01*
G01X652760Y3619500D02*
X762000D01*
G01D02*
X871240D01*
G01X1587500Y3365500D02*
Y3415040D01*
X1383040Y3619500D01*
X1272540D01*
G01X1524000Y4191000D02*
X1188720D01*
G01X7493000Y2222500D02*
X7175500Y1905000D01*
Y698500D01*
X7048500Y571500D01*
X3683000D01*
X3619500Y635000D01*
X1714500D01*
X1460500Y889000D01*
G01X2021840Y1473200D02*
Y1066800D01*
G01X1460500Y1270000D02*
Y889000D01*
G01X3429000Y1968500D02*
X2730500Y1270000D01*
X1887220D01*
G01X1403350Y1670050D02*
Y2012950D01*
G01X1524000Y2413000D02*
Y2222500D01*
X1778000Y1968500D01*
G01X2222500Y2222500D02*
X2032000D01*
X1778000Y1968500D01*
G01Y2868940D02*
X1651000Y2741940D01*
Y2476500D01*
X1841500Y2286000D01*
X2349500D01*
X2476500Y2159000D01*
Y2095500D01*
X2349500Y1968500D01*
Y1397000D01*
X2603500Y1143000D01*
X3365500D01*
G01X2032000Y2694940D02*
X1892590D01*
X1801150Y2786380D01*
X1795370D01*
X1768690Y2813060D01*
X1754850D01*
X1722120Y2845790D01*
Y2859630D01*
X1676490Y2905260D01*
Y3197480D01*
X1658620Y3215350D01*
Y3261650D01*
X1676490Y3279520D01*
Y3390990D01*
X1905000Y3619500D01*
G01X2032000Y2614930D02*
X1854200D01*
G01X1778000Y2730500D02*
X1854200Y2654300D01*
Y2614930D01*
G01X1778000Y2730500D02*
X1841500Y2794000D01*
Y3238500D01*
X1778000Y3302000D01*
Y3365500D01*
G01X2032000Y2574280D02*
Y2614930D01*
G01D02*
X2138700D01*
G01X1587500Y3365500D02*
Y2603500D01*
G01D02*
Y2413000D01*
X1841500Y2159000D01*
G01D02*
X1905000Y2222500D01*
Y2286010D01*
X2089140Y2470150D01*
X2176780D01*
G01X1964690Y3244340D02*
X2107440D01*
G01X2032000Y3014980D02*
X1924040D01*
X1778000Y2868940D01*
G01Y3048000D02*
X1824990Y3094990D01*
X2032000D01*
G01X1524000Y3873500D02*
Y3175000D01*
X1651000Y3048000D01*
X1778000D01*
G01X3111500Y2984500D02*
X3238500D01*
X3365500Y3111500D01*
Y3175000D01*
X3048000Y3492500D01*
X1905000D01*
X1778000Y3365500D01*
G01X1714500Y3238500D02*
Y4000500D01*
X1524000Y4191000D01*
G01X1714500Y3238500D02*
X1778000Y3175000D01*
X2032000D01*
G01X1403350Y3448050D02*
Y3790950D01*
G01X8001000Y2691130D02*
X7849870D01*
X7493000Y3048000D01*
Y3492500D01*
X7239000Y3746500D01*
Y3937000D01*
X6794500Y4381500D01*
X1905000D01*
X1524000Y4000500D01*
Y3873500D01*
G01X1905000Y3619500D02*
X1968500Y3683000D01*
X2984490D01*
X3428990Y3238500D01*
X3619500D01*
G01X1905000Y3619500D02*
X3365500D01*
X3492500Y3492500D01*
Y2730500D01*
X3429000Y2667000D01*
G01X1524000Y4191000D02*
Y4318000D01*
X1651000Y4445000D01*
X2476500D01*
X2603500Y4318000D01*
Y3873500D01*
X2730500Y3746500D01*
X3683000D01*
X3746500Y3683000D01*
G01X3873500Y1333500D02*
X3429000D01*
X3302000Y1460500D01*
X2794000D01*
X2540000Y1714500D01*
Y2032000D01*
X2730500Y2222500D01*
X2984500D01*
X3111500Y2349500D01*
Y2984500D01*
G01X2736850Y2470150D02*
Y2279650D01*
X2857500Y2159000D01*
G01X2256790Y2470150D02*
Y2256790D01*
X2222500Y2222500D01*
G01X5778500Y2032000D02*
X5588000Y1841500D01*
X5143500D01*
X4889500Y2095500D01*
Y2146300D01*
X4876800Y2159000D01*
X3937000D01*
X3810000Y2032000D01*
Y1587500D01*
X3365500Y1143000D01*
G01X3429000Y2667000D02*
Y1968500D01*
G01X3683000Y2032000D02*
X3492500D01*
X3429000Y1968500D01*
G01X3238500Y2603500D02*
X3302000Y2540000D01*
X3492500D01*
X3619500Y2667000D01*
Y2730500D01*
X3810000Y2921000D01*
X4000500D01*
G01X3238500Y2603500D02*
X3070860D01*
X3059430Y2614930D01*
X2881630D01*
G01X4762500Y3873500D02*
X3746500D01*
X3683000Y3810000D01*
Y2806700D01*
X3670300Y2794000D01*
X3302000D01*
X3202940Y2694940D01*
X2881630D01*
G01X3683000Y2476500D02*
Y2286000D01*
X3556000Y2159000D01*
X2857500D01*
G01X2881630Y2774950D02*
X3155950D01*
X3175000Y2794000D01*
G01X3365500Y3429000D02*
X3429000Y3365500D01*
Y2997200D01*
X3416300Y2984500D01*
X3365500D01*
X3175000Y2794000D01*
G01X3365500Y3810000D02*
Y3429000D01*
G01X2881630Y2854960D02*
X2989590D01*
X2992130Y2857500D01*
X3556000D01*
X3619500Y2921000D01*
Y3238500D01*
G01X2881630Y3014980D02*
X3081020D01*
G01D02*
X3111500Y2984500D01*
G01X2881630Y3094990D02*
X3094990D01*
X3175000Y3175000D01*
G01X2913380Y3924300D02*
Y4330700D01*
G01X3609340Y3924300D02*
X2913380D01*
G01X3365500Y3810000D02*
X3429000Y3873500D01*
X3683000D01*
X3746500Y3937000D01*
Y4064000D01*
G01X2913380Y4330700D02*
X3609340D01*
G01X3873500Y1333500D02*
X3987800D01*
X4058000Y1263300D01*
G01X3873500Y1333500D02*
X4000500Y1460500D01*
X5334000D01*
G01X4058000Y1263300D02*
Y1068500D01*
G01Y964690D02*
Y1068500D01*
G01X4020200D02*
X4058000D01*
G01D02*
X4095800D01*
G01X3865880Y1574800D02*
Y1981200D01*
G01D02*
X4561840D01*
G01Y1574800D02*
X3865880D01*
G01X3683000Y2032000D02*
X4699000D01*
X4826000Y1905000D01*
G01X4000500Y1778000D02*
Y1600200D01*
X4076700Y1524000D01*
X4384500D01*
X4448000Y1460500D01*
Y1068500D01*
G01X3802380Y2273300D02*
Y2679700D01*
G01D02*
X4498340D01*
G01Y2273300D02*
X3802380D01*
G01X3683000Y2476500D02*
X3937000D01*
G01X3802380Y3035300D02*
Y3441700D01*
G01D02*
X4498340D01*
G01Y3035300D02*
X3802380D01*
G01X3937000Y3238500D02*
Y3479800D01*
X4013200Y3556000D01*
X4572000D01*
X4762500Y3365500D01*
X5270500D01*
G01X4000500Y2921000D02*
X4572000D01*
X4889500Y3238500D01*
X5207000D01*
X5270500Y3302000D01*
Y3365500D01*
G01X3619500Y3238500D02*
Y3915410D01*
X3474720Y4060190D01*
Y4127500D01*
G01X3873500Y2794000D02*
X4572000D01*
X4699000Y2667000D01*
X4762500D01*
G01X3746500Y3683000D02*
Y2921000D01*
X3873500Y2794000D01*
G01X3609340Y4330700D02*
Y3924300D01*
G01X3802380D02*
Y4330700D01*
G01X4498340Y3924300D02*
X3802380D01*
G01X3937000Y4127500D02*
X3810000D01*
X3746500Y4064000D01*
G01X5207000Y4127500D02*
Y4254500D01*
X5130700Y4330800D01*
X4072990D01*
X3937000Y4194810D01*
Y4127500D01*
G01X3802380Y4330700D02*
X4498340D01*
G01X4318000Y1068500D02*
Y1270000D01*
G01X5270500Y1143000D02*
X5143500Y1270000D01*
X4318000D01*
G01X4381500Y1397000D02*
X4254500D01*
X4188000Y1330500D01*
Y1068500D01*
G01X4561840Y1981200D02*
Y1574800D01*
G01X4826000Y1905000D02*
X4699000Y1778000D01*
X4427220D01*
G01X7048500D02*
X4953000D01*
X4826000Y1905000D01*
G01X5905500Y1016000D02*
X5588000D01*
X5207000Y1397000D01*
X4381500D01*
G01X4498340Y2679700D02*
Y2273300D01*
G01X4363720Y2476500D02*
X4572000D01*
X4762500Y2667000D01*
G01X5461000Y3175000D02*
X4953000D01*
X4762500Y2984500D01*
Y2667000D01*
G01X4498340Y3441700D02*
Y3035300D01*
G01X4363720Y3238500D02*
X4762500D01*
G01X5270500Y2921000D02*
Y2349500D01*
X5207000Y2286000D01*
X5143500D01*
X4953000Y2476500D01*
Y2984500D01*
X4762500Y3175000D01*
Y3238500D01*
G01X4498340Y4330700D02*
Y3924300D01*
G01X4762500Y3873500D02*
X5461000D01*
G01X4644490Y4118510D02*
X4635500Y4127500D01*
X4363720D01*
G01X5143500Y2476500D02*
X5080000Y2540000D01*
Y3365500D01*
X4644490Y3801010D01*
Y4118510D01*
G01X6350000Y2159000D02*
X6223000D01*
X5905500Y1841500D01*
Y1651000D01*
X5524500Y1270000D01*
X5207000D01*
X5143500Y1206500D01*
Y952500D01*
X5397500Y698500D01*
X6620520D01*
X6776720Y854700D01*
Y1016000D01*
G01X6350000Y1524000D02*
X6032500D01*
X5651500Y1143000D01*
X5270500D01*
G01X6096000Y2413000D02*
Y2222500D01*
X5334000Y1460500D01*
G01X5461000Y2159000D02*
X5842000D01*
G01X5461000Y2065000D02*
Y2159000D01*
G01D02*
Y2253000D01*
G01X5367000Y2159000D02*
X5461000D01*
G01Y2065000D02*
Y2159000D01*
G01D02*
Y2253000D01*
G01X5367000Y2159000D02*
X5461000D01*
G01D02*
X5555000D01*
G01X5778500Y2667000D02*
X5461000D01*
G01X5143500Y2476500D02*
X5207000Y2413000D01*
X5461000D01*
G01X5715000Y3873500D02*
Y3810000D01*
X5270500Y3365500D01*
G01X5715000Y3175000D02*
X5461000D01*
G01X5270500Y2921000D02*
X5461000D01*
G01Y4127500D02*
Y3873500D01*
G01X6540500Y4191000D02*
X6473190D01*
X6384780Y4102590D01*
Y4035280D01*
X6185000Y3835500D01*
X6010030D01*
X5992150Y3817620D01*
X5945850D01*
X5927970Y3835500D01*
X5756030D01*
X5738150Y3817620D01*
X5691850D01*
X5673970Y3835500D01*
X5499000D01*
X5461000Y3873500D01*
G01X5080000Y3556000D02*
X5143500Y3492500D01*
X5842000D01*
X5905500Y3429000D01*
Y2540000D01*
X6032500Y2413000D01*
X6096000D01*
G01X5080000Y3556000D02*
X4953000Y3683000D01*
G01D02*
Y4127500D01*
G01D02*
Y4221500D01*
G01X4859000Y4127500D02*
X4953000D01*
G01D02*
X5047000D01*
G01X4953000Y4033500D02*
Y4127500D01*
G01D02*
Y4221500D01*
G01X4859000Y4127500D02*
X4953000D01*
G01D02*
X5047000D01*
G01X6215380Y1320800D02*
Y1727200D01*
G01X6911340Y1320800D02*
X6215380D01*
G01Y812800D02*
Y1219200D01*
G01D02*
X6911340D01*
G01Y812800D02*
X6215380D01*
G01X5905500Y1016000D02*
X6350000D01*
G01X6215380Y1955800D02*
Y2362200D01*
G01X6911340Y1955800D02*
X6215380D01*
G01Y1727200D02*
X6911340D01*
G01X7175500Y3048000D02*
X6223000D01*
X6032500Y2857500D01*
Y2730500D01*
X5778500Y2476500D01*
Y2032000D01*
G01X6215380Y2362200D02*
X6911340D01*
G01X6153150Y2901950D02*
Y2559050D01*
G01D02*
X6927850D01*
G01X6096000Y2413000D02*
Y2653040D01*
X6173460Y2730500D01*
G01X6096000Y2413000D02*
X7048500D01*
X7175500Y2540000D01*
G01X5842000Y2159000D02*
X6096000Y2413000D01*
G01X6173460Y2730500D02*
X6283960D01*
G01X6540500Y3492500D02*
X6413490D01*
X5778500Y2857510D01*
Y2667000D01*
G01X6927850Y2901950D02*
X6153150D01*
G01X5969000Y3873500D02*
Y3683000D01*
X5715000Y3429000D01*
Y3175000D01*
G01Y4127500D02*
Y3873500D01*
G01X5969000Y4127500D02*
Y3873500D01*
G01X6911340Y1727200D02*
Y1320800D01*
G01Y1219200D02*
Y812800D01*
G01Y2362200D02*
Y1955800D01*
G01X6350000Y2159000D02*
Y1968500D01*
X6477000Y1841500D01*
X6858000D01*
X6985000Y1714500D01*
Y1651000D01*
G01X7048500Y1524000D02*
X6776720D01*
G01X6927850Y2559050D02*
Y2901950D01*
G01X6283960Y2583160D02*
Y2730500D01*
G01D02*
Y2877840D01*
G01Y2730500D02*
X6393200D01*
G01X7302500Y2159000D02*
Y2603500D01*
X7239000Y2667000D01*
X7112000D01*
X7048500Y2730500D01*
X6794500D01*
G01X6776720Y2159000D02*
X7048500D01*
X7112000Y2095500D01*
G01X6743700Y4325620D02*
Y3629660D01*
G01D02*
X6337300D01*
G01D02*
Y4325620D01*
G01X6540500Y3764280D02*
Y3492500D01*
G01X6337300Y4325620D02*
X6743700D01*
G01X7556500Y2032000D02*
X7391500Y1867000D01*
Y1819030D01*
X7373620Y1801150D01*
Y1754850D01*
X7391500Y1736970D01*
Y1308000D01*
X7683500Y1016000D01*
G01X6985000Y1651000D02*
Y1460500D01*
X7366000Y1079500D01*
G01D02*
X7429500D01*
X7683500Y1333500D01*
X7747000D01*
G01X7874000Y1587500D02*
X7670700Y1384200D01*
X7662490D01*
X7548290Y1270000D01*
X7302500D01*
X7048500Y1524000D01*
G01X8953500Y1397000D02*
X8540180D01*
X8529050Y1385870D01*
X8474530D01*
X8468180Y1379520D01*
X8364520D01*
X8255000Y1270000D01*
X7683500D01*
X7493000Y1460500D01*
G01X7112000Y2095500D02*
Y1143000D01*
G01X8382000Y1587500D02*
X8699500Y1270000D01*
Y635000D01*
X8636000Y571500D01*
X7747000D01*
X7683500Y635000D01*
Y889000D01*
X7594510Y977990D01*
X7398040D01*
X7386520Y966470D01*
X7345480D01*
X7333960Y977990D01*
X7277010D01*
X7112000Y1143000D01*
G01X7429500Y1778000D02*
X7564120Y1643380D01*
X7579650D01*
X7612380Y1610650D01*
Y1595120D01*
X7747000Y1460500D01*
X7857580D01*
X7869990Y1448090D01*
X8298960D01*
X8316830Y1430220D01*
X8447170D01*
X8453520Y1436570D01*
X8508040D01*
X8531970Y1460500D01*
X8995380D01*
X9566880Y2032000D01*
X9652000D01*
G01X7683500Y2286000D02*
X7493000D01*
X7485380Y2278380D01*
X7469850D01*
X7437120Y2245650D01*
Y2230120D01*
X7429500Y2222500D01*
Y1778000D01*
G01X8191500Y1651000D02*
X7810500D01*
X7556500Y1397000D01*
X7429500D01*
X7048500Y1778000D01*
G01D02*
Y2159000D01*
X7366000Y2476500D01*
G01X7556500Y2032000D02*
Y2150100D01*
X7632710Y2226310D01*
G01X7556500Y2032000D02*
X7755880D01*
G01X9080500Y2222500D02*
Y1651000D01*
X8940990Y1511490D01*
X8511250D01*
X8487030Y1487270D01*
X8432510D01*
X8426160Y1480920D01*
X8337840D01*
X8319970Y1498790D01*
X7891000D01*
X7878300Y1511490D01*
X7823010D01*
X7556500Y1778000D01*
Y2032000D01*
G01X7620000Y1841500D02*
Y1651000D01*
X7556500Y1587500D01*
G01D02*
Y1524000D01*
X7747000Y1333500D01*
G01X7620000Y1841500D02*
X7853320D01*
X7967620Y1955800D01*
X7988290D01*
X8000990Y1968500D01*
X8420110D01*
X8481060Y1907550D01*
Y1841500D01*
G01X7302500Y2159000D02*
Y1651000D01*
X7493000Y1460500D01*
G01X7856220Y2546350D02*
X7683500D01*
X7499350Y2730500D01*
X7239000D01*
X7175500Y2794000D01*
Y3048000D01*
G01X7556500Y2413000D02*
X7669540D01*
X7696210Y2386330D01*
X7856220D01*
G01X8572500Y2921000D02*
X7556500D01*
X7429500Y2794000D01*
Y2603500D01*
X7556500Y2476500D01*
Y2413000D01*
G01X7493000Y2222500D02*
X7620000D01*
X7683500Y2159000D01*
G01X7366000Y2476500D02*
X7429500Y2540000D01*
X7618140D01*
X7662490Y2495650D01*
X7664350D01*
X7693660Y2466340D01*
X7856220D01*
G01X7747000Y4318000D02*
X7493000D01*
X7366000Y4191000D01*
Y2984500D01*
X7302500Y2921000D01*
Y2667000D01*
X7175500Y2540000D01*
G01X7632710Y2226310D02*
X7856220D01*
G01X8013700Y3040380D02*
X7607300D01*
G01D02*
Y3736340D01*
G01D02*
X8013700D01*
G01X7486650Y4235450D02*
Y3892550D01*
G01D02*
X8261350D01*
G01X7747000Y4229100D02*
X7620000Y4102100D01*
Y4064000D01*
G01Y3916660D02*
Y4064000D01*
G01X7510760D02*
X7620000D01*
G01D02*
X7729240D01*
G01X8261350Y4235450D02*
X7486650D01*
G01X8128000Y603250D02*
G02X7842250Y889000I0J285750D01*
G02X8128000Y1174750I285750J0D01*
G02X8413750Y889000I0J-285750D01*
G02X8128000Y603250I-285750J0D01*
G01Y762000D02*
X8318500D01*
X8509000Y571500D01*
X8953500D01*
X9144000Y762000D01*
G01X8128000Y1016000D02*
X8509000D01*
G01X7683500D02*
X8128000D01*
G01Y932140D02*
Y1016000D01*
G01D02*
Y1099860D01*
G01Y932140D02*
Y1016000D01*
G01D02*
Y1099860D01*
G01X8044140Y1016000D02*
X8128000D01*
G01D02*
X8211860D01*
G01X8572500Y825500D02*
Y1270000D01*
X8191500Y1651000D01*
G01D02*
Y1703060D01*
X8161020Y1733540D01*
Y1841500D01*
G01X8241030D02*
Y1700530D01*
X8191500Y1651000D01*
G01X9017000Y1968500D02*
Y1714500D01*
X8953500Y1651000D01*
X8191500D01*
G01X7755880Y2032000D02*
X7790170Y2066290D01*
X7856220D01*
G01X7874000Y1587500D02*
X7912010Y1549490D01*
X8340980D01*
X8358850Y1531620D01*
X8405150D01*
X8411500Y1537970D01*
X8466020D01*
X8495030Y1566980D01*
Y1583280D01*
X8561070Y1649320D01*
Y1841500D01*
G01X8382000Y1587500D02*
Y1651000D01*
X8321040Y1711960D01*
Y1841500D01*
G01X7683500Y2286000D02*
X7835900D01*
X7856220Y2306320D01*
G01X7683500Y2159000D02*
X7735560D01*
X7748260Y2146300D01*
X7856220D01*
G01X7810500Y3175000D02*
X8064500D01*
X8241030Y2998470D01*
Y2691130D01*
G01X8321040D02*
Y3054350D01*
X8441690Y3175000D01*
X8509000D01*
G01X8013700Y3736340D02*
Y3040380D01*
G01X8712200D02*
X8305800D01*
G01D02*
Y3736340D01*
G01D02*
X8712200D01*
G01X8261350Y3892550D02*
Y4235450D01*
G01X8130540Y4064000D02*
Y4257040D01*
X8318500Y4445000D01*
X8763000D01*
X8890000Y4318000D01*
G01X8130540Y4064000D02*
Y3812540D01*
X8128000Y3810000D01*
Y3757920D01*
X7971800Y3601720D01*
X7810500D01*
G01X7747000Y4318000D02*
Y4229100D01*
G01X8318500Y4318000D02*
X7747000D01*
G01X8318500D02*
X8572500Y4064000D01*
X8636000D01*
G01X9144000Y603250D02*
G02X8858250Y889000I0J285750D01*
G02X9144000Y1174750I285750J0D01*
G02X9429750Y889000I0J-285750D01*
G02X9144000Y603250I-285750J0D01*
G01Y762000D02*
X8636000D01*
X8572500Y825500D01*
G01X8509000Y1016000D02*
X8636000Y889000D01*
X9017000D01*
G01D02*
X9144000Y1016000D01*
G01X9060140D02*
X9144000D01*
G01X9060140D02*
X9144000D01*
G01X9017000Y1968500D02*
Y2095500D01*
X8890000Y2222500D01*
G01X8705850Y1986280D02*
X8844280D01*
G01D02*
X9080500Y2222500D01*
G01X8705850Y1945630D02*
Y1986280D01*
G01X8599150D02*
X8705850D01*
G01X8401050Y1841500D02*
Y1733540D01*
X8420090Y1714500D01*
X8445500D01*
G01D02*
X8826500D01*
X8890000Y1778000D01*
G01X8953500Y1397000D02*
Y1460500D01*
X8826500Y1587500D01*
G01X8890000Y1778000D02*
Y1651000D01*
X8826500Y1587500D01*
G01X8890000Y2222500D02*
X8826500Y2286000D01*
Y2293630D01*
X8813810Y2306320D01*
X8705850D01*
G01X8561070Y2691130D02*
X8850630D01*
G01X8705850Y2386330D02*
X8916670D01*
G01D02*
X9080500Y2222500D01*
G01X8850630Y2691130D02*
X9017000Y2857500D01*
G01X8561070Y2584430D02*
Y2691130D01*
G01D02*
Y2797830D01*
G01X8401050Y2691130D02*
Y2857050D01*
X8430360Y2886360D01*
Y2904320D01*
X8465920Y2939880D01*
Y2965160D01*
X8528340Y3027580D01*
X8616660D01*
X8679080Y2965160D01*
X8735450D01*
X8932490Y3162200D01*
X8940700D01*
X9080500Y3302000D01*
X9398000D01*
G01X8481060Y2691130D02*
Y2883310D01*
X8516620Y2918870D01*
Y2944150D01*
X8549350Y2976880D01*
X8595650D01*
X8664330Y2908200D01*
X8750200D01*
X8953500Y3111500D01*
X9842500D01*
X9906000Y3175000D01*
Y3302000D01*
G01X8712200Y3736340D02*
Y3040380D01*
G01X8572500Y2921000D02*
X8636000Y2857500D01*
X8826500D01*
X8953500Y2984500D01*
X9080500D01*
X9271000Y2794000D01*
X9652000D01*
G01X9017000Y2857500D02*
Y2794000D01*
X9080500Y2730500D01*
Y2222500D01*
G01X9017000Y2857500D02*
X8953500D01*
X8890000Y2921000D01*
Y3810000D01*
X8636000Y4064000D01*
G01D02*
Y4318000D01*
G01X9144000D02*
X9048740D01*
X8509000Y3778260D01*
Y3601720D01*
G01X8542000Y4318000D02*
X8636000D01*
G01D02*
X8730000D01*
G01X8636000Y4224000D02*
Y4318000D01*
G01D02*
Y4412000D01*
G01X8542000Y4318000D02*
X8636000D01*
G01D02*
X8730000D01*
G01X9906000Y762000D02*
X9779000Y635000D01*
X9461500D01*
X9334500Y762000D01*
X9144000D01*
G01X9906000Y603250D02*
G02X9620250Y889000I0J285750D01*
G02X9906000Y1174750I285750J0D01*
G02X10191750Y889000I0J-285750D01*
G02X9906000Y603250I-285750J0D01*
G01X9144000Y1016000D02*
X9906000D01*
G01X9144000Y932140D02*
Y1016000D01*
G01D02*
Y1099860D01*
G01Y932140D02*
Y1016000D01*
G01D02*
Y1099860D01*
G01Y1016000D02*
X9227860D01*
G01X9906000Y1841500D02*
X9398000D01*
G01D02*
Y2984500D01*
G01X9518650Y1695450D02*
Y1352550D01*
G01D02*
X10293350D01*
G01Y1695450D02*
X9518650D01*
G01X9649460Y1524000D02*
Y1944340D01*
X9652000Y1946880D01*
Y2032000D01*
G01X9398000Y2984500D02*
X9906000D01*
G01X9601200Y3167380D02*
X9194800D01*
G01D02*
Y3863340D01*
G01X9601200D02*
Y3167380D01*
G01X10109200D02*
X9702800D01*
G01D02*
Y3863340D01*
G01X9652000Y2794000D02*
X10008860D01*
X10011400Y2796540D01*
X10160000D01*
G01X9194800Y3863340D02*
X9601200D01*
G01X9702800D02*
X10109200D01*
G01X9398000Y4318000D02*
Y3728720D01*
G01X9652000Y4318000D02*
X9906000Y4064000D01*
Y3728720D01*
G01X10033000Y1016000D02*
X9906000D01*
G01X10160000Y1375400D02*
X10223500Y1311900D01*
Y1206500D01*
X10033000Y1016000D01*
G01X9906000Y932140D02*
Y1016000D01*
G01D02*
Y1099860D01*
G01Y932140D02*
Y1016000D01*
G01D02*
Y1099860D01*
G01X9822140Y1016000D02*
X9906000D01*
G01D02*
X9989860D01*
G01X9906000Y2984500D02*
Y1841500D01*
G01X10293350Y1352550D02*
Y1695450D01*
G01X10160000Y1524000D02*
Y1375400D01*
G01Y2286000D02*
Y1524000D01*
G01X10050760D02*
X10160000D01*
G01D02*
X10269240D01*
G01X9988550Y2927350D02*
Y2152650D01*
G01D02*
X10331450D01*
G01D02*
Y2927350D01*
G01X10160000Y2286000D02*
Y2395240D01*
G01X10012660Y2286000D02*
X10160000D01*
G01D02*
X10307340D01*
G01X10109200Y3863340D02*
Y3167380D01*
G01X10331450Y2927350D02*
X9988550D01*
M02*
