G04 ================== begin FILE IDENTIFICATION RECORD ==================*
G04 Layout Name:  My_AVRUSB500.brd*
G04 Film Name:    DrillDraw*
G04 File Format:  Gerber RS274X*
G04 File Origin:  Cadence Allegro 17.2-S052*
G04 Origin Date:  Mon Jul 29 16:02:50 2019*
G04 *
G04 Layer:  MANUFACTURING/NCLEGEND-1-2*
G04 Layer:  BOARD GEOMETRY/DESIGN_OUTLINE*
G04 *
G04 Offset:    (0.0000 0.0000)*
G04 Mirror:    No*
G04 Mode:      Positive*
G04 Rotation:  0*
G04 FullContactRelief:  No*
G04 UndefLineWidth:     0.1000*
G04 ================== end FILE IDENTIFICATION RECORD ====================*
%FSLAX55Y55*MOMM*%
%IR0*IPPOS*OFA0.00000B0.00000*MIA0B0*SFA1.00000B1.00000*%
%AMMACRO10*
1,1,.1,-.25,-.45*
20,1,.1,-.25,-.45,-.25,.45,0.0*
1,1,.1,-.25,.45*
20,1,.1,-.25,.45,-.246251,.493421,0.0*
1,1,.1,-.246251,.493421*
20,1,.1,-.246251,.493421,-.23497,.535522,0.0*
1,1,.1,-.23497,.535522*
20,1,.1,-.23497,.535522,-.21655,.575025,0.0*
1,1,.1,-.21655,.575025*
20,1,.1,-.21655,.575025,-.191549,.610729,0.0*
1,1,.1,-.191549,.610729*
20,1,.1,-.191549,.610729,-.160729,.641549,0.0*
1,1,.1,-.160729,.641549*
20,1,.1,-.160729,.641549,-.125025,.66655,0.0*
1,1,.1,-.125025,.66655*
20,1,.1,-.125025,.66655,-.085522,.68497,0.0*
1,1,.1,-.085522,.68497*
20,1,.1,-.085522,.68497,-.043421,.696251,0.0*
1,1,.1,-.043421,.696251*
20,1,.1,-.043421,.696251,0.0,.70005,0.0*
1,1,.1,0.0,.70005*
20,1,.1,0.0,.70005,.043421,.696251,0.0*
1,1,.1,.043421,.696251*
20,1,.1,.043421,.696251,.085522,.68497,0.0*
1,1,.1,.085522,.68497*
20,1,.1,.085522,.68497,.125025,.66655,0.0*
1,1,.1,.125025,.66655*
20,1,.1,.125025,.66655,.160729,.641549,0.0*
1,1,.1,.160729,.641549*
20,1,.1,.160729,.641549,.191549,.610729,0.0*
1,1,.1,.191549,.610729*
20,1,.1,.191549,.610729,.21655,.575025,0.0*
1,1,.1,.21655,.575025*
20,1,.1,.21655,.575025,.23497,.535522,0.0*
1,1,.1,.23497,.535522*
20,1,.1,.23497,.535522,.246251,.493421,0.0*
1,1,.1,.246251,.493421*
20,1,.1,.246251,.493421,.25,.45,0.0*
1,1,.1,.25,.45*
20,1,.1,.25,.45,.25,-.45,0.0*
1,1,.1,.25,-.45*
20,1,.1,.25,-.45,.246251,-.493421,0.0*
1,1,.1,.246251,-.493421*
20,1,.1,.246251,-.493421,.23497,-.535522,0.0*
1,1,.1,.23497,-.535522*
20,1,.1,.23497,-.535522,.21655,-.575025,0.0*
1,1,.1,.21655,-.575025*
20,1,.1,.21655,-.575025,.191549,-.610729,0.0*
1,1,.1,.191549,-.610729*
20,1,.1,.191549,-.610729,.160729,-.641549,0.0*
1,1,.1,.160729,-.641549*
20,1,.1,.160729,-.641549,.125025,-.66655,0.0*
1,1,.1,.125025,-.66655*
20,1,.1,.125025,-.66655,.085522,-.68497,0.0*
1,1,.1,.085522,-.68497*
20,1,.1,.085522,-.68497,.043421,-.696251,0.0*
1,1,.1,.043421,-.696251*
20,1,.1,.043421,-.696251,0.0,-.70005,0.0*
1,1,.1,0.0,-.70005*
20,1,.1,0.0,-.70005,-.043421,-.696251,0.0*
1,1,.1,-.043421,-.696251*
20,1,.1,-.043421,-.696251,-.085522,-.68497,0.0*
1,1,.1,-.085522,-.68497*
20,1,.1,-.085522,-.68497,-.125025,-.66655,0.0*
1,1,.1,-.125025,-.66655*
20,1,.1,-.125025,-.66655,-.160729,-.641549,0.0*
1,1,.1,-.160729,-.641549*
20,1,.1,-.160729,-.641549,-.191549,-.610729,0.0*
1,1,.1,-.191549,-.610729*
20,1,.1,-.191549,-.610729,-.21655,-.575025,0.0*
1,1,.1,-.21655,-.575025*
20,1,.1,-.21655,-.575025,-.23497,-.535522,0.0*
1,1,.1,-.23497,-.535522*
20,1,.1,-.23497,-.535522,-.246251,-.493421,0.0*
1,1,.1,-.246251,-.493421*
20,1,.1,-.246251,-.493421,-.25,-.45,0.0*
1,1,.1,-.25,-.45*
%
%ADD10MACRO10*%
%AMMACRO13*
1,1,.1,.635,0.0*
20,1,.1,.635,0.0,.625353,-.110267,0.0*
1,1,.1,.625353,-.110267*
20,1,.1,.625353,-.110267,.596705,-.217183,0.0*
1,1,.1,.596705,-.217183*
20,1,.1,.596705,-.217183,.549926,-.3175,0.0*
1,1,.1,.549926,-.3175*
20,1,.1,.549926,-.3175,.486438,-.40817,0.0*
1,1,.1,.486438,-.40817*
20,1,.1,.486438,-.40817,.40817,-.486438,0.0*
1,1,.1,.40817,-.486438*
20,1,.1,.40817,-.486438,.3175,-.549926,0.0*
1,1,.1,.3175,-.549926*
20,1,.1,.3175,-.549926,.217183,-.596705,0.0*
1,1,.1,.217183,-.596705*
20,1,.1,.217183,-.596705,.110267,-.625353,0.0*
1,1,.1,.110267,-.625353*
20,1,.1,.110267,-.625353,0.0,-.635,0.0*
1,1,.1,0.0,-.635*
20,1,.1,0.0,-.635,-.110267,-.625353,0.0*
1,1,.1,-.110267,-.625353*
20,1,.1,-.110267,-.625353,-.217183,-.596705,0.0*
1,1,.1,-.217183,-.596705*
20,1,.1,-.217183,-.596705,-.3175,-.549926,0.0*
1,1,.1,-.3175,-.549926*
20,1,.1,-.3175,-.549926,-.40817,-.486438,0.0*
1,1,.1,-.40817,-.486438*
20,1,.1,-.40817,-.486438,-.486438,-.40817,0.0*
1,1,.1,-.486438,-.40817*
20,1,.1,-.486438,-.40817,-.549926,-.3175,0.0*
1,1,.1,-.549926,-.3175*
20,1,.1,-.549926,-.3175,-.596705,-.217183,0.0*
1,1,.1,-.596705,-.217183*
20,1,.1,-.596705,-.217183,-.625353,-.110267,0.0*
1,1,.1,-.625353,-.110267*
20,1,.1,-.625353,-.110267,-.635,0.0,0.0*
1,1,.1,-.635,0.0*
20,1,.1,-.635,0.0,-.625353,.110267,0.0*
1,1,.1,-.625353,.110267*
20,1,.1,-.625353,.110267,-.596705,.217183,0.0*
1,1,.1,-.596705,.217183*
20,1,.1,-.596705,.217183,-.549926,.3175,0.0*
1,1,.1,-.549926,.3175*
20,1,.1,-.549926,.3175,-.486438,.40817,0.0*
1,1,.1,-.486438,.40817*
20,1,.1,-.486438,.40817,-.40817,.486438,0.0*
1,1,.1,-.40817,.486438*
20,1,.1,-.40817,.486438,-.3175,.549926,0.0*
1,1,.1,-.3175,.549926*
20,1,.1,-.3175,.549926,-.217183,.596705,0.0*
1,1,.1,-.217183,.596705*
20,1,.1,-.217183,.596705,-.110267,.625353,0.0*
1,1,.1,-.110267,.625353*
20,1,.1,-.110267,.625353,0.0,.635,0.0*
1,1,.1,0.0,.635*
20,1,.1,0.0,.635,.110267,.625353,0.0*
1,1,.1,.110267,.625353*
20,1,.1,.110267,.625353,.217183,.596705,0.0*
1,1,.1,.217183,.596705*
20,1,.1,.217183,.596705,.3175,.549926,0.0*
1,1,.1,.3175,.549926*
20,1,.1,.3175,.549926,.40817,.486438,0.0*
1,1,.1,.40817,.486438*
20,1,.1,.40817,.486438,.486438,.40817,0.0*
1,1,.1,.486438,.40817*
20,1,.1,.486438,.40817,.549926,.3175,0.0*
1,1,.1,.549926,.3175*
20,1,.1,.549926,.3175,.596705,.217183,0.0*
1,1,.1,.596705,.217183*
20,1,.1,.596705,.217183,.625353,.110267,0.0*
1,1,.1,.625353,.110267*
20,1,.1,.625353,.110267,.635,0.0,0.0*
1,1,.1,.635,0.0*
1,1,.1,.3175,0.0*
20,1,.1,.3175,0.0,-.3175,0.0,0.0*
1,1,.1,-.3175,0.0*
1,1,.1,0.0,.3175*
20,1,.1,0.0,.3175,0.0,-.3175,0.0*
1,1,.1,0.0,-.3175*
%
%ADD13MACRO13*%
%AMMACRO11*
1,1,.1,.635,0.0*
20,1,.1,.635,0.0,.3175,.549926,0.0*
1,1,.1,.3175,.549926*
20,1,.1,.3175,.549926,-.3175,.549926,0.0*
1,1,.1,-.3175,.549926*
20,1,.1,-.3175,.549926,-.635,0.0,0.0*
1,1,.1,-.635,0.0*
20,1,.1,-.635,0.0,-.3175,-.549926,0.0*
1,1,.1,-.3175,-.549926*
20,1,.1,-.3175,-.549926,.3175,-.549926,0.0*
1,1,.1,.3175,-.549926*
20,1,.1,.3175,-.549926,.635,0.0,0.0*
1,1,.1,.635,0.0*
%
%ADD11MACRO11*%
%AMMACRO12*
1,1,.1,.39345,0.0*
20,1,.1,.39345,0.0,.387473,-.068322,0.0*
1,1,.1,.387473,-.068322*
20,1,.1,.387473,-.068322,.369722,-.134568,0.0*
1,1,.1,.369722,-.134568*
20,1,.1,.369722,-.134568,.340738,-.196725,0.0*
1,1,.1,.340738,-.196725*
20,1,.1,.340738,-.196725,.3014,-.252905,0.0*
1,1,.1,.3014,-.252905*
20,1,.1,.3014,-.252905,.252905,-.3014,0.0*
1,1,.1,.252905,-.3014*
20,1,.1,.252905,-.3014,.196725,-.340738,0.0*
1,1,.1,.196725,-.340738*
20,1,.1,.196725,-.340738,.134568,-.369722,0.0*
1,1,.1,.134568,-.369722*
20,1,.1,.134568,-.369722,.068322,-.387473,0.0*
1,1,.1,.068322,-.387473*
20,1,.1,.068322,-.387473,0.0,-.39345,0.0*
1,1,.1,0.0,-.39345*
20,1,.1,0.0,-.39345,-.068322,-.387473,0.0*
1,1,.1,-.068322,-.387473*
20,1,.1,-.068322,-.387473,-.134568,-.369722,0.0*
1,1,.1,-.134568,-.369722*
20,1,.1,-.134568,-.369722,-.196725,-.340738,0.0*
1,1,.1,-.196725,-.340738*
20,1,.1,-.196725,-.340738,-.252905,-.3014,0.0*
1,1,.1,-.252905,-.3014*
20,1,.1,-.252905,-.3014,-.3014,-.252905,0.0*
1,1,.1,-.3014,-.252905*
20,1,.1,-.3014,-.252905,-.340738,-.196725,0.0*
1,1,.1,-.340738,-.196725*
20,1,.1,-.340738,-.196725,-.369722,-.134568,0.0*
1,1,.1,-.369722,-.134568*
20,1,.1,-.369722,-.134568,-.387473,-.068322,0.0*
1,1,.1,-.387473,-.068322*
20,1,.1,-.387473,-.068322,-.39345,0.0,0.0*
1,1,.1,-.39345,0.0*
20,1,.1,-.39345,0.0,-.387473,.068322,0.0*
1,1,.1,-.387473,.068322*
20,1,.1,-.387473,.068322,-.369722,.134568,0.0*
1,1,.1,-.369722,.134568*
20,1,.1,-.369722,.134568,-.340738,.196725,0.0*
1,1,.1,-.340738,.196725*
20,1,.1,-.340738,.196725,-.3014,.252905,0.0*
1,1,.1,-.3014,.252905*
20,1,.1,-.3014,.252905,-.252905,.3014,0.0*
1,1,.1,-.252905,.3014*
20,1,.1,-.252905,.3014,-.196725,.340738,0.0*
1,1,.1,-.196725,.340738*
20,1,.1,-.196725,.340738,-.134568,.369722,0.0*
1,1,.1,-.134568,.369722*
20,1,.1,-.134568,.369722,-.068322,.387473,0.0*
1,1,.1,-.068322,.387473*
20,1,.1,-.068322,.387473,0.0,.39345,0.0*
1,1,.1,0.0,.39345*
20,1,.1,0.0,.39345,.068322,.387473,0.0*
1,1,.1,.068322,.387473*
20,1,.1,.068322,.387473,.134568,.369722,0.0*
1,1,.1,.134568,.369722*
20,1,.1,.134568,.369722,.196725,.340738,0.0*
1,1,.1,.196725,.340738*
20,1,.1,.196725,.340738,.252905,.3014,0.0*
1,1,.1,.252905,.3014*
20,1,.1,.252905,.3014,.3014,.252905,0.0*
1,1,.1,.3014,.252905*
20,1,.1,.3014,.252905,.340738,.196725,0.0*
1,1,.1,.340738,.196725*
20,1,.1,.340738,.196725,.369722,.134568,0.0*
1,1,.1,.369722,.134568*
20,1,.1,.369722,.134568,.387473,.068322,0.0*
1,1,.1,.387473,.068322*
20,1,.1,.387473,.068322,.39345,0.0,0.0*
1,1,.1,.39345,0.0*
1,1,.1,-.1639,-.1967*
20,1,.1,-.1639,-.1967,0.0,.1967,0.0*
1,1,.1,0.0,.1967*
20,1,.1,0.0,.1967,.1639,-.1967,0.0*
1,1,.1,.1639,-.1967*
1,1,.1,.1049,-.059*
20,1,.1,.1049,-.059,-.1049,-.059,0.0*
1,1,.1,-.1049,-.059*
%
%ADD12MACRO12*%
%ADD14C,.1*%
G75*
%LPD*%
G75*
G54D10*
X-1270Y-4460000D03*
X3768000Y698500D03*
Y1068500D03*
X4888000Y698500D03*
Y1068500D03*
G54D11*
X-1270Y-3825000D03*
X5461000Y2159000D03*
Y2413000D03*
Y2667000D03*
Y2921000D03*
Y3175000D03*
X4953000Y4127500D03*
X5207000D03*
X5461000D03*
X5715000D03*
X5969000D03*
X8636000Y4318000D03*
X8890000D03*
X9144000D03*
X9398000D03*
X9652000D03*
G54D12*
X-1270Y-3190000D03*
X1079500Y2413000D03*
Y3175000D03*
X8128000Y762000D03*
Y1016000D03*
X9144000Y762000D03*
Y1016000D03*
X9652000Y2032000D03*
Y2794000D03*
X9906000Y762000D03*
Y1016000D03*
G54D13*
X-1270Y-2555000D03*
X635000Y2286000D03*
X1460500Y889000D03*
X1778000Y1968500D03*
Y2730500D03*
X1587500Y2603500D03*
X1841500Y2159000D03*
X1524000Y2413000D03*
X1778000Y2868940D03*
Y3048000D03*
Y3365500D03*
X1714500Y3238500D03*
X1587500Y3365500D03*
X1524000Y3873500D03*
X1905000Y3619500D03*
X1524000Y4191000D03*
X2222500Y2222500D03*
X3365500Y1143000D03*
X3238500Y2603500D03*
X3429000Y2667000D03*
X2857500Y2159000D03*
X3175000Y2794000D03*
X3365500Y3429000D03*
X3111500Y2984500D03*
X3175000Y3175000D03*
X3365500Y3810000D03*
X3873500Y1333500D03*
X3683000Y2032000D03*
Y2476500D03*
X4000500Y2921000D03*
X3619500Y3238500D03*
X3873500Y2794000D03*
X3746500Y4064000D03*
Y3683000D03*
X4318000Y1270000D03*
X4826000Y1905000D03*
X4381500Y1397000D03*
X4762500Y2667000D03*
Y3238500D03*
Y3873500D03*
X4644490Y4118510D03*
X5270500Y1143000D03*
X5334000Y1460500D03*
X5143500Y2476500D03*
X5270500Y3365500D03*
Y2921000D03*
X5461000Y3873500D03*
X5080000Y3556000D03*
X5905500Y1016000D03*
X5778500Y2032000D03*
X6096000Y2413000D03*
X5778500Y2667000D03*
X5715000Y3175000D03*
Y3873500D03*
X5969000D03*
X6985000Y1651000D03*
X6540500Y3492500D03*
X7366000Y1079500D03*
X7112000Y1143000D03*
X7429500Y1778000D03*
X7556500Y2032000D03*
X7620000Y1841500D03*
X7556500Y1587500D03*
X7048500Y1524000D03*
X7493000Y1460500D03*
X7683500Y2286000D03*
X7556500Y2413000D03*
X7493000Y2222500D03*
X7683500Y2159000D03*
X7366000Y2476500D03*
X7175500Y2540000D03*
X7302500Y2159000D03*
X7112000Y2095500D03*
X7175500Y3048000D03*
X7747000Y1333500D03*
X8191500Y1651000D03*
X7874000Y1587500D03*
X8382000D03*
X7747000Y4318000D03*
X8318500D03*
X8572500Y825500D03*
X9017000Y1968500D03*
X8445500Y1714500D03*
X8890000Y1778000D03*
X8953500Y1397000D03*
X8826500Y1587500D03*
X8890000Y2222500D03*
X9080500D03*
X8572500Y2921000D03*
X9017000Y2857500D03*
X8636000Y4064000D03*
G54D14*
G01X-1143000Y-4777500D02*
Y-317500D01*
X14683740D01*
Y-4777500D01*
X-1143000D01*
G01Y-4142500D02*
X14683740D01*
G01X-1143000Y-3507500D02*
X14683740D01*
G01X-1143000Y-2237500D02*
X14683740D01*
G01X-1143000Y-2872500D02*
X14683740D01*
G01X-863480Y-2078750D02*
Y-1761250D01*
X-713860D01*
G01X-768990Y-1914700D02*
X-863480D01*
G01X-520950Y-1761250D02*
X-426470D01*
G01X-473710D02*
Y-2078750D01*
G01X-520950D02*
X-426470D01*
G01X-135130Y-1920000D02*
X-56380D01*
Y-2015250D01*
X-80010Y-2047010D01*
X-107570Y-2068170D01*
X-146940Y-2078750D01*
X-186310Y-2068170D01*
X-213870Y-2047010D01*
X-237490Y-2015250D01*
X-253240Y-1978210D01*
X-261120Y-1935880D01*
Y-1898830D01*
X-253240Y-1867090D01*
X-237490Y-1830040D01*
X-213870Y-1798290D01*
X-190250Y-1777130D01*
X-158750Y-1761250D01*
X-131190D01*
X-99700Y-1771830D01*
X-76070Y-1793000D01*
G01X69600Y-1761250D02*
Y-1988790D01*
X85340Y-2036430D01*
X116840Y-2068170D01*
X156210Y-2078750D01*
X195580Y-2068170D01*
X227080Y-2036430D01*
X242820Y-1988790D01*
Y-1761250D01*
G01X392430Y-2078750D02*
Y-1761250D01*
X490850D01*
X522350Y-1777130D01*
X542040Y-1798290D01*
X549910Y-1840630D01*
X542040Y-1882960D01*
X518410Y-1909410D01*
X490850Y-1925300D01*
X392430D01*
G01X490850D02*
X549910Y-2078750D01*
G01X864870D02*
X707390D01*
Y-1761250D01*
X864870D01*
G01X801880Y-1914700D02*
X707390D01*
G01X-1143000Y-1602500D02*
X14683740D01*
G01X-1143000Y-967500D02*
X14683740D01*
G01X0Y0D02*
Y5000000D01*
X11000000D01*
Y0D01*
X0D01*
G01X1140460Y-1602500D02*
Y-4777500D01*
G01X1734940Y-2078750D02*
Y-1761250D01*
X1884560D01*
G01X1829430Y-1914700D02*
X1734940D01*
G01X2077470Y-1761250D02*
X2171950D01*
G01X2124710D02*
Y-2078750D01*
G01X2077470D02*
X2171950D01*
G01X2349120D02*
Y-1761250D01*
X2530220Y-2078750D01*
Y-1761250D01*
G01X2707390D02*
X2801870D01*
G01X2754630D02*
Y-2078750D01*
G01X2707390D02*
X2801870D01*
G01X2986910Y-2036430D02*
X3018410Y-2062880D01*
X3053840Y-2078750D01*
X3085340D01*
X3116830Y-2062880D01*
X3140460Y-2036430D01*
X3152270Y-1999370D01*
X3144400Y-1962340D01*
X3124710Y-1930590D01*
X3089270Y-1909410D01*
X3042030Y-1898830D01*
X3014470Y-1877670D01*
X3002660Y-1840630D01*
X3010540Y-1803580D01*
X3030220Y-1777130D01*
X3057780Y-1761250D01*
X3085340D01*
X3112900Y-1771830D01*
X3136520Y-1798290D01*
G01X3301870Y-2078750D02*
Y-1761250D01*
G01X3467230D02*
Y-2078750D01*
G01Y-1920000D02*
X3301870D01*
G01X3778250Y-2078750D02*
X3620770D01*
Y-1761250D01*
X3778250D01*
G01X3715260Y-1914700D02*
X3620770D01*
G01X3927860Y-2078750D02*
Y-1761250D01*
X4006590D01*
X4038090Y-1777130D01*
X4061710Y-1798290D01*
X4081400Y-1830040D01*
X4097150Y-1867090D01*
X4101080Y-1920000D01*
X4097150Y-1972920D01*
X4081400Y-2009960D01*
X4061710Y-2041720D01*
X4038090Y-2062880D01*
X4006590Y-2078750D01*
X3927860D01*
G01X4211320Y-2184580D02*
X4447540D01*
G01X4561710Y-2036430D02*
X4593210Y-2062880D01*
X4628640Y-2078750D01*
X4660140D01*
X4691630Y-2062880D01*
X4715260Y-2036430D01*
X4727070Y-1999370D01*
X4719200Y-1962340D01*
X4699510Y-1930590D01*
X4664070Y-1909410D01*
X4616830Y-1898830D01*
X4589270Y-1877670D01*
X4577460Y-1840630D01*
X4585340Y-1803580D01*
X4605020Y-1777130D01*
X4632580Y-1761250D01*
X4660140D01*
X4687700Y-1771830D01*
X4711320Y-1798290D01*
G01X4912110Y-1761250D02*
X5006590D01*
G01X4959350D02*
Y-2078750D01*
G01X4912110D02*
X5006590D01*
G01X5199500Y-1761250D02*
X5349120D01*
X5199500Y-2078750D01*
X5349120D01*
G01X5668010D02*
X5510530D01*
Y-1761250D01*
X5668010D01*
G01X5605020Y-1914700D02*
X5510530D01*
G01X2282190Y-4618750D02*
Y-4301250D01*
X2234950Y-4364750D01*
G01Y-4618750D02*
X2329430D01*
G01X2597150Y-4629330D02*
X2589270Y-4624040D01*
Y-4613460D01*
X2597150Y-4608170D01*
X2605030Y-4613460D01*
Y-4624040D01*
X2597150Y-4629330D01*
G01X2959350Y-4618750D02*
Y-4301250D01*
X2813680Y-4528790D01*
X3010540D01*
G01X3168020Y-4407090D02*
X3286120Y-4618750D01*
G01Y-4407090D02*
X3168020Y-4618750D01*
G01X3542030Y-4301250D02*
X3510530Y-4311830D01*
X3486910Y-4338290D01*
X3471160Y-4370040D01*
X3459350Y-4412380D01*
X3455420Y-4460000D01*
X3459350Y-4507630D01*
X3471160Y-4549960D01*
X3486910Y-4581720D01*
X3510530Y-4608170D01*
X3542030Y-4618750D01*
X3573520Y-4608170D01*
X3597150Y-4581720D01*
X3612900Y-4549960D01*
X3624710Y-4507630D01*
X3628640Y-4460000D01*
X3624710Y-4412380D01*
X3612900Y-4370040D01*
X3597150Y-4338290D01*
X3573520Y-4311830D01*
X3542030Y-4301250D01*
G01X3856990Y-4629330D02*
X3849110Y-4624040D01*
Y-4613460D01*
X3856990Y-4608170D01*
X3864870Y-4613460D01*
Y-4624040D01*
X3856990Y-4629330D01*
G01X4085340Y-4571140D02*
X4108950Y-4597590D01*
X4136510Y-4613460D01*
X4171950Y-4618750D01*
X4207390Y-4608170D01*
X4234940Y-4587010D01*
X4254630Y-4549960D01*
X4258560Y-4507630D01*
X4250690Y-4465300D01*
X4231000Y-4438830D01*
X4203440Y-4417670D01*
X4175890Y-4412380D01*
X4148330Y-4417670D01*
X4112900Y-4438830D01*
X4124710Y-4301250D01*
X4231000D01*
G01X4486910D02*
X4455410Y-4311830D01*
X4431790Y-4338290D01*
X4416040Y-4370040D01*
X4404230Y-4412380D01*
X4400300Y-4460000D01*
X4404230Y-4507630D01*
X4416040Y-4549960D01*
X4431790Y-4581720D01*
X4455410Y-4608170D01*
X4486910Y-4618750D01*
X4518400Y-4608170D01*
X4542030Y-4581720D01*
X4557780Y-4549960D01*
X4569590Y-4507630D01*
X4573520Y-4460000D01*
X4569590Y-4412380D01*
X4557780Y-4370040D01*
X4542030Y-4338290D01*
X4518400Y-4311830D01*
X4486910Y-4301250D01*
G01X4801870D02*
X4770370Y-4311830D01*
X4746750Y-4338290D01*
X4731000Y-4370040D01*
X4719190Y-4412380D01*
X4715260Y-4460000D01*
X4719190Y-4507630D01*
X4731000Y-4549960D01*
X4746750Y-4581720D01*
X4770370Y-4608170D01*
X4801870Y-4618750D01*
X4833360Y-4608170D01*
X4856990Y-4581720D01*
X4872740Y-4549960D01*
X4884550Y-4507630D01*
X4888480Y-4460000D01*
X4884550Y-4412380D01*
X4872740Y-4370040D01*
X4856990Y-4338290D01*
X4833360Y-4311830D01*
X4801870Y-4301250D01*
G01X5116830Y-4618750D02*
Y-4301250D01*
X5069590Y-4364750D01*
G01Y-4618750D02*
X5164070D01*
G01X2419980Y-1443750D02*
X2518410Y-1126250D01*
X2616840Y-1443750D01*
G01X2581400Y-1332630D02*
X2455410D01*
G01X2754630Y-1126250D02*
Y-1443750D01*
X2912110D01*
G01X3069590Y-1126250D02*
Y-1443750D01*
X3227070D01*
G01X3691640Y-1126250D02*
Y-1353790D01*
X3707380Y-1401430D01*
X3738880Y-1433170D01*
X3778250Y-1443750D01*
X3817620Y-1433170D01*
X3849120Y-1401430D01*
X3864860Y-1353790D01*
Y-1126250D01*
G01X4002660Y-1443750D02*
Y-1126250D01*
X4183760Y-1443750D01*
Y-1126250D01*
G01X4360930D02*
X4455410D01*
G01X4408170D02*
Y-1443750D01*
G01X4360930D02*
X4455410D01*
G01X4723130Y-1126250D02*
Y-1443750D01*
G01X4632580Y-1126250D02*
X4813680D01*
G01X4955410Y-1401430D02*
X4986910Y-1427880D01*
X5022340Y-1443750D01*
X5053840D01*
X5085330Y-1427880D01*
X5108960Y-1401430D01*
X5120770Y-1364370D01*
X5112900Y-1327340D01*
X5093210Y-1295590D01*
X5057770Y-1274410D01*
X5010530Y-1263830D01*
X4982970Y-1242670D01*
X4971160Y-1205630D01*
X4979040Y-1168580D01*
X4998720Y-1142130D01*
X5026280Y-1126250D01*
X5053840D01*
X5081400Y-1136830D01*
X5105020Y-1163290D01*
G01X5569580Y-1443750D02*
X5668010Y-1126250D01*
X5766440Y-1443750D01*
G01X5731000Y-1332630D02*
X5605010D01*
G01X5904230Y-1443750D02*
Y-1126250D01*
X6002650D01*
X6034150Y-1142130D01*
X6053840Y-1163290D01*
X6061710Y-1205630D01*
X6053840Y-1247960D01*
X6030210Y-1274410D01*
X6002650Y-1290300D01*
X5904230D01*
G01X6002650D02*
X6061710Y-1443750D01*
G01X6376670D02*
X6219190D01*
Y-1126250D01*
X6376670D01*
G01X6313680Y-1279700D02*
X6219190D01*
G01X6880610Y-1126250D02*
X6975090D01*
G01X6927850D02*
Y-1443750D01*
G01X6880610D02*
X6975090D01*
G01X7152260D02*
Y-1126250D01*
X7333360Y-1443750D01*
Y-1126250D01*
G01X7770360Y-1443750D02*
Y-1126250D01*
X7872730Y-1390830D01*
X7975100Y-1126250D01*
Y-1443750D01*
G01X8140450Y-1126250D02*
X8234930D01*
G01X8187690D02*
Y-1443750D01*
G01X8140450D02*
X8234930D01*
G01X8423910Y-1126250D02*
Y-1443750D01*
X8581390D01*
G01X8738870Y-1126250D02*
Y-1443750D01*
X8896350D01*
G01X9085330Y-1126250D02*
X9179810D01*
G01X9132570D02*
Y-1443750D01*
G01X9085330D02*
X9179810D01*
G01X9345160D02*
Y-1126250D01*
X9447530Y-1390830D01*
X9549900Y-1126250D01*
Y-1443750D01*
G01X9841230D02*
X9683750D01*
Y-1126250D01*
X9841230D01*
G01X9778240Y-1279700D02*
X9683750D01*
G01X10077450Y-1126250D02*
Y-1443750D01*
G01X9986900Y-1126250D02*
X10168000D01*
G01X10471150Y-1443750D02*
X10313670D01*
Y-1126250D01*
X10471150D01*
G01X10408160Y-1279700D02*
X10313670D01*
G01X10628630Y-1443750D02*
Y-1126250D01*
X10727050D01*
X10758550Y-1142130D01*
X10778240Y-1163290D01*
X10786110Y-1205630D01*
X10778240Y-1247960D01*
X10754610Y-1274410D01*
X10727050Y-1290300D01*
X10628630D01*
G01X10727050D02*
X10786110Y-1443750D01*
G01X10939650Y-1401430D02*
X10971150Y-1427880D01*
X11006580Y-1443750D01*
X11038080D01*
X11069570Y-1427880D01*
X11093200Y-1401430D01*
X11105010Y-1364370D01*
X11097140Y-1327340D01*
X11077450Y-1295590D01*
X11042010Y-1274410D01*
X10994770Y-1263830D01*
X10967210Y-1242670D01*
X10955400Y-1205630D01*
X10963280Y-1168580D01*
X10982960Y-1142130D01*
X11010520Y-1126250D01*
X11038080D01*
X11065640Y-1136830D01*
X11089260Y-1163290D01*
G01X2746760Y-793750D02*
Y-476250D01*
X2825490D01*
X2856990Y-492130D01*
X2880610Y-513290D01*
X2900300Y-545040D01*
X2916050Y-582090D01*
X2919980Y-635000D01*
X2916050Y-687920D01*
X2900300Y-724960D01*
X2880610Y-756720D01*
X2856990Y-777880D01*
X2825490Y-793750D01*
X2746760D01*
G01X3069590D02*
Y-476250D01*
X3168010D01*
X3199510Y-492130D01*
X3219200Y-513290D01*
X3227070Y-555630D01*
X3219200Y-597960D01*
X3195570Y-624410D01*
X3168010Y-640300D01*
X3069590D01*
G01X3168010D02*
X3227070Y-793750D01*
G01X3416050Y-476250D02*
X3510530D01*
G01X3463290D02*
Y-793750D01*
G01X3416050D02*
X3510530D01*
G01X3699510Y-476250D02*
Y-793750D01*
X3856990D01*
G01X4014470Y-476250D02*
Y-793750D01*
X4171950D01*
G01X4809740Y-502710D02*
X4786120Y-486830D01*
X4758570Y-476250D01*
X4727070D01*
X4691630Y-492130D01*
X4664080Y-518580D01*
X4644390Y-550340D01*
X4628640Y-603250D01*
X4624700Y-650880D01*
X4632580Y-698500D01*
X4644390Y-730250D01*
X4668010Y-762010D01*
X4695570Y-783170D01*
X4723130Y-793750D01*
X4750690D01*
X4778250Y-783170D01*
X4801870Y-767300D01*
X4821560Y-746140D01*
G01X4955410Y-793750D02*
Y-476250D01*
G01X5120770D02*
Y-793750D01*
G01Y-635000D02*
X4955410D01*
G01X5254620Y-793750D02*
X5353050Y-476250D01*
X5451480Y-793750D01*
G01X5416040Y-682630D02*
X5290050D01*
G01X5589270Y-793750D02*
Y-476250D01*
X5687690D01*
X5719190Y-492130D01*
X5738880Y-513290D01*
X5746750Y-555630D01*
X5738880Y-597960D01*
X5715250Y-624410D01*
X5687690Y-640300D01*
X5589270D01*
G01X5687690D02*
X5746750Y-793750D01*
G01X5982970Y-476250D02*
Y-793750D01*
G01X5892420Y-476250D02*
X6073520D01*
G01X6297930Y-804330D02*
X6290050Y-799040D01*
Y-788460D01*
X6297930Y-783170D01*
X6305810Y-788460D01*
Y-799040D01*
X6297930Y-804330D01*
G01Y-661470D02*
X6290050Y-656170D01*
Y-645590D01*
X6297930Y-640300D01*
X6305810Y-645590D01*
Y-656170D01*
X6297930Y-661470D01*
G01X6927850Y-476250D02*
Y-793750D01*
G01X6837300Y-476250D02*
X7018400D01*
G01X7242810Y-793750D02*
X7211310Y-788460D01*
X7183760Y-767300D01*
X7160130Y-735540D01*
X7144380Y-698500D01*
X7136510Y-656170D01*
Y-613830D01*
X7144380Y-571500D01*
X7160130Y-534460D01*
X7183760Y-502710D01*
X7211310Y-481540D01*
X7242810Y-476250D01*
X7274300Y-481540D01*
X7301860Y-502710D01*
X7325490Y-534460D01*
X7341240Y-571500D01*
X7349110Y-613830D01*
Y-656170D01*
X7341240Y-698500D01*
X7325490Y-735540D01*
X7301860Y-767300D01*
X7274300Y-788460D01*
X7242810Y-793750D01*
G01X7479030D02*
Y-476250D01*
X7573520D01*
X7605010Y-492130D01*
X7628640Y-529170D01*
X7636510Y-571500D01*
X7628640Y-613830D01*
X7608950Y-645590D01*
X7573520Y-661470D01*
X7479030D01*
G01X8187690Y-476250D02*
Y-793750D01*
G01X8132570Y-582090D02*
X8242810D01*
G01X8502650Y-793750D02*
X8479030Y-788460D01*
X8455410Y-767300D01*
X8439650Y-730250D01*
X8431780Y-687920D01*
X8439650Y-645590D01*
X8455410Y-608540D01*
X8479030Y-587380D01*
X8502650Y-582090D01*
X8526270Y-587380D01*
X8549890Y-608540D01*
X8565640Y-645590D01*
X8569580Y-687920D01*
X8565640Y-730250D01*
X8549890Y-767300D01*
X8526270Y-788460D01*
X8502650Y-793750D01*
G01X9164060Y-624410D02*
X9179810Y-608540D01*
X9191620Y-582090D01*
X9199500Y-545040D01*
X9191620Y-513290D01*
X9175880Y-492130D01*
X9148320Y-476250D01*
X9042020D01*
Y-793750D01*
X9171940D01*
X9199500Y-772590D01*
X9215250Y-740830D01*
X9223120Y-703790D01*
X9215250Y-666760D01*
X9191620Y-635000D01*
X9164060Y-624410D01*
X9042020D01*
G01X9447530Y-793750D02*
X9416030Y-788460D01*
X9388480Y-767300D01*
X9364850Y-735540D01*
X9349100Y-698500D01*
X9341230Y-656170D01*
Y-613830D01*
X9349100Y-571500D01*
X9364850Y-534460D01*
X9388480Y-502710D01*
X9416030Y-481540D01*
X9447530Y-476250D01*
X9479020Y-481540D01*
X9506580Y-502710D01*
X9530210Y-534460D01*
X9545960Y-571500D01*
X9553830Y-613830D01*
Y-656170D01*
X9545960Y-698500D01*
X9530210Y-735540D01*
X9506580Y-767300D01*
X9479020Y-788460D01*
X9447530Y-793750D01*
G01X9762490Y-476250D02*
Y-793750D01*
G01X9671940Y-476250D02*
X9853040D01*
G01X10077450D02*
Y-793750D01*
G01X9986900Y-476250D02*
X10168000D01*
G01X10392410Y-793750D02*
X10360910Y-788460D01*
X10333360Y-767300D01*
X10309730Y-735540D01*
X10293980Y-698500D01*
X10286110Y-656170D01*
Y-613830D01*
X10293980Y-571500D01*
X10309730Y-534460D01*
X10333360Y-502710D01*
X10360910Y-481540D01*
X10392410Y-476250D01*
X10423900Y-481540D01*
X10451460Y-502710D01*
X10475090Y-534460D01*
X10490840Y-571500D01*
X10498710Y-613830D01*
Y-656170D01*
X10490840Y-698500D01*
X10475090Y-735540D01*
X10451460Y-767300D01*
X10423900Y-788460D01*
X10392410Y-793750D01*
G01X10605000D02*
Y-476250D01*
X10707370Y-740830D01*
X10809740Y-476250D01*
Y-793750D01*
G01X2912110Y-3666250D02*
X2880610Y-3676830D01*
X2856990Y-3703290D01*
X2841240Y-3735040D01*
X2829430Y-3777380D01*
X2825500Y-3825000D01*
X2829430Y-3872630D01*
X2841240Y-3914960D01*
X2856990Y-3946720D01*
X2880610Y-3973170D01*
X2912110Y-3983750D01*
X2943600Y-3973170D01*
X2967230Y-3946720D01*
X2982980Y-3914960D01*
X2994790Y-3872630D01*
X2998720Y-3825000D01*
X2994790Y-3777380D01*
X2982980Y-3735040D01*
X2967230Y-3703290D01*
X2943600Y-3676830D01*
X2912110Y-3666250D01*
G01X3227070Y-3994330D02*
X3219190Y-3989040D01*
Y-3978460D01*
X3227070Y-3973170D01*
X3234950Y-3978460D01*
Y-3989040D01*
X3227070Y-3994330D01*
G01X3475100Y-3946720D02*
X3502660Y-3973170D01*
X3534150Y-3983750D01*
X3565650Y-3973170D01*
X3593210Y-3941430D01*
X3612900Y-3893790D01*
X3620770Y-3846170D01*
Y-3787960D01*
X3612900Y-3740340D01*
X3593210Y-3698000D01*
X3569590Y-3676830D01*
X3542030Y-3666250D01*
X3510530Y-3676830D01*
X3486910Y-3698000D01*
X3471160Y-3729750D01*
X3463290Y-3772090D01*
X3471160Y-3809120D01*
X3490850Y-3846170D01*
X3514470Y-3867340D01*
X3542030Y-3872630D01*
X3573520Y-3862050D01*
X3597150Y-3835590D01*
X3620770Y-3787960D01*
G01X3856990Y-3983750D02*
Y-3666250D01*
X3809750Y-3729750D01*
G01Y-3983750D02*
X3904230D01*
G01X4219190D02*
Y-3666250D01*
X4073520Y-3893790D01*
X4270380D01*
G01X4534150Y-3983750D02*
Y-3666250D01*
X4388480Y-3893790D01*
X4585340D01*
G01X2912110Y-3031250D02*
X2880610Y-3041830D01*
X2856990Y-3068290D01*
X2841240Y-3100040D01*
X2829430Y-3142380D01*
X2825500Y-3190000D01*
X2829430Y-3237630D01*
X2841240Y-3279960D01*
X2856990Y-3311720D01*
X2880610Y-3338170D01*
X2912110Y-3348750D01*
X2943600Y-3338170D01*
X2967230Y-3311720D01*
X2982980Y-3279960D01*
X2994790Y-3237630D01*
X2998720Y-3190000D01*
X2994790Y-3142380D01*
X2982980Y-3100040D01*
X2967230Y-3068290D01*
X2943600Y-3041830D01*
X2912110Y-3031250D01*
G01X3227070Y-3359330D02*
X3219190Y-3354040D01*
Y-3343460D01*
X3227070Y-3338170D01*
X3234950Y-3343460D01*
Y-3354040D01*
X3227070Y-3359330D01*
G01X3534150Y-3348750D02*
X3542030Y-3279960D01*
X3553840Y-3221760D01*
X3569590Y-3168830D01*
X3589270Y-3110630D01*
X3620770Y-3031250D01*
X3463290D01*
G01X3856990Y-3348750D02*
X3884550Y-3343460D01*
X3916040Y-3327590D01*
X3935730Y-3301140D01*
X3943600Y-3264080D01*
X3935730Y-3227050D01*
X3912110Y-3195300D01*
X3876670Y-3179410D01*
X3837310D01*
X3813680Y-3168830D01*
X3793990Y-3142380D01*
X3786120Y-3105340D01*
X3797940Y-3068290D01*
X3825490Y-3041830D01*
X3856990Y-3031250D01*
X3888480Y-3041830D01*
X3916040Y-3068290D01*
X3927860Y-3105340D01*
X3919980Y-3142380D01*
X3900300Y-3168830D01*
X3876670Y-3179410D01*
X3837310D01*
X3801870Y-3195300D01*
X3778250Y-3227050D01*
X3770380Y-3264080D01*
X3778250Y-3301140D01*
X3797940Y-3327590D01*
X3829430Y-3343460D01*
X3856990Y-3348750D01*
G01X4097140Y-3216470D02*
X4124710Y-3179410D01*
X4148330Y-3158250D01*
X4179830Y-3147670D01*
X4207390Y-3158250D01*
X4227070Y-3179410D01*
X4242820Y-3211170D01*
X4246760Y-3248210D01*
X4242820Y-3279960D01*
X4227070Y-3311720D01*
X4203440Y-3338170D01*
X4175890Y-3348750D01*
X4144390Y-3338170D01*
X4116830Y-3306430D01*
X4101080Y-3258790D01*
X4097140Y-3205880D01*
X4105020Y-3137090D01*
X4116830Y-3100040D01*
X4136510Y-3063000D01*
X4164070Y-3036540D01*
X4191630Y-3031250D01*
X4219190Y-3041830D01*
X4238880Y-3068290D01*
G01X4419980Y-3311720D02*
X4447540Y-3338170D01*
X4479030Y-3348750D01*
X4510530Y-3338170D01*
X4538090Y-3306430D01*
X4557780Y-3258790D01*
X4565650Y-3211170D01*
Y-3152960D01*
X4557780Y-3105340D01*
X4538090Y-3063000D01*
X4514470Y-3041830D01*
X4486910Y-3031250D01*
X4455410Y-3041830D01*
X4431790Y-3063000D01*
X4416040Y-3094750D01*
X4408170Y-3137090D01*
X4416040Y-3174120D01*
X4435730Y-3211170D01*
X4459350Y-3232340D01*
X4486910Y-3237630D01*
X4518400Y-3227050D01*
X4542030Y-3200590D01*
X4565650Y-3152960D01*
G01X2912110Y-2396250D02*
X2880610Y-2406830D01*
X2856990Y-2433290D01*
X2841240Y-2465040D01*
X2829430Y-2507380D01*
X2825500Y-2555000D01*
X2829430Y-2602630D01*
X2841240Y-2644960D01*
X2856990Y-2676720D01*
X2880610Y-2703170D01*
X2912110Y-2713750D01*
X2943600Y-2703170D01*
X2967230Y-2676720D01*
X2982980Y-2644960D01*
X2994790Y-2602630D01*
X2998720Y-2555000D01*
X2994790Y-2507380D01*
X2982980Y-2465040D01*
X2967230Y-2433290D01*
X2943600Y-2406830D01*
X2912110Y-2396250D01*
G01X3227070Y-2724330D02*
X3219190Y-2719040D01*
Y-2708460D01*
X3227070Y-2703170D01*
X3234950Y-2708460D01*
Y-2719040D01*
X3227070Y-2724330D01*
G01X3455420Y-2650250D02*
X3479030Y-2687300D01*
X3510530Y-2708460D01*
X3545970Y-2713750D01*
X3577470Y-2708460D01*
X3608960Y-2682010D01*
X3628640Y-2650250D01*
X3632580Y-2618500D01*
X3624710Y-2581470D01*
X3597150Y-2555000D01*
X3569590Y-2544410D01*
X3534150D01*
G01X3569590D02*
X3593210Y-2528540D01*
X3612900Y-2502090D01*
X3620770Y-2470340D01*
X3612900Y-2438580D01*
X3593210Y-2412130D01*
X3557780Y-2396250D01*
X3522350Y-2401540D01*
X3486910Y-2422710D01*
G01X3770380Y-2650250D02*
X3793990Y-2687300D01*
X3825490Y-2708460D01*
X3860930Y-2713750D01*
X3892430Y-2708460D01*
X3923920Y-2682010D01*
X3943600Y-2650250D01*
X3947540Y-2618500D01*
X3939670Y-2581470D01*
X3912110Y-2555000D01*
X3884550Y-2544410D01*
X3849110D01*
G01X3884550D02*
X3908170Y-2528540D01*
X3927860Y-2502090D01*
X3935730Y-2470340D01*
X3927860Y-2438580D01*
X3908170Y-2412130D01*
X3872740Y-2396250D01*
X3837310Y-2401540D01*
X3801870Y-2422710D01*
G01X4171950Y-2396250D02*
X4140450Y-2406830D01*
X4116830Y-2433290D01*
X4101080Y-2465040D01*
X4089270Y-2507380D01*
X4085340Y-2555000D01*
X4089270Y-2602630D01*
X4101080Y-2644960D01*
X4116830Y-2676720D01*
X4140450Y-2703170D01*
X4171950Y-2713750D01*
X4203440Y-2703170D01*
X4227070Y-2676720D01*
X4242820Y-2644960D01*
X4254630Y-2602630D01*
X4258560Y-2555000D01*
X4254630Y-2507380D01*
X4242820Y-2465040D01*
X4227070Y-2433290D01*
X4203440Y-2406830D01*
X4171950Y-2396250D01*
G01X4412100Y-2449170D02*
X4435730Y-2417420D01*
X4463290Y-2401540D01*
X4494790Y-2396250D01*
X4534150Y-2406830D01*
X4561720Y-2433290D01*
X4569590Y-2465040D01*
X4565650Y-2496800D01*
X4549900Y-2523250D01*
X4471160Y-2576170D01*
X4435730Y-2613210D01*
X4412100Y-2666140D01*
X4404230Y-2713750D01*
X4569590D01*
G01X6258560Y-1602500D02*
Y-4777500D01*
G01X6691630Y-2078750D02*
Y-1761250D01*
X6790050D01*
X6821550Y-1777130D01*
X6841240Y-1798290D01*
X6849110Y-1840630D01*
X6841240Y-1882960D01*
X6817610Y-1909410D01*
X6790050Y-1925300D01*
X6691630D01*
G01X6790050D02*
X6849110Y-2078750D01*
G01X7085330D02*
X7053830Y-2073460D01*
X7026280Y-2052300D01*
X7002650Y-2020540D01*
X6986900Y-1983500D01*
X6979030Y-1941170D01*
Y-1898830D01*
X6986900Y-1856500D01*
X7002650Y-1819460D01*
X7026280Y-1787710D01*
X7053830Y-1766540D01*
X7085330Y-1761250D01*
X7116820Y-1766540D01*
X7144380Y-1787710D01*
X7168010Y-1819460D01*
X7183760Y-1856500D01*
X7191630Y-1898830D01*
Y-1941170D01*
X7183760Y-1983500D01*
X7168010Y-2020540D01*
X7144380Y-2052300D01*
X7116820Y-2073460D01*
X7085330Y-2078750D01*
G01X7400290Y-1761250D02*
Y-2078750D01*
G01X7309740Y-1761250D02*
X7490840D01*
G01X7616820Y-2078750D02*
X7715250Y-1761250D01*
X7813680Y-2078750D01*
G01X7778240Y-1967630D02*
X7652250D01*
G01X8030210Y-1761250D02*
Y-2078750D01*
G01X7939660Y-1761250D02*
X8120760D01*
G01X8297930D02*
X8392410D01*
G01X8345170D02*
Y-2078750D01*
G01X8297930D02*
X8392410D01*
G01X8660130D02*
X8628630Y-2073460D01*
X8601080Y-2052300D01*
X8577450Y-2020540D01*
X8561700Y-1983500D01*
X8553830Y-1941170D01*
Y-1898830D01*
X8561700Y-1856500D01*
X8577450Y-1819460D01*
X8601080Y-1787710D01*
X8628630Y-1766540D01*
X8660130Y-1761250D01*
X8691620Y-1766540D01*
X8719180Y-1787710D01*
X8742810Y-1819460D01*
X8758560Y-1856500D01*
X8766430Y-1898830D01*
Y-1941170D01*
X8758560Y-1983500D01*
X8742810Y-2020540D01*
X8719180Y-2052300D01*
X8691620Y-2073460D01*
X8660130Y-2078750D01*
G01X8884540D02*
Y-1761250D01*
X9065640Y-2078750D01*
Y-1761250D01*
G01X7018400Y-4581720D02*
X7045960Y-4608170D01*
X7077450Y-4618750D01*
X7108950Y-4608170D01*
X7136510Y-4576430D01*
X7156200Y-4528790D01*
X7164070Y-4481170D01*
Y-4422960D01*
X7156200Y-4375340D01*
X7136510Y-4333000D01*
X7112890Y-4311830D01*
X7085330Y-4301250D01*
X7053830Y-4311830D01*
X7030210Y-4333000D01*
X7014460Y-4364750D01*
X7006590Y-4407090D01*
X7014460Y-4444120D01*
X7034150Y-4481170D01*
X7057770Y-4502340D01*
X7085330Y-4507630D01*
X7116820Y-4497050D01*
X7140450Y-4470590D01*
X7164070Y-4422960D01*
G01X7400290Y-4301250D02*
X7368790Y-4311830D01*
X7345170Y-4338290D01*
X7329420Y-4370040D01*
X7317610Y-4412380D01*
X7313680Y-4460000D01*
X7317610Y-4507630D01*
X7329420Y-4549960D01*
X7345170Y-4581720D01*
X7368790Y-4608170D01*
X7400290Y-4618750D01*
X7431780Y-4608170D01*
X7455410Y-4581720D01*
X7471160Y-4549960D01*
X7482970Y-4507630D01*
X7486900Y-4460000D01*
X7482970Y-4412380D01*
X7471160Y-4370040D01*
X7455410Y-4338290D01*
X7431780Y-4311830D01*
X7400290Y-4301250D01*
G01X7715250Y-4629330D02*
X7707370Y-4624040D01*
Y-4613460D01*
X7715250Y-4608170D01*
X7723130Y-4613460D01*
Y-4624040D01*
X7715250Y-4629330D01*
G01X8030210Y-4301250D02*
X7998710Y-4311830D01*
X7975090Y-4338290D01*
X7959340Y-4370040D01*
X7947530Y-4412380D01*
X7943600Y-4460000D01*
X7947530Y-4507630D01*
X7959340Y-4549960D01*
X7975090Y-4581720D01*
X7998710Y-4608170D01*
X8030210Y-4618750D01*
X8061700Y-4608170D01*
X8085330Y-4581720D01*
X8101080Y-4549960D01*
X8112890Y-4507630D01*
X8116820Y-4460000D01*
X8112890Y-4412380D01*
X8101080Y-4370040D01*
X8085330Y-4338290D01*
X8061700Y-4311830D01*
X8030210Y-4301250D01*
G01X8345170D02*
X8313670Y-4311830D01*
X8290050Y-4338290D01*
X8274300Y-4370040D01*
X8262490Y-4412380D01*
X8258560Y-4460000D01*
X8262490Y-4507630D01*
X8274300Y-4549960D01*
X8290050Y-4581720D01*
X8313670Y-4608170D01*
X8345170Y-4618750D01*
X8376660Y-4608170D01*
X8400290Y-4581720D01*
X8416040Y-4549960D01*
X8427850Y-4507630D01*
X8431780Y-4460000D01*
X8427850Y-4412380D01*
X8416040Y-4370040D01*
X8400290Y-4338290D01*
X8376660Y-4311830D01*
X8345170Y-4301250D01*
G01X8660130D02*
X8628630Y-4311830D01*
X8605010Y-4338290D01*
X8589260Y-4370040D01*
X8577450Y-4412380D01*
X8573520Y-4460000D01*
X8577450Y-4507630D01*
X8589260Y-4549960D01*
X8605010Y-4581720D01*
X8628630Y-4608170D01*
X8660130Y-4618750D01*
X8691620Y-4608170D01*
X8715250Y-4581720D01*
X8731000Y-4549960D01*
X8742810Y-4507630D01*
X8746740Y-4460000D01*
X8742810Y-4412380D01*
X8731000Y-4370040D01*
X8715250Y-4338290D01*
X8691620Y-4311830D01*
X8660130Y-4301250D01*
G01X7821550Y-3877920D02*
X7923910D01*
G01X7821550Y-3242920D02*
X7923910D01*
G01X7821550Y-2607920D02*
X7923910D01*
G01X9486900Y-1602500D02*
Y-4777500D01*
G01X10234930Y-4618750D02*
Y-4301250D01*
X10329420D01*
X10360910Y-4317130D01*
X10384540Y-4354170D01*
X10392410Y-4396500D01*
X10384540Y-4438830D01*
X10364850Y-4470590D01*
X10329420Y-4486470D01*
X10234930D01*
G01X10549890Y-4301250D02*
Y-4618750D01*
X10707370D01*
G01X10845160D02*
X10943590Y-4301250D01*
X11042020Y-4618750D01*
G01X11006580Y-4507630D02*
X10880590D01*
G01X11258550Y-4301250D02*
Y-4618750D01*
G01X11168000Y-4301250D02*
X11349100D01*
G01X11652250Y-4618750D02*
X11494770D01*
Y-4301250D01*
X11652250D01*
G01X11589260Y-4454700D02*
X11494770D01*
G01X11801860Y-4618750D02*
Y-4301250D01*
X11880590D01*
X11912090Y-4317130D01*
X11935710Y-4338290D01*
X11955400Y-4370040D01*
X11971150Y-4407090D01*
X11975080Y-4460000D01*
X11971150Y-4512920D01*
X11955400Y-4549960D01*
X11935710Y-4581720D01*
X11912090Y-4602880D01*
X11880590Y-4618750D01*
X11801860D01*
G01X10234930Y-3983750D02*
Y-3666250D01*
X10329420D01*
X10360910Y-3682130D01*
X10384540Y-3719170D01*
X10392410Y-3761500D01*
X10384540Y-3803830D01*
X10364850Y-3835590D01*
X10329420Y-3851470D01*
X10234930D01*
G01X10549890Y-3666250D02*
Y-3983750D01*
X10707370D01*
G01X10845160D02*
X10943590Y-3666250D01*
X11042020Y-3983750D01*
G01X11006580Y-3872630D02*
X10880590D01*
G01X11258550Y-3666250D02*
Y-3983750D01*
G01X11168000Y-3666250D02*
X11349100D01*
G01X11652250Y-3983750D02*
X11494770D01*
Y-3666250D01*
X11652250D01*
G01X11589260Y-3819700D02*
X11494770D01*
G01X11801860Y-3983750D02*
Y-3666250D01*
X11880590D01*
X11912090Y-3682130D01*
X11935710Y-3703290D01*
X11955400Y-3735040D01*
X11971150Y-3772090D01*
X11975080Y-3825000D01*
X11971150Y-3877920D01*
X11955400Y-3914960D01*
X11935710Y-3946720D01*
X11912090Y-3967880D01*
X11880590Y-3983750D01*
X11801860D01*
G01X10234930Y-3348750D02*
Y-3031250D01*
X10329420D01*
X10360910Y-3047130D01*
X10384540Y-3084170D01*
X10392410Y-3126500D01*
X10384540Y-3168830D01*
X10364850Y-3200590D01*
X10329420Y-3216470D01*
X10234930D01*
G01X10549890Y-3031250D02*
Y-3348750D01*
X10707370D01*
G01X10845160D02*
X10943590Y-3031250D01*
X11042020Y-3348750D01*
G01X11006580Y-3237630D02*
X10880590D01*
G01X11258550Y-3031250D02*
Y-3348750D01*
G01X11168000Y-3031250D02*
X11349100D01*
G01X11652250Y-3348750D02*
X11494770D01*
Y-3031250D01*
X11652250D01*
G01X11589260Y-3184700D02*
X11494770D01*
G01X11801860Y-3348750D02*
Y-3031250D01*
X11880590D01*
X11912090Y-3047130D01*
X11935710Y-3068290D01*
X11955400Y-3100040D01*
X11971150Y-3137090D01*
X11975080Y-3190000D01*
X11971150Y-3242920D01*
X11955400Y-3279960D01*
X11935710Y-3311720D01*
X11912090Y-3332880D01*
X11880590Y-3348750D01*
X11801860D01*
G01X10234930Y-2713750D02*
Y-2396250D01*
X10329420D01*
X10360910Y-2412130D01*
X10384540Y-2449170D01*
X10392410Y-2491500D01*
X10384540Y-2533830D01*
X10364850Y-2565590D01*
X10329420Y-2581470D01*
X10234930D01*
G01X10549890Y-2396250D02*
Y-2713750D01*
X10707370D01*
G01X10845160D02*
X10943590Y-2396250D01*
X11042020Y-2713750D01*
G01X11006580Y-2602630D02*
X10880590D01*
G01X11258550Y-2396250D02*
Y-2713750D01*
G01X11168000Y-2396250D02*
X11349100D01*
G01X11652250Y-2713750D02*
X11494770D01*
Y-2396250D01*
X11652250D01*
G01X11589260Y-2549700D02*
X11494770D01*
G01X11801860Y-2713750D02*
Y-2396250D01*
X11880590D01*
X11912090Y-2412130D01*
X11935710Y-2433290D01*
X11955400Y-2465040D01*
X11971150Y-2502090D01*
X11975080Y-2555000D01*
X11971150Y-2607920D01*
X11955400Y-2644960D01*
X11935710Y-2676720D01*
X11912090Y-2697880D01*
X11880590Y-2713750D01*
X11801860D01*
G01X10234930Y-2078750D02*
Y-1761250D01*
X10329420D01*
X10360910Y-1777130D01*
X10384540Y-1814170D01*
X10392410Y-1856500D01*
X10384540Y-1898830D01*
X10364850Y-1930590D01*
X10329420Y-1946470D01*
X10234930D01*
G01X10549890Y-1761250D02*
Y-2078750D01*
X10707370D01*
G01X10845160D02*
X10943590Y-1761250D01*
X11042020Y-2078750D01*
G01X11006580Y-1967630D02*
X10880590D01*
G01X11258550Y-1761250D02*
Y-2078750D01*
G01X11168000Y-1761250D02*
X11349100D01*
G01X11652250Y-2078750D02*
X11494770D01*
Y-1761250D01*
X11652250D01*
G01X11589260Y-1914700D02*
X11494770D01*
G01X11801860Y-2078750D02*
Y-1761250D01*
X11880590D01*
X11912090Y-1777130D01*
X11935710Y-1798290D01*
X11955400Y-1830040D01*
X11971150Y-1867090D01*
X11975080Y-1920000D01*
X11971150Y-1972920D01*
X11955400Y-2009960D01*
X11935710Y-2041720D01*
X11912090Y-2062880D01*
X11880590Y-2078750D01*
X11801860D01*
G01X12715240Y-1602500D02*
Y-4777500D01*
G01X13384530Y-2078750D02*
X13353030Y-2073460D01*
X13325480Y-2052300D01*
X13301850Y-2020540D01*
X13286100Y-1983500D01*
X13278230Y-1941170D01*
Y-1898830D01*
X13286100Y-1856500D01*
X13301850Y-1819460D01*
X13325480Y-1787710D01*
X13353030Y-1766540D01*
X13384530Y-1761250D01*
X13416020Y-1766540D01*
X13443580Y-1787710D01*
X13467210Y-1819460D01*
X13482960Y-1856500D01*
X13490830Y-1898830D01*
Y-1941170D01*
X13482960Y-1983500D01*
X13467210Y-2020540D01*
X13443580Y-2052300D01*
X13416020Y-2073460D01*
X13384530Y-2078750D01*
G01X13416020Y-1994080D02*
X13463270Y-2078750D01*
G01X13699490Y-1761250D02*
Y-2078750D01*
G01X13608940Y-1761250D02*
X13790040D01*
G01X14014450Y-2078750D02*
Y-1935880D01*
X13935710Y-1761250D01*
G01X14093190D02*
X14014450Y-1935880D01*
G01X13746730Y-4618750D02*
Y-4301250D01*
X13601060Y-4528790D01*
X13797920D01*
G01X13542010Y-3983750D02*
Y-3666250D01*
X13494770Y-3729750D01*
G01Y-3983750D02*
X13589250D01*
G01X13770360Y-3936140D02*
X13793970Y-3962590D01*
X13821530Y-3978460D01*
X13856970Y-3983750D01*
X13892410Y-3973170D01*
X13919960Y-3952010D01*
X13939650Y-3914960D01*
X13943580Y-3872630D01*
X13935710Y-3830300D01*
X13916020Y-3803830D01*
X13888460Y-3782670D01*
X13860910Y-3777380D01*
X13833350Y-3782670D01*
X13797920Y-3803830D01*
X13809730Y-3666250D01*
X13916020D01*
G01X13542010Y-3348750D02*
Y-3031250D01*
X13494770Y-3094750D01*
G01Y-3348750D02*
X13589250D01*
G01X13856970Y-3031250D02*
X13825470Y-3041830D01*
X13801850Y-3068290D01*
X13786100Y-3100040D01*
X13774290Y-3142380D01*
X13770360Y-3190000D01*
X13774290Y-3237630D01*
X13786100Y-3279960D01*
X13801850Y-3311720D01*
X13825470Y-3338170D01*
X13856970Y-3348750D01*
X13888460Y-3338170D01*
X13912090Y-3311720D01*
X13927840Y-3279960D01*
X13939650Y-3237630D01*
X13943580Y-3190000D01*
X13939650Y-3142380D01*
X13927840Y-3100040D01*
X13912090Y-3068290D01*
X13888460Y-3041830D01*
X13856970Y-3031250D01*
G01X13475080Y-2676720D02*
X13502640Y-2703170D01*
X13534130Y-2713750D01*
X13565630Y-2703170D01*
X13593190Y-2671430D01*
X13612880Y-2623790D01*
X13620750Y-2576170D01*
Y-2517960D01*
X13612880Y-2470340D01*
X13593190Y-2428000D01*
X13569570Y-2406830D01*
X13542010Y-2396250D01*
X13510510Y-2406830D01*
X13486890Y-2428000D01*
X13471140Y-2459750D01*
X13463270Y-2502090D01*
X13471140Y-2539120D01*
X13490830Y-2576170D01*
X13514450Y-2597340D01*
X13542010Y-2602630D01*
X13573500Y-2592050D01*
X13597130Y-2565590D01*
X13620750Y-2517960D01*
G01X13856970Y-2396250D02*
X13825470Y-2406830D01*
X13801850Y-2433290D01*
X13786100Y-2465040D01*
X13774290Y-2507380D01*
X13770360Y-2555000D01*
X13774290Y-2602630D01*
X13786100Y-2644960D01*
X13801850Y-2676720D01*
X13825470Y-2703170D01*
X13856970Y-2713750D01*
X13888460Y-2703170D01*
X13912090Y-2676720D01*
X13927840Y-2644960D01*
X13939650Y-2602630D01*
X13943580Y-2555000D01*
X13939650Y-2507380D01*
X13927840Y-2465040D01*
X13912090Y-2433290D01*
X13888460Y-2406830D01*
X13856970Y-2396250D01*
M02*
