G04 ================== begin FILE IDENTIFICATION RECORD ==================*
G04 Layout Name:  My_AVRUSB500.brd*
G04 Film Name:    Silk_t*
G04 File Format:  Gerber RS274X*
G04 File Origin:  Cadence Allegro 17.2-S052*
G04 Origin Date:  Mon Jul 29 16:02:50 2019*
G04 *
G04 Layer:  REF DES/SILKSCREEN_TOP*
G04 Layer:  PACKAGE GEOMETRY/SILKSCREEN_TOP*
G04 Layer:  BOARD GEOMETRY/SILKSCREEN_TOP*
G04 *
G04 Offset:    (0.0000 0.0000)*
G04 Mirror:    No*
G04 Mode:      Positive*
G04 Rotation:  0*
G04 FullContactRelief:  No*
G04 UndefLineWidth:     0.2000*
G04 ================== end FILE IDENTIFICATION RECORD ====================*
%FSLAX55Y55*MOMM*%
%IR0*IPPOS*OFA0.00000B0.00000*MIA0B0*SFA1.00000B1.00000*%
%ADD10C,.254*%
%ADD11C,.2*%
G75*
%LPD*%
G75*
G54D10*
G01X1403350Y2012950D02*
X628650D01*
G01D02*
Y1670050D01*
G01D02*
X1403350D01*
G01X627380Y3987800D02*
Y4394200D01*
G01X1323340Y3987800D02*
X627380D01*
G01X1403350Y3790950D02*
X628650D01*
G01D02*
Y3448050D01*
G01D02*
X1403350D01*
G01X627380Y4394200D02*
X1323340D01*
G01X1325880Y1066800D02*
Y1473200D01*
G01X2021840Y1066800D02*
X1325880D01*
G01X654050Y755650D02*
X996950D01*
G01D02*
Y1530350D01*
G01X654050D02*
Y755650D01*
G01X1325880Y1473200D02*
X2021840D01*
G01X996950Y1530350D02*
X654050D01*
G01X1333500Y3365500D02*
Y2222500D01*
G01D02*
X825500D01*
G01D02*
Y3365500D01*
G01D02*
X1333500D01*
G01X1323340Y4394200D02*
Y3987800D01*
G01X2021840Y1473200D02*
Y1066800D01*
G01X1403350Y1670050D02*
Y2012950D01*
G01X1964690Y3244340D02*
X2107440D01*
G01X1403350Y3448050D02*
Y3790950D01*
G01X2913380Y3924300D02*
Y4330700D01*
G01X3609340Y3924300D02*
X2913380D01*
G01Y4330700D02*
X3609340D01*
G01X3865880Y1574800D02*
Y1981200D01*
G01D02*
X4561840D01*
G01Y1574800D02*
X3865880D01*
G01X3802380Y2273300D02*
Y2679700D01*
G01D02*
X4498340D01*
G01Y2273300D02*
X3802380D01*
G01Y3035300D02*
Y3441700D01*
G01D02*
X4498340D01*
G01Y3035300D02*
X3802380D01*
G01X3609340Y4330700D02*
Y3924300D01*
G01X3802380D02*
Y4330700D01*
G01X4498340Y3924300D02*
X3802380D01*
G01Y4330700D02*
X4498340D01*
G01X4561840Y1981200D02*
Y1574800D01*
G01X4498340Y2679700D02*
Y2273300D01*
G01Y3441700D02*
Y3035300D01*
G01Y4330700D02*
Y3924300D01*
G01X6215380Y1320800D02*
Y1727200D01*
G01X6911340Y1320800D02*
X6215380D01*
G01Y812800D02*
Y1219200D01*
G01D02*
X6911340D01*
G01Y812800D02*
X6215380D01*
G01Y1955800D02*
Y2362200D01*
G01X6911340Y1955800D02*
X6215380D01*
G01Y1727200D02*
X6911340D01*
G01X6215380Y2362200D02*
X6911340D01*
G01X6153150Y2901950D02*
Y2559050D01*
G01D02*
X6927850D01*
G01Y2901950D02*
X6153150D01*
G01X6911340Y1727200D02*
Y1320800D01*
G01Y1219200D02*
Y812800D01*
G01Y2362200D02*
Y1955800D01*
G01X6927850Y2559050D02*
Y2901950D01*
G01X6743700Y4325620D02*
Y3629660D01*
G01D02*
X6337300D01*
G01D02*
Y4325620D01*
G01D02*
X6743700D01*
G01X8013700Y3040380D02*
X7607300D01*
G01D02*
Y3736340D01*
G01D02*
X8013700D01*
G01X7486650Y4235450D02*
Y3892550D01*
G01D02*
X8261350D01*
G01Y4235450D02*
X7486650D01*
G01X8128000Y603250D02*
G02X7842250Y889000I0J285750D01*
G02X8128000Y1174750I285750J0D01*
G02X8413750Y889000I0J-285750D01*
G02X8128000Y603250I-285750J0D01*
G01X8013700Y3736340D02*
Y3040380D01*
G01X8712200D02*
X8305800D01*
G01D02*
Y3736340D01*
G01D02*
X8712200D01*
G01X8261350Y3892550D02*
Y4235450D01*
G01X9144000Y603250D02*
G02X8858250Y889000I0J285750D01*
G02X9144000Y1174750I285750J0D01*
G02X9429750Y889000I0J-285750D01*
G02X9144000Y603250I-285750J0D01*
G01X8712200Y3736340D02*
Y3040380D01*
G01X9906000Y603250D02*
G02X9620250Y889000I0J285750D01*
G02X9906000Y1174750I285750J0D01*
G02X10191750Y889000I0J-285750D01*
G02X9906000Y603250I-285750J0D01*
G01Y1841500D02*
X9398000D01*
G01D02*
Y2984500D01*
G01X9518650Y1695450D02*
Y1352550D01*
G01D02*
X10293350D01*
G01Y1695450D02*
X9518650D01*
G01X9398000Y2984500D02*
X9906000D01*
G01X9601200Y3167380D02*
X9194800D01*
G01D02*
Y3863340D01*
G01X9601200D02*
Y3167380D01*
G01X10109200D02*
X9702800D01*
G01D02*
Y3863340D01*
G01X9194800D02*
X9601200D01*
G01X9702800D02*
X10109200D01*
G01X9906000Y2984500D02*
Y1841500D01*
G01X10293350Y1352550D02*
Y1695450D01*
G01X9988550Y2927350D02*
Y2152650D01*
G01D02*
X10331450D01*
G01D02*
Y2927350D01*
G01X10109200Y3863340D02*
Y3167380D01*
G01X10331450Y2927350D02*
X9988550D01*
G54D11*
G01X605150Y1414700D02*
X614680Y1428920D01*
X621030Y1445510D01*
Y1464480D01*
X611500Y1485820D01*
X595630Y1502410D01*
X576580Y1514260D01*
X544830Y1523750D01*
X516250Y1526120D01*
X487680Y1521370D01*
X468630Y1514260D01*
X449580Y1500040D01*
X436880Y1483440D01*
X430530Y1466850D01*
Y1450260D01*
X436880Y1433660D01*
X446400Y1419440D01*
X459100Y1407580D01*
G01X430530Y1276350D02*
X621030D01*
X582930Y1304800D01*
G01X430530D02*
Y1247910D01*
G01X744300Y1621150D02*
X730080Y1630680D01*
X713490Y1637030D01*
X694520D01*
X673180Y1627500D01*
X656590Y1611630D01*
X644740Y1592580D01*
X635250Y1560830D01*
X632880Y1532250D01*
X637630Y1503680D01*
X644740Y1484630D01*
X658960Y1465580D01*
X675560Y1452880D01*
X692150Y1446530D01*
X708740D01*
X725340Y1452880D01*
X739560Y1462400D01*
X751420Y1475100D01*
G01X882650Y1446530D02*
Y1637030D01*
X854200Y1598930D01*
G01Y1446530D02*
X911090D01*
G01X1028110Y1605280D02*
X1042330Y1624330D01*
X1058930Y1633860D01*
X1077890Y1637030D01*
X1101600Y1630680D01*
X1118190Y1614800D01*
X1122930Y1595760D01*
X1120560Y1576700D01*
X1111080Y1560830D01*
X1063670Y1529080D01*
X1042330Y1506850D01*
X1028110Y1475100D01*
X1023370Y1446530D01*
X1122930D01*
G01X571500Y3246120D02*
X485780D01*
X381000Y3198710D01*
G01Y3293530D02*
X485780Y3246120D01*
G01X533400Y3384470D02*
X555630Y3398690D01*
X568330Y3417650D01*
X571500Y3438990D01*
X568330Y3457960D01*
X552450Y3476920D01*
X533400Y3488770D01*
X514350Y3491140D01*
X492130Y3486400D01*
X476250Y3469810D01*
X469900Y3453210D01*
Y3431880D01*
G01Y3453210D02*
X460380Y3467440D01*
X444500Y3479290D01*
X425450Y3484030D01*
X406400Y3479290D01*
X390530Y3467440D01*
X381000Y3446100D01*
X384170Y3424770D01*
X396880Y3403430D01*
G01X744300Y3399150D02*
X730080Y3408680D01*
X713490Y3415030D01*
X694520D01*
X673180Y3405500D01*
X656590Y3389630D01*
X644740Y3370580D01*
X635250Y3338830D01*
X632880Y3310250D01*
X637630Y3281680D01*
X644740Y3262630D01*
X658960Y3243580D01*
X675560Y3230880D01*
X692150Y3224530D01*
X708740D01*
X725340Y3230880D01*
X739560Y3240400D01*
X751420Y3253100D01*
G01X882650Y3224530D02*
Y3415030D01*
X854200Y3376930D01*
G01Y3224530D02*
X911090D01*
G01X1073150D02*
Y3415030D01*
X1044700Y3376930D01*
G01Y3224530D02*
X1101590D01*
G01X643470Y3764280D02*
Y3954780D01*
X702730D01*
X721700Y3945250D01*
X733550Y3932550D01*
X738290Y3907150D01*
X733550Y3881750D01*
X719330Y3865880D01*
X702730Y3856350D01*
X643470D01*
G01X702730D02*
X738290Y3764280D01*
G01X881380D02*
Y3954780D01*
X852930Y3916680D01*
G01Y3764280D02*
X909820D01*
G01X1026840Y3843650D02*
X1043430Y3865880D01*
X1057660Y3878580D01*
X1076620Y3884930D01*
X1093220Y3878580D01*
X1105070Y3865880D01*
X1114550Y3846830D01*
X1116920Y3824600D01*
X1114550Y3805550D01*
X1105070Y3786500D01*
X1090840Y3770630D01*
X1074250Y3764280D01*
X1055290Y3770630D01*
X1038690Y3789670D01*
X1029210Y3818260D01*
X1026840Y3850000D01*
X1031580Y3891280D01*
X1038690Y3913510D01*
X1050540Y3935730D01*
X1067140Y3951610D01*
X1083730Y3954780D01*
X1100330Y3948430D01*
X1112180Y3932550D01*
G01X1341970Y843280D02*
Y1033780D01*
X1401230D01*
X1420200Y1024250D01*
X1432050Y1011550D01*
X1436790Y986150D01*
X1432050Y960750D01*
X1417830Y944880D01*
X1401230Y935350D01*
X1341970D01*
G01X1401230D02*
X1436790Y843280D01*
G01X1579880D02*
Y1033780D01*
X1551430Y995680D01*
G01Y843280D02*
X1608320D01*
G01X1879600Y3404110D02*
Y3347220D01*
G01Y3375660D02*
X1689100D01*
G01Y3404110D02*
Y3347220D01*
G01X1863720Y3133010D02*
X1873250Y3147230D01*
X1879600Y3163820D01*
Y3182790D01*
X1870070Y3204130D01*
X1854200Y3220720D01*
X1835150Y3232570D01*
X1803400Y3242060D01*
X1774820Y3244430D01*
X1746250Y3239680D01*
X1727200Y3232570D01*
X1708150Y3218350D01*
X1695450Y3201750D01*
X1689100Y3185160D01*
Y3168570D01*
X1695450Y3151970D01*
X1704970Y3137750D01*
X1717670Y3125890D01*
G01X1847850Y3039700D02*
X1866900Y3025480D01*
X1876430Y3008880D01*
X1879600Y2989920D01*
X1873250Y2966210D01*
X1857370Y2949620D01*
X1838330Y2944880D01*
X1819270Y2947250D01*
X1803400Y2956730D01*
X1771650Y3004140D01*
X1749420Y3025480D01*
X1717670Y3039700D01*
X1689100Y3044440D01*
Y2944880D01*
G01X2756660Y2682240D02*
X2629660D01*
X2655060Y2662940D01*
G01X2756660D02*
Y2701540D01*
G01Y2808560D02*
X2729150Y2811780D01*
X2705860Y2816610D01*
X2684690Y2823040D01*
X2661410Y2831080D01*
X2629660Y2843950D01*
Y2779610D01*
G01X2156710Y3136140D02*
X2283710D01*
X2258310Y3155440D01*
G01X2156710D02*
Y3116840D01*
G01X2929470Y3700780D02*
Y3891280D01*
X2988730D01*
X3007700Y3881750D01*
X3019550Y3869050D01*
X3024290Y3843650D01*
X3019550Y3818250D01*
X3005330Y3802380D01*
X2988730Y3792850D01*
X2929470D01*
G01X2988730D02*
X3024290Y3700780D01*
G01X3167380D02*
Y3891280D01*
X3138930Y3853180D01*
G01Y3700780D02*
X3195820D01*
G01X3353140D02*
X3357880Y3742050D01*
X3364990Y3776980D01*
X3374470Y3808730D01*
X3386330Y3843650D01*
X3405290Y3891280D01*
X3310470D01*
G01X3881970Y1351280D02*
Y1541780D01*
X3941230D01*
X3960200Y1532250D01*
X3972050Y1519550D01*
X3976790Y1494150D01*
X3972050Y1468750D01*
X3957830Y1452880D01*
X3941230Y1443350D01*
X3881970D01*
G01X3941230D02*
X3976790Y1351280D01*
G01X4119880D02*
X4136470Y1354450D01*
X4155440Y1363980D01*
X4167290Y1379850D01*
X4172030Y1402080D01*
X4167290Y1424300D01*
X4153070Y1443350D01*
X4131730Y1452880D01*
X4108030D01*
X4093800Y1459230D01*
X4081950Y1475100D01*
X4077210Y1497330D01*
X4084320Y1519550D01*
X4100910Y1535430D01*
X4119880Y1541780D01*
X4138840Y1535430D01*
X4155440Y1519550D01*
X4162550Y1497330D01*
X4157810Y1475100D01*
X4145960Y1459230D01*
X4131730Y1452880D01*
X4108030D01*
X4086690Y1443350D01*
X4072470Y1424300D01*
X4067730Y1402080D01*
X4072470Y1379850D01*
X4084320Y1363980D01*
X4103290Y1354450D01*
X4119880Y1351280D01*
G01X3818470Y2049780D02*
Y2240280D01*
X3877730D01*
X3896700Y2230750D01*
X3908550Y2218050D01*
X3913290Y2192650D01*
X3908550Y2167250D01*
X3894330Y2151380D01*
X3877730Y2141850D01*
X3818470D01*
G01X3877730D02*
X3913290Y2049780D01*
G01X4011340Y2208530D02*
X4025560Y2227580D01*
X4042160Y2237110D01*
X4061120Y2240280D01*
X4084830Y2233930D01*
X4101420Y2218050D01*
X4106160Y2199010D01*
X4103790Y2179950D01*
X4094310Y2164080D01*
X4046900Y2132330D01*
X4025560Y2110100D01*
X4011340Y2078350D01*
X4006600Y2049780D01*
X4106160D01*
G01X4246880D02*
Y2240280D01*
X4218430Y2202180D01*
G01Y2049780D02*
X4275320D01*
G01X3818470Y2811780D02*
Y3002280D01*
X3877730D01*
X3896700Y2992750D01*
X3908550Y2980050D01*
X3913290Y2954650D01*
X3908550Y2929250D01*
X3894330Y2913380D01*
X3877730Y2903850D01*
X3818470D01*
G01X3877730D02*
X3913290Y2811780D01*
G01X4011340Y2970530D02*
X4025560Y2989580D01*
X4042160Y2999110D01*
X4061120Y3002280D01*
X4084830Y2995930D01*
X4101420Y2980050D01*
X4106160Y2961010D01*
X4103790Y2941950D01*
X4094310Y2926080D01*
X4046900Y2894330D01*
X4025560Y2872100D01*
X4011340Y2840350D01*
X4006600Y2811780D01*
X4106160D01*
G01X4246880Y3002280D02*
X4227910Y2995930D01*
X4213690Y2980050D01*
X4204210Y2961010D01*
X4197100Y2935600D01*
X4194730Y2907030D01*
X4197100Y2878450D01*
X4204210Y2853050D01*
X4213690Y2834000D01*
X4227910Y2818130D01*
X4246880Y2811780D01*
X4265840Y2818130D01*
X4280070Y2834000D01*
X4289550Y2853050D01*
X4296660Y2878450D01*
X4299030Y2907030D01*
X4296660Y2935600D01*
X4289550Y2961010D01*
X4280070Y2980050D01*
X4265840Y2995930D01*
X4246880Y3002280D01*
G01X3818470Y3700780D02*
Y3891280D01*
X3877730D01*
X3896700Y3881750D01*
X3908550Y3869050D01*
X3913290Y3843650D01*
X3908550Y3818250D01*
X3894330Y3802380D01*
X3877730Y3792850D01*
X3818470D01*
G01X3877730D02*
X3913290Y3700780D01*
G01X4056380D02*
Y3891280D01*
X4027930Y3853180D01*
G01Y3700780D02*
X4084820D01*
G01X4246880D02*
X4263470Y3703950D01*
X4282440Y3713480D01*
X4294290Y3729350D01*
X4299030Y3751580D01*
X4294290Y3773800D01*
X4280070Y3792850D01*
X4258730Y3802380D01*
X4235030D01*
X4220800Y3808730D01*
X4208950Y3824600D01*
X4204210Y3846830D01*
X4211320Y3869050D01*
X4227910Y3884930D01*
X4246880Y3891280D01*
X4265840Y3884930D01*
X4282440Y3869050D01*
X4289550Y3846830D01*
X4284810Y3824600D01*
X4272960Y3808730D01*
X4258730Y3802380D01*
X4235030D01*
X4213690Y3792850D01*
X4199470Y3773800D01*
X4194730Y3751580D01*
X4199470Y3729350D01*
X4211320Y3713480D01*
X4230290Y3703950D01*
X4246880Y3700780D01*
G01X6096000Y4254500D02*
Y4000500D01*
X4826000D01*
Y4254500D01*
X6096000D01*
G01X5334000Y3302000D02*
X5588000D01*
Y2032000D01*
X5334000D01*
Y3302000D01*
G01X5384800Y3152560D02*
X5372100Y3144520D01*
X5363630Y3134870D01*
X5359400Y3123610D01*
X5363630Y3110740D01*
X5372100Y3101090D01*
X5384800Y3091430D01*
X5401730Y3088220D01*
X5486400D01*
G01X5378450Y3026240D02*
X5367860Y3016590D01*
X5361520Y3005330D01*
X5359400Y2990850D01*
X5363630Y2976370D01*
X5372100Y2965110D01*
X5386910Y2957070D01*
X5403850Y2955460D01*
X5420780Y2958680D01*
X5431370Y2966720D01*
X5439830Y2977980D01*
X5441950Y2989240D01*
X5439830Y3000500D01*
X5431370Y3014980D01*
X5486400Y3010150D01*
Y2966720D01*
G01X6231470Y589280D02*
Y779780D01*
X6290730D01*
X6309700Y770250D01*
X6321550Y757550D01*
X6326290Y732150D01*
X6321550Y706750D01*
X6307330Y690880D01*
X6290730Y681350D01*
X6231470D01*
G01X6290730D02*
X6326290Y589280D01*
G01X6424340Y668650D02*
X6440930Y690880D01*
X6455160Y703580D01*
X6474120Y709930D01*
X6490720Y703580D01*
X6502570Y690880D01*
X6512050Y671830D01*
X6514420Y649600D01*
X6512050Y630550D01*
X6502570Y611500D01*
X6488340Y595630D01*
X6471750Y589280D01*
X6452790Y595630D01*
X6436190Y614670D01*
X6426710Y643260D01*
X6424340Y675000D01*
X6429080Y716280D01*
X6436190Y738510D01*
X6448040Y760730D01*
X6464640Y776610D01*
X6481230Y779780D01*
X6497830Y773430D01*
X6509680Y757550D01*
G01X6231470Y1097280D02*
Y1287780D01*
X6290730D01*
X6309700Y1278250D01*
X6321550Y1265550D01*
X6326290Y1240150D01*
X6321550Y1214750D01*
X6307330Y1198880D01*
X6290730Y1189350D01*
X6231470D01*
G01X6290730D02*
X6326290Y1097280D01*
G01X6417230Y1125850D02*
X6431450Y1109980D01*
X6448040Y1100450D01*
X6469380Y1097280D01*
X6490720Y1103630D01*
X6507310Y1116330D01*
X6519160Y1138550D01*
X6521530Y1163950D01*
X6516790Y1189350D01*
X6504940Y1205230D01*
X6488340Y1217930D01*
X6471750Y1221100D01*
X6455160Y1217930D01*
X6433820Y1205230D01*
X6440930Y1287780D01*
X6504940D01*
G01X6231470Y1732280D02*
Y1922780D01*
X6290730D01*
X6309700Y1913250D01*
X6321550Y1900550D01*
X6326290Y1875150D01*
X6321550Y1849750D01*
X6307330Y1833880D01*
X6290730Y1824350D01*
X6231470D01*
G01X6290730D02*
X6326290Y1732280D01*
G01X6464640D02*
X6469380Y1773550D01*
X6476490Y1808480D01*
X6485970Y1840230D01*
X6497830Y1875150D01*
X6516790Y1922780D01*
X6421970D01*
G01X5946560Y4203700D02*
X5938520Y4216400D01*
X5928870Y4224870D01*
X5917610Y4229100D01*
X5904740Y4224870D01*
X5895090Y4216400D01*
X5885430Y4203700D01*
X5882220Y4186770D01*
Y4102100D01*
G01X5815420Y4176190D02*
X5804150Y4161370D01*
X5794500Y4152900D01*
X5781630Y4148670D01*
X5770370Y4152900D01*
X5762330Y4161370D01*
X5755890Y4174070D01*
X5754280Y4188880D01*
X5755890Y4201590D01*
X5762330Y4214290D01*
X5771980Y4224870D01*
X5783240Y4229100D01*
X5796110Y4224870D01*
X5807370Y4212170D01*
X5813810Y4193120D01*
X5815420Y4171950D01*
X5812200Y4144440D01*
X5807370Y4129610D01*
X5799330Y4114800D01*
X5788070Y4104220D01*
X5776810Y4102100D01*
X5765550Y4106330D01*
X5757500Y4116920D01*
G01X6113780Y4309530D02*
X6304280D01*
Y4250270D01*
X6294750Y4231300D01*
X6282050Y4219450D01*
X6256650Y4214710D01*
X6231250Y4219450D01*
X6215380Y4233670D01*
X6205850Y4250270D01*
Y4309530D01*
G01Y4250270D02*
X6113780Y4214710D01*
G01Y4071620D02*
X6304280D01*
X6266180Y4100070D01*
G01X6113780D02*
Y4043180D01*
G01X6136000Y3921420D02*
X6120130Y3904830D01*
X6113780Y3885860D01*
X6120130Y3866900D01*
X6139170Y3850300D01*
X6167760Y3838450D01*
X6196330Y3833710D01*
X6231250D01*
X6259830Y3838450D01*
X6285230Y3850300D01*
X6297930Y3864530D01*
X6304280Y3881120D01*
X6297930Y3900090D01*
X6285230Y3914310D01*
X6266180Y3923790D01*
X6240780Y3928530D01*
X6218560Y3923790D01*
X6196330Y3911940D01*
X6183630Y3897710D01*
X6180450Y3881120D01*
X6186800Y3862160D01*
X6202680Y3847930D01*
X6231250Y3833710D01*
G01X6812200Y2950850D02*
X6826420Y2941320D01*
X6843010Y2934970D01*
X6861980D01*
X6883320Y2944500D01*
X6899910Y2960370D01*
X6911760Y2979420D01*
X6921250Y3011170D01*
X6923620Y3039750D01*
X6918870Y3068320D01*
X6911760Y3087370D01*
X6897540Y3106420D01*
X6880940Y3119120D01*
X6864350Y3125470D01*
X6847760D01*
X6831160Y3119120D01*
X6816940Y3109600D01*
X6805080Y3096900D01*
G01X6645400Y3125470D02*
Y2934970D01*
X6733120Y3071490D01*
X6614580D01*
G01X7602300Y3843650D02*
X7588080Y3853180D01*
X7571490Y3859530D01*
X7552520D01*
X7531180Y3850000D01*
X7514590Y3834130D01*
X7502740Y3815080D01*
X7493250Y3783330D01*
X7490880Y3754750D01*
X7495630Y3726180D01*
X7502740Y3707130D01*
X7516960Y3688080D01*
X7533560Y3675380D01*
X7550150Y3669030D01*
X7566740D01*
X7583340Y3675380D01*
X7597560Y3684900D01*
X7609420Y3697600D01*
G01X7740650Y3669030D02*
Y3859530D01*
X7712200Y3821430D01*
G01Y3669030D02*
X7769090D01*
G01X7931150Y3859530D02*
X7912180Y3853180D01*
X7897960Y3837300D01*
X7888480Y3818260D01*
X7881370Y3792850D01*
X7879000Y3764280D01*
X7881370Y3735700D01*
X7888480Y3710300D01*
X7897960Y3691250D01*
X7912180Y3675380D01*
X7931150Y3669030D01*
X7950110Y3675380D01*
X7964340Y3691250D01*
X7973820Y3710300D01*
X7980930Y3735700D01*
X7983300Y3764280D01*
X7980930Y3792850D01*
X7973820Y3818260D01*
X7964340Y3837300D01*
X7950110Y3853180D01*
X7931150Y3859530D01*
G01X8369640Y750140D02*
Y788750D01*
G01X8342120Y767840D02*
X8397160D01*
G01X7748190Y1689100D02*
Y1552580D01*
X7757670Y1523990D01*
X7776630Y1504950D01*
X7800340Y1498600D01*
X7824050Y1504950D01*
X7843010Y1523990D01*
X7852490Y1552580D01*
Y1689100D01*
G01X7990840Y1498600D02*
Y1689100D01*
X7962390Y1651000D01*
G01Y1498600D02*
X8019280D01*
G01X8039860Y1966210D02*
Y2093210D01*
X8020560Y2067810D01*
G01Y1966210D02*
X8059160D01*
G01X8493760Y2566160D02*
Y2439160D01*
X8513060Y2464560D01*
G01Y2566160D02*
X8474460D01*
G01X8367440D02*
X8364220Y2538650D01*
X8359390Y2515360D01*
X8352960Y2494190D01*
X8344920Y2470910D01*
X8332050Y2439160D01*
X8396390D01*
G01X8237220Y3056470D02*
X8046720D01*
Y3115730D01*
X8056250Y3134700D01*
X8068950Y3146550D01*
X8094350Y3151290D01*
X8119750Y3146550D01*
X8135620Y3132330D01*
X8145150Y3115730D01*
Y3056470D01*
G01Y3115730D02*
X8237220Y3151290D01*
G01X8078470Y3249340D02*
X8059420Y3263560D01*
X8049890Y3280160D01*
X8046720Y3299120D01*
X8053070Y3322830D01*
X8068950Y3339420D01*
X8087990Y3344160D01*
X8107050Y3341790D01*
X8122920Y3332310D01*
X8154670Y3284900D01*
X8176900Y3263560D01*
X8208650Y3249340D01*
X8237220Y3244600D01*
Y3344160D01*
G01X8465190Y716360D02*
X8455660Y702140D01*
X8449310Y685550D01*
Y666580D01*
X8458840Y645240D01*
X8474710Y628650D01*
X8493760Y616800D01*
X8525510Y607310D01*
X8554090Y604940D01*
X8582660Y609690D01*
X8601710Y616800D01*
X8620760Y631020D01*
X8633460Y647620D01*
X8639810Y664210D01*
Y680800D01*
X8633460Y697400D01*
X8623940Y711620D01*
X8611240Y723480D01*
G01X8617590Y814410D02*
X8633460Y831000D01*
X8639810Y849970D01*
X8633460Y868930D01*
X8614420Y885530D01*
X8585830Y897380D01*
X8557260Y902120D01*
X8522340D01*
X8493760Y897380D01*
X8468360Y885530D01*
X8455660Y871300D01*
X8449310Y854710D01*
X8455660Y835740D01*
X8468360Y821520D01*
X8487410Y812040D01*
X8512810Y807300D01*
X8535030Y812040D01*
X8557260Y823890D01*
X8569960Y838120D01*
X8573140Y854710D01*
X8566790Y873670D01*
X8550910Y887900D01*
X8522340Y902120D01*
G01X8935720Y3056470D02*
X8745220D01*
Y3115730D01*
X8754750Y3134700D01*
X8767450Y3146550D01*
X8792850Y3151290D01*
X8818250Y3146550D01*
X8834120Y3132330D01*
X8843650Y3115730D01*
Y3056470D01*
G01Y3115730D02*
X8935720Y3151290D01*
G01X8897620Y3242230D02*
X8919850Y3256450D01*
X8932550Y3275410D01*
X8935720Y3296750D01*
X8932550Y3315720D01*
X8916670Y3334680D01*
X8897620Y3346530D01*
X8878570Y3348900D01*
X8856350Y3344160D01*
X8840470Y3327570D01*
X8834120Y3310970D01*
Y3289640D01*
G01Y3310970D02*
X8824600Y3325200D01*
X8808720Y3337050D01*
X8789670Y3341790D01*
X8770620Y3337050D01*
X8754750Y3325200D01*
X8745220Y3303860D01*
X8748390Y3282530D01*
X8761100Y3261190D01*
G01X9779000Y4445000D02*
Y4191000D01*
X8509000D01*
Y4445000D01*
X9779000D01*
G01X9481190Y716360D02*
X9471660Y702140D01*
X9465310Y685550D01*
Y666580D01*
X9474840Y645240D01*
X9490710Y628650D01*
X9509760Y616800D01*
X9541510Y607310D01*
X9570090Y604940D01*
X9598660Y609690D01*
X9617710Y616800D01*
X9636760Y631020D01*
X9649460Y647620D01*
X9655810Y664210D01*
Y680800D01*
X9649460Y697400D01*
X9639940Y711620D01*
X9627240Y723480D01*
G01Y802560D02*
X9643110Y816780D01*
X9652640Y833370D01*
X9655810Y854710D01*
X9649460Y876050D01*
X9636760Y892640D01*
X9614540Y904490D01*
X9589140Y906860D01*
X9563740Y902120D01*
X9547860Y890270D01*
X9535160Y873670D01*
X9531990Y857080D01*
X9535160Y840490D01*
X9547860Y819150D01*
X9465310Y826260D01*
Y890270D01*
G01X9385640Y750140D02*
Y788750D01*
G01X9358120Y767840D02*
X9413160D01*
G01X9824720Y3183470D02*
X9634220D01*
Y3242730D01*
X9643750Y3261700D01*
X9656450Y3273550D01*
X9681850Y3278290D01*
X9707250Y3273550D01*
X9723120Y3259330D01*
X9732650Y3242730D01*
Y3183470D01*
G01Y3242730D02*
X9824720Y3278290D01*
G01Y3449830D02*
X9634220D01*
X9770740Y3362110D01*
Y3480650D01*
G01X9629560Y4394200D02*
X9621520Y4406900D01*
X9611870Y4415370D01*
X9600610Y4419600D01*
X9587740Y4415370D01*
X9578090Y4406900D01*
X9568430Y4394200D01*
X9565220Y4377270D01*
Y4292600D01*
G01X9467850Y4419600D02*
Y4292600D01*
X9487150Y4318000D01*
G01Y4419600D02*
X9448550D01*
G01X10243190Y716360D02*
X10233660Y702140D01*
X10227310Y685550D01*
Y666580D01*
X10236840Y645240D01*
X10252710Y628650D01*
X10271760Y616800D01*
X10303510Y607310D01*
X10332090Y604940D01*
X10360660Y609690D01*
X10379710Y616800D01*
X10398760Y631020D01*
X10411460Y647620D01*
X10417810Y664210D01*
Y680800D01*
X10411460Y697400D01*
X10401940Y711620D01*
X10389240Y723480D01*
G01X10338440Y809670D02*
X10316210Y826260D01*
X10303510Y840490D01*
X10297160Y859450D01*
X10303510Y876050D01*
X10316210Y887900D01*
X10335260Y897380D01*
X10357490Y899750D01*
X10376540Y897380D01*
X10395590Y887900D01*
X10411460Y873670D01*
X10417810Y857080D01*
X10411460Y838120D01*
X10392420Y821520D01*
X10363830Y812040D01*
X10332090Y809670D01*
X10290810Y814410D01*
X10268580Y821520D01*
X10246360Y833370D01*
X10230480Y849970D01*
X10227310Y866560D01*
X10233660Y883160D01*
X10249540Y895010D01*
G01X10147640Y750140D02*
Y788750D01*
G01X10120120Y767840D02*
X10175160D01*
G01X10132060Y1902460D02*
X10046340D01*
X9941560Y1855050D01*
G01Y1949870D02*
X10046340Y1902460D01*
G01X9973310Y2047920D02*
X9954260Y2062140D01*
X9944730Y2078740D01*
X9941560Y2097700D01*
X9947910Y2121410D01*
X9963790Y2138000D01*
X9982830Y2142740D01*
X10001890Y2140370D01*
X10017760Y2130890D01*
X10049510Y2083480D01*
X10071740Y2062140D01*
X10103490Y2047920D01*
X10132060Y2043180D01*
Y2142740D01*
G01X10177700Y1744350D02*
X10191920Y1734820D01*
X10208510Y1728470D01*
X10227480D01*
X10248820Y1738000D01*
X10265410Y1753870D01*
X10277260Y1772920D01*
X10286750Y1804670D01*
X10289120Y1833250D01*
X10284370Y1861820D01*
X10277260Y1880870D01*
X10263040Y1899920D01*
X10246440Y1912620D01*
X10229850Y1918970D01*
X10213260D01*
X10196660Y1912620D01*
X10182440Y1903100D01*
X10170580Y1890400D01*
G01X10084390Y1760220D02*
X10070170Y1741170D01*
X10053570Y1731640D01*
X10034610Y1728470D01*
X10010900Y1734820D01*
X9994310Y1750700D01*
X9989570Y1769740D01*
X9991940Y1788800D01*
X10001420Y1804670D01*
X10048830Y1836420D01*
X10070170Y1858650D01*
X10084390Y1890400D01*
X10089130Y1918970D01*
X9989570D01*
G01X10380350Y2268300D02*
X10370820Y2254080D01*
X10364470Y2237490D01*
Y2218520D01*
X10374000Y2197180D01*
X10389870Y2180590D01*
X10408920Y2168740D01*
X10440670Y2159250D01*
X10469250Y2156880D01*
X10497820Y2161630D01*
X10516870Y2168740D01*
X10535920Y2182960D01*
X10548620Y2199560D01*
X10554970Y2216150D01*
Y2232740D01*
X10548620Y2249340D01*
X10539100Y2263560D01*
X10526400Y2275420D01*
G01X10516870Y2354500D02*
X10539100Y2368720D01*
X10551800Y2387680D01*
X10554970Y2409020D01*
X10551800Y2427990D01*
X10535920Y2446950D01*
X10516870Y2458800D01*
X10497820Y2461170D01*
X10475600Y2456430D01*
X10459720Y2439840D01*
X10453370Y2423240D01*
Y2401910D01*
G01Y2423240D02*
X10443850Y2437470D01*
X10427970Y2449320D01*
X10408920Y2454060D01*
X10389870Y2449320D01*
X10374000Y2437470D01*
X10364470Y2416130D01*
X10367640Y2394800D01*
X10380350Y2373460D01*
G01X10332720Y3183470D02*
X10142220D01*
Y3242730D01*
X10151750Y3261700D01*
X10164450Y3273550D01*
X10189850Y3278290D01*
X10215250Y3273550D01*
X10231120Y3259330D01*
X10240650Y3242730D01*
Y3183470D01*
G01Y3242730D02*
X10332720Y3278290D01*
G01Y3421380D02*
X10142220D01*
X10180320Y3392930D01*
G01X10332720D02*
Y3449820D01*
G01Y3640330D02*
X10142220D01*
X10278740Y3552610D01*
Y3671150D01*
M02*
