G04 ================== begin FILE IDENTIFICATION RECORD ==================*
G04 Layout Name:  My_AVRUSB500.brd*
G04 Film Name:    Sold_b*
G04 File Format:  Gerber RS274X*
G04 File Origin:  Cadence Allegro 17.2-S052*
G04 Origin Date:  Mon Jul 29 16:02:50 2019*
G04 *
G04 Layer:  VIA CLASS/SOLDERMASK_BOTTOM*
G04 Layer:  PIN/SOLDERMASK_BOTTOM*
G04 Layer:  PACKAGE GEOMETRY/SILKSCREEN_BOTTOM*
G04 Layer:  BOARD GEOMETRY/SOLDERMASK_BOTTOM*
G04 *
G04 Offset:    (0.0000 0.0000)*
G04 Mirror:    No*
G04 Mode:      Positive*
G04 Rotation:  0*
G04 FullContactRelief:  No*
G04 UndefLineWidth:     0.0000*
G04 ================== end FILE IDENTIFICATION RECORD ====================*
%FSLAX55Y55*MOMM*%
%IR0*IPPOS*OFA0.00000B0.00000*MIA0B0*SFA1.00000B1.00000*%
%ADD12O,1.1999X1.8999*%
%ADD11C,1.3211*%
%ADD14R,1.3211X1.3211*%
%ADD13C,1.905*%
%ADD10C,1.1176*%
%LPD*%
G75*
G54D10*
X635000Y2286000D03*
X1460500Y889000D03*
X1778000Y1968500D03*
Y2730500D03*
X1587500Y2603500D03*
X1841500Y2159000D03*
X1524000Y2413000D03*
X1778000Y2868940D03*
Y3048000D03*
Y3365500D03*
X1714500Y3238500D03*
X1587500Y3365500D03*
X1524000Y3873500D03*
X1905000Y3619500D03*
X1524000Y4191000D03*
X2222500Y2222500D03*
X3365500Y1143000D03*
X3238500Y2603500D03*
X3429000Y2667000D03*
X2857500Y2159000D03*
X3175000Y2794000D03*
X3365500Y3429000D03*
X3111500Y2984500D03*
X3175000Y3175000D03*
X3365500Y3810000D03*
X3873500Y1333500D03*
X3683000Y2032000D03*
Y2476500D03*
X4000500Y2921000D03*
X3619500Y3238500D03*
X3873500Y2794000D03*
X3746500Y4064000D03*
Y3683000D03*
X4318000Y1270000D03*
X4826000Y1905000D03*
X4381500Y1397000D03*
X4762500Y2667000D03*
Y3238500D03*
Y3873500D03*
X4644490Y4118510D03*
X5270500Y1143000D03*
X5334000Y1460500D03*
X5143500Y2476500D03*
X5270500Y3365500D03*
Y2921000D03*
X5461000Y3873500D03*
X5080000Y3556000D03*
X5905500Y1016000D03*
X5778500Y2032000D03*
X6096000Y2413000D03*
X5778500Y2667000D03*
X5715000Y3175000D03*
Y3873500D03*
X5969000D03*
X6985000Y1651000D03*
X6540500Y3492500D03*
X7366000Y1079500D03*
X7112000Y1143000D03*
X7429500Y1778000D03*
X7556500Y2032000D03*
X7620000Y1841500D03*
X7556500Y1587500D03*
X7048500Y1524000D03*
X7493000Y1460500D03*
X7683500Y2286000D03*
X7556500Y2413000D03*
X7493000Y2222500D03*
X7683500Y2159000D03*
X7366000Y2476500D03*
X7175500Y2540000D03*
X7302500Y2159000D03*
X7112000Y2095500D03*
X7175500Y3048000D03*
X7747000Y1333500D03*
X8191500Y1651000D03*
X7874000Y1587500D03*
X8382000D03*
X7747000Y4318000D03*
X8318500D03*
X8572500Y825500D03*
X9017000Y1968500D03*
X8445500Y1714500D03*
X8890000Y1778000D03*
X8953500Y1397000D03*
X8826500Y1587500D03*
X8890000Y2222500D03*
X9080500D03*
X8572500Y2921000D03*
X9017000Y2857500D03*
X8636000Y4064000D03*
G54D11*
X1079500Y2413000D03*
Y3175000D03*
X8128000Y1016000D03*
X9144000D03*
X9652000Y2032000D03*
Y2794000D03*
X9906000Y1016000D03*
G54D12*
X3768000Y698500D03*
Y1068500D03*
X4888000Y698500D03*
Y1068500D03*
G54D13*
X5461000Y2159000D03*
Y2413000D03*
Y2667000D03*
Y2921000D03*
Y3175000D03*
X4953000Y4127500D03*
X5207000D03*
X5461000D03*
X5715000D03*
X5969000D03*
X8636000Y4318000D03*
X8890000D03*
X9144000D03*
X9398000D03*
X9652000D03*
G54D14*
X8128000Y762000D03*
X9144000D03*
X9906000D03*
M02*
